<mxfile host="Electron" agent="Mozilla/5.0 (Windows NT 10.0; Win64; x64) AppleWebKit/537.36 (KHTML, like Gecko) draw.io/26.0.9 Chrome/128.0.6613.186 Electron/32.2.5 Safari/537.36" version="26.0.9">
  <diagram name="Page-1" id="PX7eC7gbQ4CXSEUahQhJ">
    <mxGraphModel dx="2327" dy="887" grid="1" gridSize="10" guides="1" tooltips="1" connect="1" arrows="1" fold="1" page="1" pageScale="1" pageWidth="827" pageHeight="1169" math="0" shadow="0">
      <root>
        <mxCell id="0" />
        <mxCell id="1" parent="0" />
        <mxCell id="F8rlqcTrgMaWFQeFcG7n-3" value="" style="edgeStyle=orthogonalEdgeStyle;rounded=0;orthogonalLoop=1;jettySize=auto;html=1;" edge="1" parent="1" source="F8rlqcTrgMaWFQeFcG7n-1" target="F8rlqcTrgMaWFQeFcG7n-2">
          <mxGeometry relative="1" as="geometry" />
        </mxCell>
        <mxCell id="F8rlqcTrgMaWFQeFcG7n-79" value="" style="edgeStyle=orthogonalEdgeStyle;rounded=0;orthogonalLoop=1;jettySize=auto;html=1;" edge="1" parent="1" source="F8rlqcTrgMaWFQeFcG7n-1" target="F8rlqcTrgMaWFQeFcG7n-78">
          <mxGeometry relative="1" as="geometry" />
        </mxCell>
        <mxCell id="F8rlqcTrgMaWFQeFcG7n-1" value="&lt;b&gt;&lt;i&gt;Telcom&amp;nbsp;&lt;/i&gt;&lt;/b&gt;" style="rounded=0;whiteSpace=wrap;html=1;fillColor=#dae8fc;gradientColor=#7ea6e0;strokeColor=#6c8ebf;" vertex="1" parent="1">
          <mxGeometry x="289" y="250" width="250" height="30" as="geometry" />
        </mxCell>
        <mxCell id="F8rlqcTrgMaWFQeFcG7n-5" value="" style="edgeStyle=orthogonalEdgeStyle;rounded=0;orthogonalLoop=1;jettySize=auto;html=1;" edge="1" parent="1" source="F8rlqcTrgMaWFQeFcG7n-2" target="F8rlqcTrgMaWFQeFcG7n-4">
          <mxGeometry relative="1" as="geometry" />
        </mxCell>
        <mxCell id="F8rlqcTrgMaWFQeFcG7n-2" value="2G&amp;nbsp;" style="whiteSpace=wrap;html=1;fillColor=#dae8fc;strokeColor=#6c8ebf;rounded=0;gradientColor=#7ea6e0;" vertex="1" parent="1">
          <mxGeometry x="10" y="330" width="120" height="30" as="geometry" />
        </mxCell>
        <mxCell id="F8rlqcTrgMaWFQeFcG7n-7" value="" style="edgeStyle=orthogonalEdgeStyle;rounded=0;orthogonalLoop=1;jettySize=auto;html=1;" edge="1" parent="1" source="F8rlqcTrgMaWFQeFcG7n-4" target="F8rlqcTrgMaWFQeFcG7n-6">
          <mxGeometry relative="1" as="geometry" />
        </mxCell>
        <mxCell id="F8rlqcTrgMaWFQeFcG7n-4" value="3G&amp;nbsp;" style="whiteSpace=wrap;html=1;fillColor=#dae8fc;strokeColor=#6c8ebf;rounded=0;gradientColor=#7ea6e0;" vertex="1" parent="1">
          <mxGeometry x="190" y="325" width="120" height="35" as="geometry" />
        </mxCell>
        <mxCell id="F8rlqcTrgMaWFQeFcG7n-9" value="" style="edgeStyle=orthogonalEdgeStyle;rounded=0;orthogonalLoop=1;jettySize=auto;html=1;" edge="1" parent="1" source="F8rlqcTrgMaWFQeFcG7n-6" target="F8rlqcTrgMaWFQeFcG7n-8">
          <mxGeometry relative="1" as="geometry" />
        </mxCell>
        <mxCell id="F8rlqcTrgMaWFQeFcG7n-6" value="4G" style="whiteSpace=wrap;html=1;fillColor=#dae8fc;strokeColor=#6c8ebf;rounded=0;gradientColor=#7ea6e0;" vertex="1" parent="1">
          <mxGeometry x="370" y="330" width="120" height="30" as="geometry" />
        </mxCell>
        <mxCell id="F8rlqcTrgMaWFQeFcG7n-8" value="5G&amp;nbsp;" style="whiteSpace=wrap;html=1;fillColor=#dae8fc;strokeColor=#6c8ebf;rounded=0;gradientColor=#7ea6e0;" vertex="1" parent="1">
          <mxGeometry x="550" y="325" width="120" height="30" as="geometry" />
        </mxCell>
        <mxCell id="F8rlqcTrgMaWFQeFcG7n-10" value="SRAN---CRAN----VRAN----ORAN" style="rounded=1;whiteSpace=wrap;html=1;fillColor=#dae8fc;gradientColor=#7ea6e0;strokeColor=#6c8ebf;" vertex="1" parent="1">
          <mxGeometry x="370" y="380" width="300" height="30" as="geometry" />
        </mxCell>
        <mxCell id="F8rlqcTrgMaWFQeFcG7n-11" value="" style="fontColor=#0066CC;verticalAlign=top;verticalLabelPosition=bottom;labelPosition=center;align=center;html=1;outlineConnect=0;fillColor=#CCCCCC;strokeColor=#6881B3;gradientColor=none;gradientDirection=north;strokeWidth=2;shape=mxgraph.networks.radio_tower;" vertex="1" parent="1">
          <mxGeometry x="255" y="440" width="55" height="100" as="geometry" />
        </mxCell>
        <mxCell id="F8rlqcTrgMaWFQeFcG7n-12" value="ABC/ Singel vendor&amp;nbsp;" style="rounded=1;whiteSpace=wrap;html=1;fillColor=#ffcd28;gradientColor=#ffa500;strokeColor=#d79b00;" vertex="1" parent="1">
          <mxGeometry x="-110" y="420" width="230" height="30" as="geometry" />
        </mxCell>
        <mxCell id="F8rlqcTrgMaWFQeFcG7n-16" style="edgeStyle=orthogonalEdgeStyle;rounded=0;orthogonalLoop=1;jettySize=auto;html=1;" edge="1" parent="1" source="F8rlqcTrgMaWFQeFcG7n-13" target="F8rlqcTrgMaWFQeFcG7n-14">
          <mxGeometry relative="1" as="geometry" />
        </mxCell>
        <mxCell id="F8rlqcTrgMaWFQeFcG7n-13" value="Core&amp;nbsp;" style="whiteSpace=wrap;html=1;fillColor=#dae8fc;strokeColor=#6c8ebf;rounded=0;gradientColor=#7ea6e0;" vertex="1" parent="1">
          <mxGeometry x="-160" y="480" width="120" height="30" as="geometry" />
        </mxCell>
        <mxCell id="F8rlqcTrgMaWFQeFcG7n-15" style="edgeStyle=orthogonalEdgeStyle;rounded=0;orthogonalLoop=1;jettySize=auto;html=1;" edge="1" parent="1" source="F8rlqcTrgMaWFQeFcG7n-14" target="F8rlqcTrgMaWFQeFcG7n-11">
          <mxGeometry relative="1" as="geometry" />
        </mxCell>
        <mxCell id="F8rlqcTrgMaWFQeFcG7n-14" value="RAN" style="whiteSpace=wrap;html=1;fillColor=#dae8fc;strokeColor=#6c8ebf;rounded=0;gradientColor=#7ea6e0;" vertex="1" parent="1">
          <mxGeometry x="30" y="480" width="120" height="30" as="geometry" />
        </mxCell>
        <mxCell id="F8rlqcTrgMaWFQeFcG7n-17" value="Nokia" style="rounded=1;whiteSpace=wrap;html=1;fillColor=#ffcd28;gradientColor=#ffa500;strokeColor=#d79b00;" vertex="1" parent="1">
          <mxGeometry x="-160" y="525" width="390" height="25" as="geometry" />
        </mxCell>
        <mxCell id="F8rlqcTrgMaWFQeFcG7n-57" value="" style="edgeStyle=orthogonalEdgeStyle;rounded=0;orthogonalLoop=1;jettySize=auto;html=1;" edge="1" parent="1" source="F8rlqcTrgMaWFQeFcG7n-18" target="F8rlqcTrgMaWFQeFcG7n-51">
          <mxGeometry relative="1" as="geometry" />
        </mxCell>
        <mxCell id="F8rlqcTrgMaWFQeFcG7n-59" value="" style="edgeStyle=orthogonalEdgeStyle;rounded=0;orthogonalLoop=1;jettySize=auto;html=1;" edge="1" parent="1" target="F8rlqcTrgMaWFQeFcG7n-58">
          <mxGeometry relative="1" as="geometry">
            <mxPoint x="70" y="585.0285714285715" as="sourcePoint" />
          </mxGeometry>
        </mxCell>
        <mxCell id="F8rlqcTrgMaWFQeFcG7n-18" value="HW + SW&amp;nbsp;" style="rounded=1;whiteSpace=wrap;html=1;fillColor=#f8cecc;gradientColor=#ea6b66;strokeColor=#b85450;" vertex="1" parent="1">
          <mxGeometry x="-50" y="565" width="120" height="20" as="geometry" />
        </mxCell>
        <mxCell id="F8rlqcTrgMaWFQeFcG7n-51" value="ERICSSON&amp;nbsp;" style="rounded=1;whiteSpace=wrap;html=1;fillColor=#d5e8d4;gradientColor=#97d077;strokeColor=#82b366;" vertex="1" parent="1">
          <mxGeometry x="-160" y="610" width="380" height="30" as="geometry" />
        </mxCell>
        <mxCell id="F8rlqcTrgMaWFQeFcG7n-55" value="" style="edgeStyle=orthogonalEdgeStyle;rounded=0;orthogonalLoop=1;jettySize=auto;html=1;" edge="1" parent="1" source="F8rlqcTrgMaWFQeFcG7n-52" target="F8rlqcTrgMaWFQeFcG7n-54">
          <mxGeometry relative="1" as="geometry" />
        </mxCell>
        <mxCell id="F8rlqcTrgMaWFQeFcG7n-52" value="CA--3CA" style="text;html=1;align=center;verticalAlign=middle;whiteSpace=wrap;rounded=0;" vertex="1" parent="1">
          <mxGeometry x="250" y="610" width="110" height="30" as="geometry" />
        </mxCell>
        <mxCell id="F8rlqcTrgMaWFQeFcG7n-53" value="CA--2CA" style="text;html=1;align=center;verticalAlign=middle;whiteSpace=wrap;rounded=0;" vertex="1" parent="1">
          <mxGeometry x="320" y="490" width="110" height="30" as="geometry" />
        </mxCell>
        <mxCell id="F8rlqcTrgMaWFQeFcG7n-54" value="4CA" style="whiteSpace=wrap;html=1;" vertex="1" parent="1">
          <mxGeometry x="435" y="610" width="120" height="20" as="geometry" />
        </mxCell>
        <mxCell id="F8rlqcTrgMaWFQeFcG7n-56" value="Vendor locking" style="whiteSpace=wrap;html=1;fillColor=#dae8fc;strokeColor=#6c8ebf;rounded=0;gradientColor=#7ea6e0;" vertex="1" parent="1">
          <mxGeometry x="350" y="560" width="120" height="30" as="geometry" />
        </mxCell>
        <mxCell id="F8rlqcTrgMaWFQeFcG7n-58" value="Dependent&amp;nbsp;" style="whiteSpace=wrap;html=1;fillColor=#f8cecc;strokeColor=#b85450;rounded=1;gradientColor=#ea6b66;" vertex="1" parent="1">
          <mxGeometry x="120" y="565" width="120" height="25" as="geometry" />
        </mxCell>
        <mxCell id="F8rlqcTrgMaWFQeFcG7n-60" value="" style="fontColor=#0066CC;verticalAlign=top;verticalLabelPosition=bottom;labelPosition=center;align=center;html=1;outlineConnect=0;fillColor=#CCCCCC;strokeColor=#6881B3;gradientColor=none;gradientDirection=north;strokeWidth=2;shape=mxgraph.networks.pc;" vertex="1" parent="1">
          <mxGeometry x="610" y="455" width="100" height="70" as="geometry" />
        </mxCell>
        <mxCell id="F8rlqcTrgMaWFQeFcG7n-61" value="" style="image;aspect=fixed;perimeter=ellipsePerimeter;html=1;align=center;shadow=0;dashed=0;spacingTop=3;image=img/lib/active_directory/windows_server_2.svg;" vertex="1" parent="1">
          <mxGeometry x="840" y="460" width="40" height="50" as="geometry" />
        </mxCell>
        <mxCell id="F8rlqcTrgMaWFQeFcG7n-62" value="" style="shape=image;verticalLabelPosition=bottom;labelBackgroundColor=default;verticalAlign=top;aspect=fixed;imageAspect=0;image=data:image/png,iVBORw0KGgoAAAANSUhEUgAAASwAAACoCAMAAABt9SM9AAABYlBMVEX////5+fk2Njb+sQFCQkL8/PwxMTE0NDRAQEA4ODjz8/MmJiYvLy/Nzc3r6+v///2xsbGJiYkqKipISEi+vr7T09P/tQAgICCamprd3d1/f3//sAJMTEyoqKjt7e3k5ORUVFR3d3eWlpYaGhq5ubmhoaH/uwBqampdXV3FxcWEhIR4eHhmZmYAAAATExPc4d0sMDpdYW4kJTEQEyc2NDkjLDuGgnuZeSfIlB/UnBCtihaMb0ceIh8mMjGSdCH1tAbFnRbhpwCmgRpdTzB6YETnrRB5cmmSkpwvNi+MZBnJlwBrXhMfLjYqLD07OiwzOUF/XzRLQy6AayNaUz9+YypqViyWfSCtfSa+ihR0bXeMbBBrcWZ9d2OAcFN9ckKLbhE/MhdkRgBaRg80PFUTLDpQOxMnIzl5fY2ecQDXqBNQTymugQAlNCxFNBqTbiQLHzZuYCtNOgAzJBNERjjHyblHUF23UCWNAAAOxUlEQVR4nO2dC3vaRhaGR4KRNLogECAhQBcwV5s6OMUbk22i4NS14yRO0yZbx9vdbrNtk9TbtNtu/v/OSAKEQZjdpoVK+p4mVkC4o/c558yZyxkASJQoUaJEiRJtmOC6G/CHklUwSqVsQafW3ZBNFoTYqnjD1jRBUTRti651IXkx0QJhLpTBCgztCdHiVrWbeOViQaB3NJYOitFKMIli88J21aVF+qqEbUglweuqIJAUZo4VplVPLGteFruAFUK01k0ccU49ZYFdIYSYNJ/AuqLu1gJWniMaCaygMAx7UcDyusR8EuGDgsDaDWNF05q07vZtlCBoCigUllJfd/s2TO1QL8R+aK+7dRumNIvoedvyX1H4dTdvo0SxLCIK2pP7EiGGtqx1t2+jZIp4UMgELEpg8ml/TI2SCD+rjEKLyEaK73isULcovmv7eapWWHf7NkoZRallKKumeLCULoAUBLyffAnZdbdvo2QprInx8HkyRYNwzo5RURQoagmseVlbZQB4CAwBB3WW4yHsZjE9UGUSWHOydg2QFaoZk8ASMbiOpnEWBDkxgTUnazfLi6zSxvkWS0bOTQ3/yJHE3oXVWHf7NkrWbtPawlQoksnjzs8e4EyiQ4Gc2x9qCaygTKFt4WCuZfZu9vsfFkisQmIb+jErSR1mxCtipioO9v9062B4cPvPzc6dweAjA0hCkmfNi2KFZrF/59bwrpO699YZHd6/c7NGQT/PStxwVoilsx8P1dFQTanDo5TaGt79pHDs56hJbzir9Mn+Ayc1VSWlOqcP9/1ZB2PdzdskQZB/dKulqgFa+B+V1r3H7khaya27gZul/H1sV5hPwLZUx1HP3FkHpp0sWQT15ItWxXO/sWGpo1tH6sBdzmfpBFZAUPz0SK34qFQ3Yp3fOkoNH3kzWlv6uhu4Scoo/adfOGrKi/GVSmv42YGqnn7e92AJyZJFQDj77N99e7uluh7YOn2GXdC5my16SSliUTILP1VdYTr14flznMCf3n57/y9HOGR9rANqvKQvlJKoNRbMM+K2/MmoNTo8/OJ8hA1MPX3BQwrY/n4thknWLMbCXigYMv/JqaO6yVbLuTiWKYoC275pIaWWmJYrCGoKLUiQ4nNvhw4mNXr91yKgCKyshnzbErrrbuZGCAJdpFnRpChZ1o+//NvfvzwuUpCwoqA+2VvD5JMY7yqn0GzeNSUKyDxPAQ8V0XQtUcgljohlYSJiGVBTyeMLUJtsM0VCMaGFDUtwp6yughoHrTEspkrFHRaOWJgV2rUgtUDQFKZr+lrs83gI2grZOAoWscKm1Z76IZ0MEaUtsrehFAarMPVDslEr5o5IFnDQlr7QC7H4amBzjRbzKVODbGcQ2yGGhU3LmEYtnG1l1t3edcpU3MIAKcywcIjnAvU8yg7Owdbd5rXJzaPEdiirwPjQS7YKcQ1bEHQFFsdvITRiEdMqBP2QTZvxhAWBtx9rScQisHQlWFcnxHSlB+JBIdliK2SXwaKoXNC0aEWPpyOSrQwszXCLs/eJaVEdhs4zyE+2lB6MYy0wSaGYPK1Iyw0LO6LAVnGeT3tbv+O4TQSCukAzHRsHoeWsKLJNi+lt+wUreGgUw+ShqNFsHucF5lIndE0rs0UruZ3xKDGGeTzETqg0mdBR4YxplRWcYVVZf5u8EDvTMjQklmuiYF7PCkctfHOvIXhBCwnNmHWIZKKKMZjZGdJw08Idoib1/C6R5WJlWpA4lljLKVs6dW3IotwZU1osT3L5mG1f1gUaKYbNVFdBRUI8HiAy5jjEM511t/93VVlENFcQVwrvrmm1GaTpkxJOMU5zphYxlF5W0IqrWRZF6oK1QnOy9yFO2UNdIaXPdYFbKWIRP8RZmWJ0tbEfxmgvIJXH/qQ0ysJqfSGBZSKy+3syIc/FZ6YGj6ARLUht7Zr5hqA6jGBIY8tCSnyCFvFCWtHbOHFYVbDGaN3G2LJQjPaJ9Bi3R2szq6TvnsC2opk5ZWJZscm0eBKysGWV7ZVZUaAudEB1PGeK4lN0kfG6f6nZW7EvdGF9kM1oZCRNDoBA8cnhLa8+1SjWVo/voJ6GhiAqisgg1l3liYVkcOPOgB7QYg02V4eFxVu6VMhu2+RwEaW47sf4XSQDcENhMS02z/OrkyrmOhwjimy6U2tzCKF4LE3LQNZv9p+eiE+ExsqGBSVBYUh0Z1kG+yFiO/HISaFM7V2MnKNb+2JnVVaAb4vjU3zID1bMxeMgQArkvnLr424/FlaMWbCZPhkMxguHJyd9Fj2p1qk4rIjp/3DcEp3W4SOtsAot2fjaeTpZZB2cDFhHdYYv9+Sow4JQ/ud5i5TKVVKtZ/u7K9CSqSdHrc/ZsWWd0Pu31ZRaaX0d4bxU9n/uPCRVFG6x3NHZna3rgzzUn6vqs+mWtv5zUg3lpIZ7a32e31AylHE3KGcKnZeOOqnAvP1o8FH9uiktWHzQUm95lYckcp2MWu6HnbOIuqGMdSP76t3Zy0snWK767M5Aay/f6kDJ3YuWOvzGc0M02D9wC+1wD/FtRIufIDBfsA8Ph0fYBZ2KX4HpWseAVrguWIYLdi9Ux3nOkK0Ogz594NedV9SLiB7YJsvvHpCKL3VaM05gpdThjyfsQKjDZVv/Cq/JYQ+DR2xf/O7ZSJ1Y5ukrEM0OUfrWmTmJwJfTurs/OEFCxwyP83IDw0qpb57df373TeB3qI5iQvn6//UfTnLz9Twpz5m+x6NqJAp6KC2YvXQRtVqtcRG1H/HO9+RImlbuUq0sYpVKvenT5Pyn8H2lwLh0b8Sp2czBDxjXxYtInuh9fLnYslJq6vCxv8gcBqs5+ewV3mrrqz0L97Prfrj3rePDBRHLA+B82l8OK3ce8tlKSr1MF+XIFYsZF6GwKkeIHZDzZkJYNb45CIWVUg/+VYxc3Co8CH/g1jnuEZmQDYCgoeyHwfI+rERuHlAKtSys1jPBziyuNyRHJe4Pw0HjPvFuDUQrbMnSZ0tgqc47fiErkOlp9MnjUbhhYY0eRwwW6IZZlmcdp0/0uSQeAr4piOSQ16NlsFoHvajBMi6XWFZFVQ8/zFlwOkTEIZvS65y702/wvRP+0ZR69EMxatlDLSzujJ/57Y9i2yhaPKmo4E29UO8oAovT1RO6/3ZhPut+qqKenjWi1hvy1WXWQVIA9ae+KAh01e507CpSBIXxVyjQzdthnPHo53U+egcYSGGZw1TO04G31MWQNa9x7Qk9YB+NFg3BSUbaGv77VQTH0k0/Ca9UQj1KPfwu+C0W469oGLC/LDLKCpmFf610oxbbiY6XxXef1lF/9vv6xqs5z9WrY0LigCn1zc+vYORckKj78npYqacsjVja9UN2yg3H93lYODX76p0EovnFmvLexZG6MPQEnv8+Q+I6l87n82mEo71bwYr6hwtgOfee5qio9YJjyeb22YOhM55XVt3/KjOnklacp3a9ULQyJo+V0aXstq1oDNu/NZ85qJd5CUR0Ttld3bnR7Dz9+vDUUf3FGXUGFv73m87VihzKyvY+uvl2apD+0ZzO120zqqTGgplu3T57+fpg5LTUK1PyOIl/0JCnS7ET6eWfrsBqjc5KkUYle8IXfPF4T/z55eFo9ijlSuueLS+ABWXzl+BtZE7m5n9A1AY4y2R2c49+OHfc0OVHsTdi2JLpq9ctZ0wKO/Hrd5Gbv7pWslSjH/inR+K/TpXivAu6gjfuHLjxzfVB56LNR9oH5yW7fnQju3f24HI4Go3OH767EepZsv7k4qjlrtCqw5fHshzJ5CpcMvBDmFXI9Wy786pLXglhAAHOO55dnp6eHr60/4OjWIzi1VXJ7uzVkoMtCNZMI/fixU5JoqK5qrqq5ElHueyOwPXv0ahN1XJQV++MN6tACrba3b9pWxJFSnGO2KsLd4CUGc35u/cvCIqddDt+g5frZEkTBQzJzHMc6q2vVRspCOq7IkskCluB7WcSk05zyFxn0zZPEHRz5Xwak+mV6oHdVDrNpbl8rA7hWVE5lE4zMyWVEDRZBv3qMnro/olWN+HCmtm5jntDvfu+4nv0YblG4T1m8GGX2sncW9AwulbEzsRYAIv8mYYwyFMzb3mipjdQ/Ex4m8xTFBqlHT3qloUjfMnO+4VwxbrN4cuMUbPtnfFtVLds5/04J21XuQIAfNnTjoEp5er1ei4nSYVGxMp4rsKCfKNDI44lsDL1Kos4JqvXGJbDUrLEboo5jrxKYGVK5AYRw8qIGiLSyvhX7tL44oOIgSKas6zSBzjNSiMCq7krpokEUgnN4QstQ76vQaPxJUtg1XdZfMm4hznoNr4DSSTkZXDm0Y1i+e8cLL2RHcPKFIv4Xc6uF3TdILAYbFrA0hu0D8sqdrkxLFDE4FCNdA8Gi4qR3O+wIGbxac6DhYXfpZvuVQETQiX3Umd8WHhoNIUFmoyLE+gKbUQsZ/C1AJY5tiwQhEV1uDGs4hRWBk1gQdAhjqiDDlOLpF39D7BAGU1giYthWQzm2S4x1ah+f9hCWIvcMARWwA0ByIpkCM5Ebz+pr/cJC8Iavh/lQFQH4TOwvAHN/w8LWKT3ZKyIGtYsLFJq8mvcEO4gQiuyx/fMwCpXbfBrYOHkoYlfoEsx6A1hB3FgVVjeZwKwIJAUpun+QlqKZtgKwuJtjsDCo5U0HQaLWIwuTvJTE3ETyzIR6lHkl+CkP4KT0pAKwIJA5+ZhcQssyyKjx7Trh3ogz+ohROaviN2haH4Nz3ZgWjlLu7D4ACx61rLc732EoMqRfKqWa9s4DU2LHqwcTXtnSZZQMI5FRt1yDZsOx+WrrhCxLKlZIyjsbAPqzTJ5KZ/DT97cIZM0XL1EHEwSXFq0UjUwWK5ayvJGj+FQGSOGOv4Qtq161HAZdNqllPeFL0BTTLvXyKYK/iWdAzjddC8519NAI8+yLOo0oElocmIbD3vwxzmyDdxGxEk5trrup3uvgpDi5wSo+UuTB3D8okmSAgh4qdG1SNCzrEwmY5nj9/GvNTO+1v18iRIlSpQoUaJEiRIlSpQoUaJEiRIlShQj/ReZYG8DsF6rTAAAAABJRU5ErkJggg==;" vertex="1" parent="1">
          <mxGeometry x="810" y="524" width="100" height="56" as="geometry" />
        </mxCell>
        <mxCell id="F8rlqcTrgMaWFQeFcG7n-72" style="edgeStyle=orthogonalEdgeStyle;rounded=0;orthogonalLoop=1;jettySize=auto;html=1;entryX=0.5;entryY=0;entryDx=0;entryDy=0;" edge="1" parent="1" source="F8rlqcTrgMaWFQeFcG7n-63" target="F8rlqcTrgMaWFQeFcG7n-68">
          <mxGeometry relative="1" as="geometry" />
        </mxCell>
        <mxCell id="F8rlqcTrgMaWFQeFcG7n-63" value="" style="shape=image;verticalLabelPosition=bottom;labelBackgroundColor=default;verticalAlign=top;aspect=fixed;imageAspect=0;image=data:image/jpeg,/9j/4AAQSkZJRgABAQAAAQABAAD/2wCEAAkGBxAQEhIQEBAQFRAQEA8PEBAQEg8PDw8PFRYWFhURFRUYHSggGBolGxUVITEhJSkrLi4uFx8zODMwNygtLisBCgoKCw0FDgUKEysZExkrKysrKysrKysrKysrKysrKysrKysrKysrKysrKysrKysrKysrKysrKysrKysrKysrK//AABEIAL8BBwMBIgACEQEDEQH/xAAcAAEAAAcBAAAAAAAAAAAAAAAAAQIDBAUGBwj/xABCEAABAwIDBQUFBgQDCQEAAAABAAIDBBEFEiEGMUFRYQcTcYGRFCIyobEVQlJicpIjssHwQ4KiJDRTY3N0wtHxF//EABQBAQAAAAAAAAAAAAAAAAAAAAD/xAAUEQEAAAAAAAAAAAAAAAAAAAAA/9oADAMBAAIRAxEAPwDuKIiAiIgIiICIiAiIgIiICIiAiIgIiICIiCBQBGqKCF1FEQEREBERAREQFS9mj/Az9rVVRBS9mj/4bP2tRVUQEREBERAREQEREBERAUCVBxVF70FQvUM6tXTKyr8ap6cXmmYy+oDj7zvBo1PkEGZDlMCsbhmIR1EbZonZo3glrrFtwCRuOu8LIMKCdERAUCoogg1RUo009FMgIik3nwQThEUEEboihZBFFAKKAiIgIiICIiAiIgIilLuSCZQJUjieapOkQVi5S51aumUpmQXL3q0mkUrplg9oq/IwNBs6Qlt+IYBdx+g80GN2i2hcLshdlaLh0osXE8Wx33fq9Oa5JtJjNs5BN3aEkkved13OOpPisvtVjAbcA2AFh0WiYdTSYhVRQRgnM8AchzcegFz5IPRvZq0tw2jDt5hzfucXD6rb4ysPhkLYo2RM+GNjI2/paAB9FlInoLpFI1ynQEREECE1UUQSl3QpHuUXblBu5BEqKgVFAREQQKiiICKW+qmQEREBERAUFFEEruSlcbITvVvLIgSSqzlnWH2m2kio2jNd8shywws+OR39Gji4rVZqyon1mfa+vdR6Mb06+J+W5BuE2KwtNnSxg8s7bpFiDH/A9jv0uDvotFfEwc/Uq1kDRq0kEbiCdCg6QZlpG3mJiNwufhi08XON/wCUKjSbTyRe7KO8bzvZ48+Pn6qNZtlhodeZpz5QRmg7w21sL6jmg5cMJrsTlIhif3d7ZjowdXOOg8F1vYTY6LDWFxIfUOFnyfdY3i1t+HM8VgMQ7QnSe5QxWA0Ms1rN/Swf19FrFZJJOb1NRLKTrYu9weDdw8gEHdYMQiJsJYyeQewn0uspHKvNxo4DplPqshhldVUpBpKmRoH+E45oj0yH3fl5oPRccqrtcub7F7fsqnCnqWiKq3N3iKY8m3+F35Tv4FdCicgugilaVMgKCiiApWcuSmUrtNfVBMiAogIiICIpHngEEW8SplABRQEREBERAULqD+XNQebIKEj7X9VhdoMWZSwyTyfDG29uLnbmtHUmwWVqCuY9pFZ31RTUQPuC9VMOYBLYwf8AX6hBicNEkz3V1SbzzfA37sMXBrRw0/u5Kv5ZrKiZfloFYzzoK01SsbPVWUk0yxlXNr5IKtTV9VqOM1JdKbcA1o8f7Ky9RPxWAiOZ5eeBJ8+CDK0z+7aG8d5PM8VF1Use+ZSd6gybalXdNOsLG9XrC42a0EveQ1oG8k6WHXWyDYcIwqTEZ2QQ6FtnST62hYD8WnG+4cT5lehaGPK1rS5zi1rW532L3WFsziOJWrbC7ONoKdsdgZn2fO/nJb4Qfwt3DzPFbfC1BWc8NaXHc0Fx8BqvPlP2515qw90cPsZlsYAw52wl2/Pe5eG8dxPBehgFzSHsTw1tWKnPN3Qk70Uvud0De4Zmtcsvw+aDpjTcAjcRdSzStY1z3ua1jQXOc4hrWtGpJJ3CynXBO3rbV8kpwuncRFHldVlv+JKdWxfpaLE9T0QZba3t1iic6LDoBMW3HtExc2Enmxgs5w6kt3ea1D/9zxe98lHb8PcyW/nv81c9kfZa3EG+212YUuYthiaS11QRo5xcNQwHTTUkHdbXsMnZzgxZ3Zw+ny2tcNLX/vBzX80GibIduUMz2xYhCIC6w9oiLnQZj+Nh95g63dv1tvXYYpmuAc0gtcA5rgQWuB1BBG8LzT2qdmn2Y9k1MXuo5nFozavgl3iNx4ggGx6EHhfb+wbamQE4XUOLm5XSUjnalttXwX5W94eDuiDtV1ofaD2o0mFHuQ0z1dgTAxwa2IHUGV9jlJGtgCd24EFbVtFXilpaiptcwQySAc3NaS0etl5ewjAZsSrI43vJmq5iZJXam5u6STyAcbeSDZajt2xVziWQ0bW8G93M4gdSX6n0WU2f7davO1lVRRSB7mtBpi+KTU20a8uDjfhdq6PhnZZg0DAw0bJTazpJi6SRx577DyAVu/snwsTw1EEb4XQzRzd2x7nQyZHBwaWuvbUDcQg3sFRULKKAiIgIiIJTvHmpZVM4f+1I83QWVQVx3Fp8+I1sh+4Y4W9A1gBHquw1K4fWPtVV3/dzel9EFzLNosfNKk82g8ArCSZBNNKsXVz6qtNIsTUy7ygo1tRpbn9FYF9hoozOVo96Co6cBUzVch6q3coIL6Cpd09F0Tsnw72isbI8XbTMMvTOTlZ9Sf8AKubU67H2HkXq/wAWWn/beT+qDsNMxZCIKypir+NBM/cfArzPQbaYyZIw7EJy0yRhwtFYtLhcfDyXpeX4XeB+i86UmGgOYbbnNPzCD0RWTiON8h3Rse8+DQSfovKM9BJUyvkdcy1ErnknW8kjr/Ur1BtP/udT1p5R6tK41g1ABPASNBPBfwztQduwjD2U0EVPGLMhiZE0dGgC6u0RBhdssKbV0VRA4XzROczpIz32H9zQuEYFCaaeGoboYpWSeQPvDzFx5r0dL8JvusfovNVRtdQtuAZHHUWaw/8AlZB6C2qojUUdRC3V0kLw0cza4HyXE8CDqWeKoY27onh1jpcWIc3zBIXfaU+4z9DfoFz3b7ZCqs6owxkLnkl0lPLmbc7y6IggXv8AdPPQ8EG64NjkFW28Txmtd0btJGeI/qNFkl5JxTafFKeQxyNNPKw7u67uRvUZ7nzC33s47ZpQ9lNirg6NxDWVlg18ZO7vQNC3828cb7wHeUUAVFAREQEREBUpW8lVUjwgx1SehXD9qGmOvrW8HPjlb1DmAk+pXdagLj3axSd3VU9QB7s0ToHngHMN2+ZD/wDSg1WSbT5KxdLqj5d481YzS2QVqiWwWJnkuqs02bVWUr0FGZytip5HKRBI8KRTvUiCtCVv/ZfjraWrbnNopx3LydzSSCxx6ZtP8y540q+pZEHrqneshE9cZ7Pe0JoDaWtfYtAbFUOPukcGSngeTt3Pmeu08l7cjqORHNBfSH3XfpP0Xlmm26e98bG07G5nsbdz3PtcgcAF6jJ90/pP0XjHC4/4sJ/5sX8wQeysWpjLBNE34pIZGNPJxaQD6ryKNqa5kjS+Z+aKRriyzWDMx18pyjmLL2KvM3bLsg6irnTsb/s1a50zCB7rZjrJGet/eHQ9EHpKgq2TxRzRkGOWNkrHDUFjgHA+hVdcO7IO0aKmibh9e/JGwn2aodfI1p17qQ/dAN7O3W00sF2GTHaNrO8dVUwjtfOZoslud72QW22OKto6GqqXG3dQSFvWQjKxvm4tHmvIuB4a6pqaenAN554otPzuAJ8gSV1Pte27biOWjpHE0sb88sti0VEg+EN/INT1NuWtbsL2RMlQcRkb/Cp8zILjR85FnOHRrSR4u6IO8gWUVZ4xiDaaCaofq2GJ8pA0JDQTYdTuWAwPtDwyqaCKlkTzviqSIXg8ru913kSgy20WztJiERhq4WSNscpItJGfxMfvafBeV9sdmDh1ZPSFxc2NwMbzYF8TgHMJ62Nj1BXqTENqqCBhfJWU4AF7NkY97ujWtJLj4BeddtMV+0KyarylrHlrY2n4hEwBrb9Ta/mg7r2T4i+owqkfISXsY+Ak6k9y90YJPg0LblrXZxhLqTDqWF4s/IZXtO9r5XOkLT1Ga3ktlQEREBERAUCoogtZmrSO0vBzU0UoaLyQ2qI7b8zL5gPFpcPRb5I1WFTGg8tPqL2dzGqsqia62Db/AAI0FXJEBaGW80B4d246s/ym48MvNaq8oIiVU5CpHFS3QSOUiqkKk4IJXKIClCmCCXKq8Si2PMPmq0UaC4gebrtXYc6cxVBdI8wMfHHDG4ksY8AueWA7tCzQaLi8LNdASbgADUk8gOa9LbCYL7FSQwEfxLd5L/1X6uHloPJBtI1B8CF54ouyjFmOjJpm2a+Nx/jQnRpBPHovRUQVdAWOx/BKeugfTVLM0b/JzHDc9p+64c1kUQcBx/sirYHE01qiL7ti2OYDk5psCeoPkFgY9gMSJ0w+e/MsaPmTZenEQcT2Y7IJ5HB9e4RRCxMUbg6Z/wCUuGjB4XPguy0NHHBGyGFjWRRtDWMaLNa0cAq6IMNtfg762klpWSCN0oaM5aXCwcHFpAO42t5rieIdm+Jwm3s3eN/FC5rwfI2d8l6FRB5wg2GxJxsKGYX4uDWD1cQt+2K7LzFI2oryxzmEOjp2+8wOG50jvvW5DTxXUUQEREBERAREQEREErgraZiu1Te1BofaJsqMQpixthUREyU7joM9tYyfwuGnQ2PBec6mBzHOY9pa9ji17XCzmuGhaRwIK9eTxrlvafsWypvUw2ZUge9fRk4G4O5OG4O8jwsHDHBS2VzUwOjcWPaWvboWuFiFRsgpkKm5XFlKYxzQWpCnijJ3f/FXbC3xVxGyyCaGOynDLKLStl2Q2WdXSNdKSymBBcRo+X8rOQ/N6dAz3ZHsoaiUVsrf4EDv4QI0lqB94c2s/mt+ErukDFZYRSMjjZHGxrY2NDWMaLNa0bgFlo2IKkYVRQAUUBERAREQEREBERAREQEREBERBSzHmmY81PlUDZBLmPNMx5qDnKm554IKuY81TfLbe4fJUXNJ3kqXukCWpHM+i13aGUZCToLbzYLPTtDQXHcFpGNyvncRrkG4c0HLdp2CRxtHmtexPDwWqSUD/wAP1XYZcFDuCtH7NtPBByYYe4qb7MeupO2XHJSHZbog5cKAjn5Ko2ik4Arpo2XHJXEWzYHBBzygorEFzL9Tr8iumbIROdYg+WminiwFg4LJYdRmBwcwbt45oN5oXPDRr8gr1s7+noqOGytkYHDfxHIq87tBKKh3JRFQf7so92ndoIifr8lMJOoUndp3aCpmPNMx5qmGKYX5oJsx5pmPNAVEEIIZjzTMeansmVBJmPNMx5qfKmVBJmPNMxU+VMqCTMUU+VEAhSkKoiCjkTIqyIKORMirKDggweL3f7g3cVivs/otlNLfgnsaDWfs/on2f0Wy+x9FH2NBrP2en2d0Wy+x9ENGg1n7O6J9ndFs3sSex9EGtig6KYUPRbF7H0UPZeiDG4W0xu6Hes+ArP2XoryPcgZUyqZEEuVMqmRBLlTKpkQS5UyqZEEuVRUUQEREBERAREQEREBERAREQEREBERAREQEREBERAREQEREBERAREQEREBERAREQEREBERB/9k=;" vertex="1" parent="1">
          <mxGeometry x="870" y="575" width="101.5" height="73.72" as="geometry" />
        </mxCell>
        <mxCell id="F8rlqcTrgMaWFQeFcG7n-64" value="Dell" style="rounded=1;whiteSpace=wrap;html=1;fillColor=#dae8fc;gradientColor=#7ea6e0;strokeColor=#6c8ebf;" vertex="1" parent="1">
          <mxGeometry x="610" y="545" width="120" height="20" as="geometry" />
        </mxCell>
        <mxCell id="F8rlqcTrgMaWFQeFcG7n-65" value="Lenovo" style="rounded=1;whiteSpace=wrap;html=1;fillColor=#d5e8d4;gradientColor=#97d077;strokeColor=#82b366;" vertex="1" parent="1">
          <mxGeometry x="610" y="575" width="120" height="20" as="geometry" />
        </mxCell>
        <mxCell id="F8rlqcTrgMaWFQeFcG7n-66" value="HP&amp;nbsp;" style="rounded=1;whiteSpace=wrap;html=1;fillColor=#dae8fc;gradientColor=#7ea6e0;strokeColor=#6c8ebf;" vertex="1" parent="1">
          <mxGeometry x="610" y="610" width="120" height="20" as="geometry" />
        </mxCell>
        <mxCell id="F8rlqcTrgMaWFQeFcG7n-67" value="Desktop" style="rounded=1;whiteSpace=wrap;html=1;fillColor=#ffcd28;gradientColor=#ffa500;strokeColor=#d79b00;" vertex="1" parent="1">
          <mxGeometry x="610" y="643.72" width="120" height="20" as="geometry" />
        </mxCell>
        <mxCell id="F8rlqcTrgMaWFQeFcG7n-68" value="" style="shape=image;verticalLabelPosition=bottom;labelBackgroundColor=default;verticalAlign=top;aspect=fixed;imageAspect=0;image=data:image/jpeg,/9j/4AAQSkZJRgABAQAAAQABAAD/2wCEAAkGBxAPEBAQERAQERAQEBcSERAQEhAQEA8QFhIXFxURExUYHSogGBolGxUVITEiJis3Li4uFx83ODMtNygtLisBCgoKDg0OGhAQGi8lHSUtLS0tLS02LS0wKy8tLS0tLSstKy0rLS0rLSsrLTctLSstNzctLS0rLSstLS0uLzUrMP/AABEIALcBEwMBIgACEQEDEQH/xAAcAAEAAQUBAQAAAAAAAAAAAAAABAIDBQYHAQj/xAA9EAACAQIEAwUFBgQFBQAAAAAAAQIDEQQSITEFQVEGEyJhkQcycYGhFEJSYnKxI5Ki0QgzgsHhRIOjstL/xAAYAQEBAQEBAAAAAAAAAAAAAAAAAQIDBP/EACIRAQEAAgMBAAEFAQAAAAAAAAABAhEDEjFBUSEycbHhE//aAAwDAQACEQMRAD8A7UAAAAAAAAAAAAAAAAAAAAAAAAAAAAAAAAAAAAAAAAAAAAAAAAAAAAAAAAAAAAAAAAAYTtpxR4Ph+KxEXlnClam97VZtQg/5pIDNg+YMJ2s4hRk5QxuKTb1zVZzTfVxm2n6GzcO9rPEqdlU7iulvnp5JP5waX0NdauneQct4f7ZaL/z8HUh50ZwqL0ll/c2bh/tH4VW/6nun0rwnTt/qtl+pNU02wEbBY+jXV6NalVXWnOM/2ZJIgAAAAAAAAAAAAAAAAAAAAAAAAAAAAAAAAAAAAAHPPbdjsmAp0udfERv+inFyf9WQ6GcV9u2OzYnDUE/8qg5vpmqzt+1NepZ6sctZ5cM8OhVam+pWqrLQKiTSxGVqSupLZrRr4Mz/AA/ttxChbu8ZXsvuzl3sfglUuauLjRt0zAe17Hwt3tPD1l+mVKT+cXb6GycP9seGlZV8LWpPm6UoVor1yv6HELnqqMnSHZ9J4D2hcKrbYuFN9KynR+slb6mxYXF0qyzUqlOpH8VOcZr1iz5MVYuUcS4PNFuEltKLcZL4Nak6G4+tQfMeG9omPwtlDG1pW+7Jqsv/ACXsdW9kHbzEcXWJhiYQz4fI41KayqcZ3VpLbMsr267GLNLp0YAEQAAAAAAAAAAAAAAAAAAAAAAAAAAA+bvadju/4pi5XuoVFSj5KlFQf9Sk/mfRuJrqnCdSWkacHOT8opt/sfJ+PxDq1J1Je9UlKcv1Sk5P6s1isRWAwdEAAAB4WqteMd38uYReuUymlq2kY+rjm/dVvPmRZSb3bZm5w0yFXHxWyv8AREStiZy52XRaFlIraM3K1ZFCPon/AA+cM7rh1XENa4mu7P8AJTWVfXMfOx9fdhuGfZOG4Oha0oUI5/1yWaT9WzK/GdAAQAAAAAAAAAAAAAAAAAAAAAAAAAAGs+0rHdxwrGS5zp9yv+7JQf0k/Q+aqj1Z2327cQyYXDUE9atZ1GusacLfvUj6HDnI3i18GClyI9XFRjzu+iNbRJuWquJjHd69FuY+ripS8l5FgzckSa2Mk9tF9SO2eAzbseo9KQQVrQ8lMpAXbNdi+Gfa+IYPD8qmIhm/Qnml/SmfYKVtFsj5z/w/cL73ic67V44ahJrynU8MfpnPo0HwAAQAAAAAAAAAAAAAAAAAAAAAAAAAMdxHjeHw7UalSKk+Wun6mtvmFk24v7dOIZ+IQpJ+HD4aKt0nUk5y/p7s5dVxcVtq/LY7P247GriFatiqVaEu9abjLxQVoKKSqRd17vQ5bxjshXw7eanUjFffinUpPzUlsviXs6ZceUnjXquIlLnZdEWSTPBTWqtJdYu5HlFrRpp+ZHJ4AAAAAAAAeo8PUB9Cf4eOGd3ga+Ja1xFfLF9YU1b/ANnI6ua77POF/ZOF4Kja0lQU5r88/HL6yNiC30AAQAAAAAAAAAAAAAAAAAAAAACzisVClFznJRiub/26kTiWOnGEu5hGpU5KUssf+TnHGauJqTzYpTTfu3StfpBXt6P1LJtvpZ+tZzjnbGc7ww96cdu8kvFL4ckjVczfile8npK+a8vO+723ZbjFvnFp8puzf/HwPZWvzjpttb/5Xq2b8ETF1Zw8VOTUm/ehN053v1TTk/oi1DtVWpyVOpabVk1ODc9+UoWcpf6WtFqy/iFe8nFz0tKMMyco8tFrbbVp/MwuIg0pNVL3TUadRPJUjzTtfwJL8KW+qM2bbxys8ZWtV4Zi7utQVOX3qkLTs72t3lK0m9t42XMx2K7BU6ylLC4mFSKbvGeWrGL6OcNY/NXMRUp5IqcoOCk0o1KTurKykpSTcacd9ItSenJlKqzShKM1KVrwdRqlWjey/htyXdwf482tjGvw32l/dEDifYzE0bt0JtL79H+LH0Wq9DCVuD1YrMrTit3Fp28pdHy1Oh4btViKUownKU9YrLUpyq57aNUpXjUkvztvnvzny4zgcXpicPFys0502sSr3Xhi4qNVvVe7FpdRup/zwvlcfqU5R3TXxKDrNTsZhMTm+x4nWOkqd1WUH0lB2nHnv0Nc4n2ExVO7VJVEvvUJeL+R2fomNxi8OU/xpIMhiOGSg3F3jL8FSLhJfJkWph5x3i7dd16orktGW7N8PWJxWGoLV1a8Itflclm+lzFum+jN19kfD3V4jCVtKMHO/Rvwr6ORVnr6ihFRSS2SSXwRUYanj6ked/jr9STT4ovvRa81qRGQB5GV0mufyPQAAAAAAAAAAAAAAAAAAAtVsRGG+r6IgVsQ5b7dFsXcThJXco2d9bPR/LqQ5aO0k4vo9PTqHq4ph89VHkoppppNPdPVP5AN21eiDuxON7PYerd5XCT1vB2V+uXb0MDjuzlaN8k41YrXJqvh4Honr1NtnVb20XXm/h0LdrE7MXjxrmOPUovLOnKnblZ+Lzal73ysuhj8T/Elb+HOK271rPZfib15aRg/VnWa9KM04yjGSe6kk0zXuJdkcNVu4ZqUvyO8f5X/ALWL3n1zvDflc4nTjKo3erB9NI5VFfBOlS16sjypOc3UqQp1uc+6zZ6q5WjG03GyTcqia2euxs3EuyeMpRapuNenzgra25unPT01NelSmpd26M6dTn793BW8MlUd1BW5SS67K1/S+OdlnsRKN2pvvZpLTJPWFWTsu5co6NJbxUNuavcsqLUZVZ01CKShGrQcW4uztCKUnCnDXfwu3PdGSxUdYxUoYnmnmanBN37uim88eu725c4uIhCMlDPLDzgvFCKc6dJ6a3upOejvfN0vpo0bR6dRtOUakZKM7R7y2Wi+SoScmpSstZKei5a3MpQ7UYrDRgqk5Lw+GFRfaqSje6lKcnncnfaM7Ly2IuJoVZyhFU1PJG0Jxnkqxg7tzqNNOF03pKO3XdxY1INqnh6rhHMowhJTlBzatObypyqO9rZo8lolZKaals8bjT7R4bEqMMRh4yU7ZbOE7xeneOjVtKCvtaUtGtXuW12W4ZipL7PWcJSbtThJxnK29qNZZvRW1NUr0c0nmoyrXlaUqU1/Gkn4p1JQbpwj5JrbV/eKFN5nbFXi/BHNTj3bVrZIRbyqCWl1b4amdfhu57/dNs1xb2e1YXdOcKn5Zp0p/wBm/jY2L2P8BnQWJrVISjKclTip72jvbyu2Sew/BsbUSVWc0mrKg5udOEOU5ZruL+D1/brGBwUKMIRSV4RUc1tXZWuWb+uXLMZ56g0MBOWr8K89/QyNDCQhsrvq9WXwVxAAAAAAAAAAAAAAAAAAAAAA8lFNWaTXR6o9AESpgIv3W4+S1j6f2IOIwU1q1mS/Dqvjl3v6mZAdMeXKNccX6b+Xx6FLNhqUYy96KfnzXwfIh1uGJ+67eT1+u/rcmnfHnn1iGW5ImYjCShutOvL1/uRZRsZsdplL4sSRZxGGhVTjOEZxe6kk11JShcuKCRNNNV4h2Mw9XWN4y3WZd7C/5k/E15Xt5cjXOI9mcZRl3rX2mEHdQWWtKUrtrSUU4rzXi2t1XS5RKGjW6zeLGuJU6EbydWM6SjrK7nllVtdQlGXjk78s3npuWprESlOSyV3KHjtG9RU3bRaKpGOqVlprY7PjsBRrpKrThUts5LxRfWMt0/gatxXsNRlDLQqOilLM6cl3lOcuWZ3zeW9l01Ze0+uN4bPHN6FCCknlr0pSeWLg21nvtdLN5ZbNnSexvYqc5qrXjTlVTvFqNo0l+KTt4pvfXb95/YrsVKLzVZKpNPSo1mjSW2Wk5K9zpmGw8aUVGCsl9fNlcrl0/n+lvA4KFGOWK+L5yfVkkAOIAAAAAAAAAAAAAAAAAAAAAAAAAAAAAAAARq2Bpy5ZX1jp9NiSAstnjD1uHTj7tpLy0fo/7kOUWnZ3T6NNP0ZshRUpRkrSSa81cadseez1rbKGjM1uFp+7Jryl4l67mPrYKcd4v4xvNfTX6Ger0Y82NQZuxe4dw6Vd5ndUlz5z8l5eZfwXCpVZZqicaa+7zn8eiNhjFJJJWS2RZHLl5vmKmlSjBKMUklokisArygAAAAAAAAAAAAAAAAAAAAAAAAAAAAAAAAAAAAAAAAAAAAAAAAAAAAAAAAAAAAAAAAAAAAAAAAAAAAAAAAAAAAAAAAAAAAAAAAAAAAAAAAAAAAAAAAAA/9k=;" vertex="1" parent="1">
          <mxGeometry x="790" y="680" width="135" height="89.83" as="geometry" />
        </mxCell>
        <mxCell id="F8rlqcTrgMaWFQeFcG7n-70" style="edgeStyle=orthogonalEdgeStyle;rounded=0;orthogonalLoop=1;jettySize=auto;html=1;entryX=0.5;entryY=1;entryDx=0;entryDy=0;" edge="1" parent="1" source="F8rlqcTrgMaWFQeFcG7n-69" target="F8rlqcTrgMaWFQeFcG7n-67">
          <mxGeometry relative="1" as="geometry" />
        </mxCell>
        <mxCell id="F8rlqcTrgMaWFQeFcG7n-71" style="edgeStyle=orthogonalEdgeStyle;rounded=0;orthogonalLoop=1;jettySize=auto;html=1;entryX=0;entryY=0.5;entryDx=0;entryDy=0;" edge="1" parent="1" source="F8rlqcTrgMaWFQeFcG7n-69" target="F8rlqcTrgMaWFQeFcG7n-68">
          <mxGeometry relative="1" as="geometry" />
        </mxCell>
        <mxCell id="F8rlqcTrgMaWFQeFcG7n-69" value="CPU/ RAM / HDD/ NIC/ PCIE" style="rounded=1;whiteSpace=wrap;html=1;fillColor=#d5e8d4;gradientColor=#97d077;strokeColor=#82b366;" vertex="1" parent="1">
          <mxGeometry x="610" y="694.92" width="120" height="60" as="geometry" />
        </mxCell>
        <mxCell id="F8rlqcTrgMaWFQeFcG7n-75" value="" style="edgeStyle=orthogonalEdgeStyle;rounded=0;orthogonalLoop=1;jettySize=auto;html=1;" edge="1" parent="1" source="F8rlqcTrgMaWFQeFcG7n-73" target="F8rlqcTrgMaWFQeFcG7n-74">
          <mxGeometry relative="1" as="geometry" />
        </mxCell>
        <mxCell id="F8rlqcTrgMaWFQeFcG7n-73" value="RAM&lt;div&gt;CPU&lt;br&gt;HDD&lt;br&gt;NIC&amp;nbsp;&lt;/div&gt;" style="rounded=1;whiteSpace=wrap;html=1;fillColor=#dae8fc;gradientColor=#7ea6e0;strokeColor=#6c8ebf;" vertex="1" parent="1">
          <mxGeometry x="-200" y="670" width="120" height="130" as="geometry" />
        </mxCell>
        <mxCell id="F8rlqcTrgMaWFQeFcG7n-74" value="Nokia SW&amp;nbsp;" style="whiteSpace=wrap;html=1;fillColor=#dae8fc;strokeColor=#6c8ebf;rounded=1;gradientColor=#7ea6e0;" vertex="1" parent="1">
          <mxGeometry y="663.72" width="120" height="60" as="geometry" />
        </mxCell>
        <mxCell id="F8rlqcTrgMaWFQeFcG7n-76" value="&amp;nbsp;SW&amp;nbsp;" style="rounded=1;whiteSpace=wrap;html=1;fillColor=#f8cecc;gradientColor=#ea6b66;strokeColor=#b85450;" vertex="1" parent="1">
          <mxGeometry x="720" y="430" width="120" height="20" as="geometry" />
        </mxCell>
        <mxCell id="F8rlqcTrgMaWFQeFcG7n-77" value="HW&amp;nbsp;" style="rounded=1;whiteSpace=wrap;html=1;fillColor=#f8cecc;gradientColor=#ea6b66;strokeColor=#b85450;" vertex="1" parent="1">
          <mxGeometry x="880" y="430" width="120" height="20" as="geometry" />
        </mxCell>
        <mxCell id="F8rlqcTrgMaWFQeFcG7n-78" value="Telco cloud&amp;nbsp;" style="whiteSpace=wrap;html=1;fillColor=#dae8fc;strokeColor=#6c8ebf;rounded=0;gradientColor=#7ea6e0;" vertex="1" parent="1">
          <mxGeometry x="680" y="250" width="120" height="40" as="geometry" />
        </mxCell>
        <mxCell id="F8rlqcTrgMaWFQeFcG7n-81" value="" style="fontColor=#0066CC;verticalAlign=top;verticalLabelPosition=bottom;labelPosition=center;align=center;html=1;outlineConnect=0;fillColor=#CCCCCC;strokeColor=#6881B3;gradientColor=none;gradientDirection=north;strokeWidth=2;shape=mxgraph.networks.radio_tower;" vertex="1" parent="1">
          <mxGeometry x="1450" y="265" width="55" height="100" as="geometry" />
        </mxCell>
        <mxCell id="F8rlqcTrgMaWFQeFcG7n-84" value="" style="edgeStyle=orthogonalEdgeStyle;rounded=0;orthogonalLoop=1;jettySize=auto;html=1;" edge="1" parent="1" source="F8rlqcTrgMaWFQeFcG7n-82" target="F8rlqcTrgMaWFQeFcG7n-83">
          <mxGeometry relative="1" as="geometry" />
        </mxCell>
        <mxCell id="F8rlqcTrgMaWFQeFcG7n-82" value="CORE&amp;nbsp;" style="whiteSpace=wrap;html=1;fillColor=#dae8fc;strokeColor=#6c8ebf;rounded=1;gradientColor=#7ea6e0;" vertex="1" parent="1">
          <mxGeometry x="920" y="260" width="120" height="60" as="geometry" />
        </mxCell>
        <mxCell id="F8rlqcTrgMaWFQeFcG7n-86" value="" style="edgeStyle=orthogonalEdgeStyle;rounded=0;orthogonalLoop=1;jettySize=auto;html=1;" edge="1" parent="1" source="F8rlqcTrgMaWFQeFcG7n-83" target="F8rlqcTrgMaWFQeFcG7n-85">
          <mxGeometry relative="1" as="geometry" />
        </mxCell>
        <mxCell id="F8rlqcTrgMaWFQeFcG7n-83" value="RAN" style="whiteSpace=wrap;html=1;fillColor=#dae8fc;strokeColor=#6c8ebf;rounded=1;gradientColor=#7ea6e0;" vertex="1" parent="1">
          <mxGeometry x="1120" y="265" width="120" height="60" as="geometry" />
        </mxCell>
        <mxCell id="F8rlqcTrgMaWFQeFcG7n-87" style="edgeStyle=orthogonalEdgeStyle;rounded=0;orthogonalLoop=1;jettySize=auto;html=1;" edge="1" parent="1" source="F8rlqcTrgMaWFQeFcG7n-85" target="F8rlqcTrgMaWFQeFcG7n-81">
          <mxGeometry relative="1" as="geometry" />
        </mxCell>
        <mxCell id="F8rlqcTrgMaWFQeFcG7n-85" value="DU" style="whiteSpace=wrap;html=1;fillColor=#dae8fc;strokeColor=#6c8ebf;rounded=1;gradientColor=#7ea6e0;" vertex="1" parent="1">
          <mxGeometry x="1280" y="300" width="120" height="60" as="geometry" />
        </mxCell>
        <mxCell id="F8rlqcTrgMaWFQeFcG7n-88" value="HW&amp;nbsp;" style="rounded=1;whiteSpace=wrap;html=1;fillColor=#f8cecc;gradientColor=#ea6b66;strokeColor=#b85450;" vertex="1" parent="1">
          <mxGeometry x="920" y="220" width="120" height="20" as="geometry" />
        </mxCell>
        <mxCell id="F8rlqcTrgMaWFQeFcG7n-89" value="&amp;nbsp;SW&amp;nbsp;" style="rounded=1;whiteSpace=wrap;html=1;fillColor=#f8cecc;gradientColor=#ea6b66;strokeColor=#b85450;" vertex="1" parent="1">
          <mxGeometry x="920" y="180" width="120" height="20" as="geometry" />
        </mxCell>
        <mxCell id="F8rlqcTrgMaWFQeFcG7n-92" value="" style="edgeStyle=orthogonalEdgeStyle;rounded=0;orthogonalLoop=1;jettySize=auto;html=1;" edge="1" parent="1" source="F8rlqcTrgMaWFQeFcG7n-90" target="F8rlqcTrgMaWFQeFcG7n-91">
          <mxGeometry relative="1" as="geometry" />
        </mxCell>
        <mxCell id="F8rlqcTrgMaWFQeFcG7n-102" style="edgeStyle=orthogonalEdgeStyle;rounded=0;orthogonalLoop=1;jettySize=auto;html=1;" edge="1" parent="1" source="F8rlqcTrgMaWFQeFcG7n-90">
          <mxGeometry relative="1" as="geometry">
            <mxPoint x="1168.5" y="640" as="targetPoint" />
          </mxGeometry>
        </mxCell>
        <mxCell id="F8rlqcTrgMaWFQeFcG7n-90" value="" style="shape=image;verticalLabelPosition=bottom;labelBackgroundColor=default;verticalAlign=top;aspect=fixed;imageAspect=0;image=data:image/webp,UklGRroMAABXRUJQVlA4IK4MAACwOACdASqxALEAPj0ejUSiIaGTehRIIAPEsrdso0NBGqkNf2/I38jvUD2/+B+/XzD5tXmD7X+4/3Hsu/Mn+Z6vnp38wH8g/v365+9V6Qf+D6gH9j/sHW0ehX5cn7b/Et+4f7YUbXnx+KqCnc3ng/pO9H4pfLfsBO87QLu555X1vmr9iujz/c+C192/4fsDfoX/e+rxou+u/YU6YQ5QeReu4OdHvUX6UFM5EyzR0tNP47P1SHBQ7bkjTDzm1njSXAQHxkAezMih8j46q5jj1jtNqrM72yXjYd0wOI7Jsekktda51MOzm9lh/CBaBH5fReHbQIRGXVoJXKKiAg4jbzuQ7LNtdqiKGlUadAo2WsFX9qgfivm7LsLdE2T6tZPK9kWzRsn7m1COenDlVQbN2YTcUiQ3F/FChrfmglrygEowhJzB91v8V5e8ekKH+z6Kau4J8wx9jJ+3JWBqs5BJUJaarn+ay/VdFkF3o6+luX4T4x9yK415EGtvQV5IshcswdRwzoMyLQwytxWGR84WnLdcbe60fGuU/F7xM+utJyZUPungSpBM5HAXmMLVMKz0qKVOYRsWnYfVwLiHf6OiBSMhmd30Nm9qXaRY4On9uSAA/qH29ZDZk/P/7SCHJLrMD1bf/9qxnmmhoP7E/Kn2YRBBkd0L9X0QNdjvJxWYlURrm+hLycVwmMMAal3Nfwf1tCb0oNd4hBTwpytXwKlErCaZ85wFzBmgKP/P9kPfw+1/jmcOOgo3rBwwEC59+G0tCNpfXWbiHDc9drLFy1hgNkJzsMAhXfEOcQqKI5g4Ph0t+RwJJ3w4Flot5p2fbiQ90BfVm+BlBU4RmphkwkL+H0F/cN/WKnAWiRPosE8pxjvZ48H7G49qBtuwSjQGMGWss0ZbCJPuTYaKFKiWYEt3J2wddhYfrv0QBpkFp47pjUBTW9GU5C4PtZoIdyeeYsojtCFCZBg09giF69rvY104tqu3Zb9MAm8y90Zs3yxgS7F0/9J/9lyNN/3tqOyd92m+IbD7hwLNkUhZv0YsPf8Esf7w4NkKjIuqd8qygpo7tVNBz72lNxIFn0V7OgkkXKkBvtDC5y85/JsDxIjH23JjUammyjS7xjckRWD+CvA4dKL5DwCMujE3w/CyEPCNxWriCz+t08gm2pulp2AfdTABZP2plRfFbCe6hOzRL4QGtf3oS82rF0PD1OoMC48YnIE9gpJYTm4Pz6ql5fnTZMMDV1VKwatB9qM8nxvlnvm4Dp3dPz1ceU92+xtOv6C5SJ0/1W+/YhWdWXO78cynHqEhaz/bELIwuuLoOj1x0vjKHdYn+NvqxnCjeWS7Nhf7dNvF0IMeojt3vO7t+yu/WG0UAYvIFNQC+/9FBF7GZIhhoCLJKVasYA96T8CQ0HxPuzsd239+9b2W2/jFB+WA0B7VQcRXj4TG47iNNctj/VMoUEZL+iUdwDnoL6GYLv8Kd5iiLURKqMUCttgoxBtVmnBKawTvRBcu0KwK9D4hlkXLwU3absWnEatnODk/QoM/E8fV5hHG9h9uLBXU+moSN7DzM1vU6WLYF++TJcaOx11ErIcdLbEBFxMv9g+bt7qRA8bhEEX/ecPw3uWYKJ111wGr/KwSFALUWo0zRfZj5oPyEMuavgVerELq57fR9Y/Ye/Sf1ZXgMG1N2H+IE3nyJZLc94uYks3ZoMnGl5gbH5BC4TdI8nGlzU87y561vAoKyAzUv19KM4JRlnHyTZkd68V8gK4seiS3geX+z6h60XJ4AuPRywX1/nWBvjw5WApp2QnLiS43MOTR4ftbqPXtpO6WwTwKmBncevLzK0lhSTj6QAS23+pzWJ7sf66sIPt+EVcjn6tHOYc9ZdYNwrAx2OdCMIou2qZqk4j5VtfTK8vAPXbRYthn8zL6bM4dbiAy44JMYuT6a+z9gNNBJSLzMo2138cyGxeFXx9UwYhin65ZU5y4ub6qf3EyOl0OvOvzR6HH6d5JgHinlqJhpyaM1hN5hYlvqeBVEsuFR6ZTMDnKybH4l9dQFTcXgws+C5Nz/yFJUXbItFarZRCpHmXcHnnM1U4M0qvZQ9u4jVahnyDMh8kLL0mdNoFCE2MPpusuV2Lj0bueqM7CDMUAgKJoyL+X+kkDLlBv5n/kV4VD6NTFTaWoTclRz78/Ys0DANX1iBWAlwb/CJHZLZTzD58eknZkYHlrCpLpca0OprsdZfOqXo0MjHfd79G3bgO5pzwxePZWg5RE2y/XCRNDUX1gpmKOlH2un2Njnx6DPMSSstw0d79gFfPOA22gH5itfpdkgsxXufSunoJqHfbjbJgpCFhfbgTH7E2cusdIGvUzbleANtn+R5sDQEsVeBQIv6ToFLeYYRueexjc4zw4RoJw4sNNWt8r7JHJNmFZNG+5hUbQzFbfvaVqZWqhp0X7udCz/LGtksIWPpu4FRHabOcWb/xJYCodpKDslhBTGy6eUr91fPIkcOTFVHZeOTRzA5xK06lxqG5RNs4r7RH+Rf9FhutDz85ti+juKdpoPNhis68Pf/fXXwn84AWqaCIeCQuo8/+sV4GwEpc2zS+uKrgVwkkH4j9/mCFe4foSM45zq8pM0hpEkO4MrOx3XuN82/3b8zk7L14Sr5Tp4bFGrrMRgo8g0Xw1TvuoSwIMw6f8sbwmHJKAfc/3NivtcX7jfqkIn5IjJQ2X4oicNZqGGZ9IQeo+Nzi76QWFcQv9fZBA3P+nisOeEYgT7uZn8ad46sE5VPWszUqkFPjypsfVyAey9tZ6XF1xugmW0R6WwdG8b7xNaqGmxUPPKhSDnelr+NFU0zoyjwwclrIbsL9e/mSiI+Sb21KBXR5R24qddRL+TNq3V5GtmQ46EsQzi5yEuhJLYSqcA9kTZs/oq0ewmG74NuJUbO8eOj/UafmA6ks2BTKDpHYUm9PJuLFZPcNhNqQ+PnkxP4XHszNCd8hdOcL2C6rSlsSP0IDAmpjb0uR8X8t17dt5LdiLtqom79a8gMNFb/W4t3i5QWyuTOpeZe2Ywm6QjEdluviRQfEiBXt41PG4l4RTK1L+kzGvNX9zLZY9ARev+D5hohfDtqjdx1AgikK96DE2Pcmwr7/NvuvtywadQiJbHnAjBGYyAoC94HqEnH1NuEZ7JIR9BvoTQbgpyg7eKfooIidL7FGNu7SyQb4MZSmVFk8qNYR/5a3dE/B+U9e7PJtv7T83k3x3chg4477PvMv44mhydgSOcn4wOP3A6LDuc+GxJwUP7fPZB+E6nfwfJU0G7AcUz6z8uF/dmbukLBYAV8MnCup8IJu13zeL26bROIe6d8GHhR/8LHiY/NukUUqkf5bjFEqFjBBVCgVftFt9AU7Vl5QRbrBMU2m9Jy/0PkNHO8/a+GUirsKQdAy+GdVJbJxtX0feG5B1t/FnBkuvv8ZVlw3wPzlZnRLZI616H+Yla6VY/93iyfBwrsvvymMd3edOQdadeUxEydFHEt1EG86gO5trO+JXlaYzWjUUUI5tsbkpZ6jUq1LR5jNtio1GlL5LfTTRWnM7rra6Oj++a1n3jqmha36V/oHXn/3BdmEM+B5yDZhela0DYnGk8Cmw9h9GT3MgX1N6+ojPqPn1DWG+X1cPE+qtPH1y3QXfR3QagP0E/fSeh/9gbXGWCH/VI38DD2dOS4L5jzT/wcL+Su51m4pQ5Ov0u8eeEAOp7t53hgYdbgARvEYn03Hh3ISW+FqKpSnk1FypAMGCj5IqM/7Yc5pEybnhTCdf9aVm9kmU1udypWil88xpOrTF97/cFq3kjwcuGEf2ZF7eEoJYAyAqrwlb61dxDeQtSr7Wsg4g38J10CM7m9mnxf8OGaN+sQg/xisS2Z6+HZCxkH7bLWcd8sAIINrVW0knaepWH3IAvEJZ4P9Sms3VS5OIBuL9XhnH3cGrnVVsqXm1HV9oJD215I25WaTBQUDQt7arXv/O4fMW02k5ljiKvkl19OWEntHN0Iabl8yrsWW1Li2ZCt0ZB/R5eBc7iqIICxaP/7rb8+Jf8TSrDLhDwK01kJBHFdS+a5LFfmOlsFIYLDyxoxOV5xUBiC+/PQYGdcET3IaB5Lm/eIDoc/bGNJlkrGw34Kh/FyOxotoee6QGm01uW23ANeQcTP0V9YoCd3y7YJfmIWCyKPTbB66tYJ4/NvXtsHBAK1oT8yKdKdyNYaw0rwG1YpzTmjEFIAznMOQWlL3QB/0wHtZiHR+dNNH1yXaDFVqmNLjqTuovF4sSXSavE03kfFECXOq5ikaO/1ZFeH/xz6QvQG7odKQ+n2Pjq/yjukZIUWp9q+cYoAAAAVCBkLcTKZMr4UYA7OAAAAA=;" vertex="1" parent="1">
          <mxGeometry x="1070" y="406.5" width="197" height="197" as="geometry" />
        </mxCell>
        <mxCell id="F8rlqcTrgMaWFQeFcG7n-91" value="Dell&lt;br&gt;HP&lt;br&gt;IBM&lt;br&gt;CISCO" style="whiteSpace=wrap;html=1;verticalAlign=top;labelBackgroundColor=default;" vertex="1" parent="1">
          <mxGeometry x="1350" y="410" width="120" height="80" as="geometry" />
        </mxCell>
        <mxCell id="F8rlqcTrgMaWFQeFcG7n-95" value="" style="edgeStyle=orthogonalEdgeStyle;rounded=0;orthogonalLoop=1;jettySize=auto;html=1;" edge="1" parent="1" source="F8rlqcTrgMaWFQeFcG7n-93" target="F8rlqcTrgMaWFQeFcG7n-94">
          <mxGeometry relative="1" as="geometry" />
        </mxCell>
        <mxCell id="F8rlqcTrgMaWFQeFcG7n-93" value="&amp;nbsp;SW&amp;nbsp;" style="rounded=1;whiteSpace=wrap;html=1;fillColor=#f8cecc;gradientColor=#ea6b66;strokeColor=#b85450;" vertex="1" parent="1">
          <mxGeometry x="1070" y="643.72" width="200" height="46.28" as="geometry" />
        </mxCell>
        <mxCell id="F8rlqcTrgMaWFQeFcG7n-94" value="MAVINER&lt;br&gt;FUJITSU&lt;br&gt;RAKUTEN&lt;br&gt;PARREL WIRELESS&lt;div&gt;&lt;br/&gt;&lt;/div&gt;" style="whiteSpace=wrap;html=1;fillColor=#f8cecc;strokeColor=#b85450;rounded=1;gradientColor=#ea6b66;" vertex="1" parent="1">
          <mxGeometry x="1350" y="547.44" width="120" height="101.28" as="geometry" />
        </mxCell>
        <mxCell id="F8rlqcTrgMaWFQeFcG7n-98" value="" style="edgeStyle=orthogonalEdgeStyle;rounded=0;orthogonalLoop=1;jettySize=auto;html=1;" edge="1" parent="1" source="F8rlqcTrgMaWFQeFcG7n-96" target="F8rlqcTrgMaWFQeFcG7n-97">
          <mxGeometry relative="1" as="geometry" />
        </mxCell>
        <mxCell id="F8rlqcTrgMaWFQeFcG7n-96" value="RADIO" style="rounded=1;whiteSpace=wrap;html=1;fillColor=#dae8fc;gradientColor=#7ea6e0;strokeColor=#6c8ebf;" vertex="1" parent="1">
          <mxGeometry x="1075" y="723.72" width="210" height="40" as="geometry" />
        </mxCell>
        <mxCell id="F8rlqcTrgMaWFQeFcG7n-97" value="COMBA&lt;br&gt;NEC&lt;br&gt;FUJITSU&lt;br&gt;SAMSUNG&lt;br&gt;MAVINERR" style="whiteSpace=wrap;html=1;fillColor=#dae8fc;strokeColor=#6c8ebf;rounded=1;gradientColor=#7ea6e0;" vertex="1" parent="1">
          <mxGeometry x="1350" y="680" width="120" height="150" as="geometry" />
        </mxCell>
        <mxCell id="F8rlqcTrgMaWFQeFcG7n-101" value="" style="edgeStyle=orthogonalEdgeStyle;rounded=0;orthogonalLoop=1;jettySize=auto;html=1;" edge="1" parent="1" source="F8rlqcTrgMaWFQeFcG7n-99" target="F8rlqcTrgMaWFQeFcG7n-100">
          <mxGeometry relative="1" as="geometry" />
        </mxCell>
        <mxCell id="F8rlqcTrgMaWFQeFcG7n-99" value="MB&lt;br&gt;LB&lt;br&gt;HB" style="rounded=1;whiteSpace=wrap;html=1;" vertex="1" parent="1">
          <mxGeometry x="1120" y="170" width="120" height="60" as="geometry" />
        </mxCell>
        <mxCell id="F8rlqcTrgMaWFQeFcG7n-100" value="NEC&lt;br&gt;COMBA&lt;br&gt;SAMSUNG&amp;nbsp;" style="whiteSpace=wrap;html=1;rounded=1;" vertex="1" parent="1">
          <mxGeometry x="1320" y="170" width="120" height="60" as="geometry" />
        </mxCell>
        <mxCell id="F8rlqcTrgMaWFQeFcG7n-105" value="" style="edgeStyle=orthogonalEdgeStyle;rounded=0;orthogonalLoop=1;jettySize=auto;html=1;" edge="1" parent="1" source="F8rlqcTrgMaWFQeFcG7n-103" target="F8rlqcTrgMaWFQeFcG7n-104">
          <mxGeometry relative="1" as="geometry" />
        </mxCell>
        <mxCell id="F8rlqcTrgMaWFQeFcG7n-103" value="BSNL" style="rounded=1;whiteSpace=wrap;html=1;fillColor=#dae8fc;gradientColor=#7ea6e0;strokeColor=#6c8ebf;" vertex="1" parent="1">
          <mxGeometry x="180" y="714" width="120" height="60" as="geometry" />
        </mxCell>
        <mxCell id="F8rlqcTrgMaWFQeFcG7n-107" value="" style="edgeStyle=orthogonalEdgeStyle;rounded=0;orthogonalLoop=1;jettySize=auto;html=1;" edge="1" parent="1" source="F8rlqcTrgMaWFQeFcG7n-104" target="F8rlqcTrgMaWFQeFcG7n-106">
          <mxGeometry relative="1" as="geometry" />
        </mxCell>
        <mxCell id="F8rlqcTrgMaWFQeFcG7n-104" value="TCS&amp;nbsp;" style="whiteSpace=wrap;html=1;rounded=1;fillColor=#ffcd28;gradientColor=#ffa500;strokeColor=#d79b00;" vertex="1" parent="1">
          <mxGeometry x="370" y="709.83" width="120" height="60" as="geometry" />
        </mxCell>
        <mxCell id="F8rlqcTrgMaWFQeFcG7n-106" value="TEJAS" style="whiteSpace=wrap;html=1;rounded=1;fillColor=#f8cecc;gradientColor=#ea6b66;strokeColor=#b85450;" vertex="1" parent="1">
          <mxGeometry x="380" y="810" width="120" height="60" as="geometry" />
        </mxCell>
        <mxCell id="F8rlqcTrgMaWFQeFcG7n-110" style="edgeStyle=orthogonalEdgeStyle;rounded=0;orthogonalLoop=1;jettySize=auto;html=1;" edge="1" parent="1" source="F8rlqcTrgMaWFQeFcG7n-108">
          <mxGeometry relative="1" as="geometry">
            <mxPoint x="-110" y="970" as="targetPoint" />
          </mxGeometry>
        </mxCell>
        <mxCell id="F8rlqcTrgMaWFQeFcG7n-108" value="&lt;font style=&quot;font-size: 27px;&quot;&gt;HW&amp;nbsp;&lt;/font&gt;" style="whiteSpace=wrap;html=1;fillColor=#dae8fc;strokeColor=#6c8ebf;rounded=0;gradientColor=#7ea6e0;" vertex="1" parent="1">
          <mxGeometry x="-470" y="910" width="303" height="120" as="geometry" />
        </mxCell>
        <mxCell id="F8rlqcTrgMaWFQeFcG7n-109" value="&lt;span style=&quot;font-size: 27px;&quot;&gt;SW&lt;/span&gt;" style="whiteSpace=wrap;html=1;fillColor=#dae8fc;strokeColor=#6c8ebf;rounded=0;gradientColor=#7ea6e0;" vertex="1" parent="1">
          <mxGeometry x="-100" y="910" width="303" height="120" as="geometry" />
        </mxCell>
        <mxCell id="F8rlqcTrgMaWFQeFcG7n-123" style="edgeStyle=orthogonalEdgeStyle;rounded=0;orthogonalLoop=1;jettySize=auto;html=1;" edge="1" parent="1" source="F8rlqcTrgMaWFQeFcG7n-111" target="F8rlqcTrgMaWFQeFcG7n-121">
          <mxGeometry relative="1" as="geometry" />
        </mxCell>
        <mxCell id="F8rlqcTrgMaWFQeFcG7n-111" value="" style="shape=image;verticalLabelPosition=bottom;labelBackgroundColor=default;verticalAlign=top;aspect=fixed;imageAspect=0;image=data:image/jpeg,/9j/4AAQSkZJRgABAQAAAQABAAD/2wCEAAkGBxIRERUSEhMTExUWFhUVEhcYFxcYFhUWFhUXFhkYGRcZHSggGRolGxUYITEhJS0rLi4uGB8zODMtNygtLisBCgoKDg0OGhAQGzAlICUvLS0tLy8wLS0vLS0tLS0tLS0tLS0rLS0tLS0tLS0tLS0tLS0tLS0tLS0tLS0tLS0tLf/AABEIAOAA4QMBEQACEQEDEQH/xAAcAAEAAgMBAQEAAAAAAAAAAAAABQYCAwQHAQj/xABFEAACAQIDBAcFBAUKBwAAAAABAgADEQQSIQUGMUEHEyJRYXGBMkKRobEUI3LRYpLB0uEWJDNSgqKywvDxFURTg6PT4v/EABoBAQADAQEBAAAAAAAAAAAAAAABAgQDBQb/xAA4EQEAAgIBAQQGCAYCAwEAAAAAAQIDEQQhBRIxQRMUImFxgRUjMlGRobHwM0JSU9HhYsGSovFD/9oADAMBAAIRAxEAPwD3GAgICAgICAgICAgICAgICAgICAgICAgICAgICAgICAgICAgICAgICAgICAgICAgICAgICAgICAgICAgICAgICAgICAgICAgICAgICAgICAgICAgICAgICAgICAgICAgICAgICAgICAgICAgICAgICAgICAgICAgICAgICAgICAgICAgICAgICAgICAgICAgICAgICAgICAgICAgICAgICAgICAgICAgICAgICAgICAgICAgICAgICAgICAgICAgICAgICAgICAgICAgICAgICAgICBg9VRxIHmZztlpX7UxCYrM+DnqbRpLxccCedrDx9Zwnm4N6i2/h1X9Ff7nNR2/h3zZHD5TZstjY8bHulMvaGLFOr7j5LVwWt4NlPbFJiFuQSQBcczoIxdo4MlorE9fgtbjZKxuYSE3M5AQEBAQEBAQEBAQEBAQEBAQEBAQNOMxSUkapUYKiAs7HgAOJMCNqbeTKHFlUgEFzk0Ouoa1vWebl5+rd2ldtFcHTdp0rtff6kM+arTTKxCWZanWWB1+7zFVvbjr4d/O2TmX13Y8fdrX4msUeMq9i+kVWo2Lv1x96mpNNDe4sKjKWFu8enKJ4fJvfc26e+f8AB6bHEdI6ot+k3KoUU1JAALPUF2I5lVUAX7hKz2NE23a/7+Z61MeEIfaPSNVqqyMKGRtGHVlgR45iQfhO+LsnBSd7nfxVnk5JcdDfGrRTLRenTW98qUqai552CcZ1vwMF+tus++ZVjPkjwW7dXeF2CVcU6kMwNEdhb5SCGtbWx+Fp5uXDixZPqoncPQxWvkp7c+L0DB71U3JAemxHEX1Hn3TtHaN6xu9XKeJE/Zl3VNsm10UMfxfwlrdpTMexEfOVPVJj7UqXvF0i4nCtlfCmnf2WJBVvJluD5SscnkX8JiPl/l0jj4o8dyq+K6TMTV7LACmdHC3DZTxykEWNpS3p58ck/k6RTFH8rt2RtWobfZsdWGoJpu2YgX1GWpf4jSZb8vkYPForx8ORfd3dvVqtUUqmUizG9rNp5afKbuFzsmW/cv8Acw8njVpXvVWmeuwkBAQEBAQEBAQEBAQMalQKCzEAAEknQADUknkIEThNsnEM32fq2VCB2y6s10V7hct8tnXXnrCInaG38xeOXCFKNNM9Rgl0qkMBYsQCyrqcuUAXJzWEdPMnfk8D2hiMQajqwuysyk2LG6m3tHjLR08I0rr73P1VduJYeoEbk6H/AA1z7R+JJkalO4Zpsod4+H8Y0bdFPZic7n5fSNI2lcDhERkYKLgm36jftsfSVlMNGKrsMMFBtmdgdAeyHqtbUcMxvMkYotyJ393+Gr0k1wxH7825d4HVlbq6Q7ABy5kJJAJN0OmolPUa2iY70+PxX9ctWYnUeCY2dvhdlUiomZlUEMKi3Y2BOYBrajnMebs21azaJidfJox86tpiJjS04uuzqadZFrIbEgq1r/3tR36Tyq311rMw9DuR9ytVtgLnJRcqk3UcbA62B5idvXNRpEceJSmxdkpSqKxtm1trrwPKZc/JteuvJ1rirTqs+6TfzpfJ/pPQ7Nn66PhLz+ZH1cr/AD6R5BAQEBAQEBAQEBAQEDj2xhGrYetSVgrVKdRFYi4UupUEjmBeB5b0cYbLtzFqDdaNGrSB78tWko+OQmTKseL1fG4gU6b1DwRGY/2QT+yQtLyLow2RRxlbEnEU1qKqoQDfQuzC+nA/dnWWlzrG3DsbciviailUZaDO9ql1sEV2U87k9m3Dj4axs1Mp3evo4oYfDVa9KtV+7UtlfKwNiNLgAjn3yNpmrzZBJQ3DWQl34fDklP7R+VpxvZeIR1fCF6NwdENZvO1Rh+c4VyRXNPv1+kO1q7xR+/OUW1RRbMrNoLANl4adxneYvqe7OuqtJpE+3G/npvpAXQqtgHQ6kk6MOP8AtJvE+jnvT5SruO/HdjUbes8z5n6z4x9KjsdhEZ7sL6DS5t+re0RltWNQnuxPiywOGpI4KoinXUKAeB5znkyXtHWUxWseDHFuyqSqhjfQE2vr3zVTXm4S+7O3gxKnKBWQgX9sFfgTb5TRXNen2buVsFLeNUtgekBrgO6N+NSh+VhNdefyK+MRLhPDxT4bhY8Lvcje0h81YN+U607Xr/PWYcbdn2/llJ0Nu4dvfy/iBHzOk2U7Q49/5tfFwtxM1fJ306qsLqQR4EH6TXW9beE7Z5iY8WcsggICAgICAgIHmnRdSDbR2tWsb9fkF+A+9rEgad4BkyrVat/8R1ez65HFlCD+2wU/ImQm3gqvRRWo0KFZ6lSnTLOq9p1W+VS/M99UyVa+Dq3c30wWEwVFKtX7wByUUEsL1GbXkOPMwmJ6IzezpHw2JwtWhSp171Fyhiq5eIPusTygmXmdOsByPwI+slVn1wHMCRpLqwWIZ6iLSzVWCt2E1NzwvyUcLk6ATlktSld3nUL1i1p1D5tpWw4Wjm/rK5HBmy02a1+V3PxmPiTXNM5Pw/fyauTWccRVwJsl6gRhTd7oWGUMeyXYKSF4XsfhNMZ8cTO7a6uE4rzEajybepdFCGnUBLKFupHMWGstfLjms6tHh96sUtFo3D04mxN9NT9Z8a+mRu06uWoviv7TJrXcSTJh63aHr9DKWr0Wh9xOIVASx0Fr8+JsJopEz4OEsaOLpk6OpPnr38DJmk+Ojc+DaKStY2BsQQePCVmJWizGps6lUYswIY27SsQ2gty8pE3vEaiU115umvg3JBp1WTS1iM4J111vKRfUe1G1vNlUfEUypp5XNu1qUa/hblGPJEdesfBFqxb3u8by4mjlDCowIvoOsAPcb2b4TXi52aI3W/4uF+HitPh+Dvqb4Bg1GrkDMuW1yh7QsLXvf0mr6Ty2pMTWJ98M/qFYtExKc3ScmhYknKxUX42yr+c39l3m+HrPmyc6sVy9E3PSYyAgICAgcdTZdJmLWYE6nK7pc99lYC/jApnSFsU1ESlTrVqaklnu1asHI0UAF+za976cRx5ZeTyowRHTe3XFgnL0h5rs3dLFsVNVerBVwRdGZT7vvG4PH/eZcva2KsezO/xdsfAtM+0smD3KohF61Xd7dsiqVW/gFXQesw5O18kz7M9Pg714FfNm+5lAsjKuUKblTUqOHHc2axt5Tn9K5dTEz+kOvqOP7mrH7hUaju4K0wyhVRUOVGHvDt6nzk07XyViI8firPBpLu2ZujRpdUR2mpCwbKLtoQcw1B4k2Mz5O0Ml+990+W3SOPjiIj7kqcNVsQCwF+QQDTyGusw2yTaesfm0Y4x18Ff2rVp4anUqVFLjMCwIU6tlQaHTum3jxfNeKUnX72jNNKVm1o21bCxKV6XWrcZma+gFspygADSwAAFu7znTmVtjydyfJz49ovTvQmKVQjgT85kadPqGxOsqlV98Np9TVp3ydpSAWbKND5Hvm7icf0tZ9zPnzejmDZmMqsVutPKeYJJtlNraATlmxY6xOt7dMd7z8Eu9MEEWvec/JPm1UcKFYG2trXtIm/XS3lMuZ9lpfMLg3voT3y9ssxCK1iZbsTQfNdKjJpw0I+BkxeNdYV1uXQtSuAuRkbTtZxxPhl4Tn7ExuYdNTvTrrYqqoX7sVLg5srWy8P63Hj8pzr3Ldd6Xms70yqbRCZcyOMwvoM1vA2kRji0dJRrUs6mLpZhmIDWDDMLGxNgdR3yPRzMdPA8F03Ra9Jvx/wCVZ9F2P/Bn4vF7Q/iR8E7PXYSAgICAgIFK302iyvUCoHNGiKijW7Fs5K6fgnh9ox389KWnUPR4ns47Xjq83q72446phR+pVb6Wlvovj61a/wCivruWfCv6u/ZG9eJIf7VhqinTqylJ1B7w2Ynzvf8Ajmz9n4416K8e/cuuLlX69+qL2rvFtE1G6lkp0r9jP1CtbxzkzRh4XGikek6z83LJyM0z7Ph8kb/x7aF+1jaQ8BXwQ+hvNNeLw48KT+FnKc3Inz/Rddy3qtQepWr9cSxCkOGChR3ppe5J08J4vafo65Irjrrp9zfw4tau7ztIBbHnqLm5J19eHGeXa23pREacOJpK+YMMwJAIOoOg5cJpreaamHPuxMalhRohFyr2QOAFgB6Wk2yTadz4kVisagxOJWkuZ3Ci9rmw1PLzlqUnJOqwibRXrJTxNxmV0Kng3I+t4msxOpidpjUxuJULpMds2HJIPZrcPOnPc7I+zf5PL7RjU1+bj3OxlT7Sql2KlW0LEjQaWB4Tr2ljr6GZiOrlw8lvSRG+j0OpXKgsASRyHHjbnPArG+kvVs+UdoFzlKuOfaA5eIMm1Ijr0REyyG1afsk/o6o3lxtFsUzBW2pbTjKanK7ID4sAfnHcmY6G9S20nX8rHl+2U7s60tvrttZFqHtFxb2bEjj32PhOcRNK6hfvRMuynTUaX4AWJuSfWcp3MLb1L61AE300lJ3FUxbS17of0T/jP+FZ9T2N/Bn4/wDTxe0f4kfBPT13nkBAQEBAQPPN9LHE4hLkXw9O9vaAPXC48dPlPA7TnWekw9ThxvDaHi+IFEi7VK7ePVA3/Wqz2NX8qR+P+nnbr/VLk6nCd1Y/9ql/7JO83lEfjP8AhE+j85lsAwo9zEegpr+0yfrvd+Z9X7/yblfDgaU6/rUpD6oY+u935/5Pq/f+T03djKuDpBFKBlvYnM3bJNybC5N78B3T5DtC9rcm253r/p9BxKRGGuod9S97+Ewx4NbiJ1Pn+wTT5Q5GaQl9xVAao4Ru8G5AI5ezxl4t3Z6TKmu9Hh0cONwYZAqrSsGuFuyqNDqLIdde7nOtMsd7dplFqTr2YU7pA2Y4o0agCBaZdXCsTbrCmU6qCfZt6iev2Xmp37UidzPX8Hnc+l5iLa1pAbr4paeJps3A3XyLaC/heb+bjm+G0QycW3dyxt6jTNzqbT5h7bf1Y4hlPqJXruExrUvv2e45fERaZ10TXT6cNm4i8tNpiOisa2wqYAPYMl8osLjhIi8xHRMxEy1YjDgBV6skLcCxtl4f69Jal51M7LR7TuoUusCi9RLC1g5B9bHXhznGbTSJnxdOky6nosWFqjKBa47JBt33BM5ek1TekxG5XHc8/duP0/8AKPyn0vY0/Uz8Xi9o/wASPgn57DzyAgICAgIFQ3zwFXMK1ModFUqb3vc6gjlrPD7WwV/izPu09LgZtfV6eP7W2vRoVXp/YqDMpsxApgagHmPGTx+Pmz44vGWdSZs2HHeazjhwfyupcsFh/wDx/uzt9HZv7s/v5qeuYY//ADh9/lio/wCTw/xp/uyPozJ/cn9/NPruP+iGxN724jCULfiT92Vnsq39yf38z16n9uP38lz2NWxWIpLUKilcmysGzWU2vbKONp4nJx4MOSad6Z98f/XpYc1slO9rXuZY84xdQtNh5m/+Gcsfq1p1uf383WZvEdNKod5sT/0D8/ynrRwMUx9pjnlWjyd2wtvYirUXNQUKCCbta4B1Hs6cJyz8XFijvbWx5r5OmtPm829f2Y2KK9V7tbMbKCfabs8L308I4fZ/p92mdQjkcuMHsxG5VIb84vNc9UR/VyG3xzXnqz2Vx+7rr+LB9IZt+SZ2vtwYvZ1RlpMfZWoFNzSYEOGb9Ds8f4zLx+F6vyo9r4e//bTm5MZePPT/AEo2z8YaVRals2U3y3sDoRx9Z7GTHF6zX73mUvNZiVho78VQSWphgSSAWAyjkLhNfMzFbszFNdR4/e2ev33vTorb9OdEpAcNc1/PslZyr2VSPtSvPaH3Q2pv930D6VP/AJkW7JrM+zbUIr2hqOsM8Lv4Ldukb8ypAHwN4v2VE/ZlavPiZ6wnMLvLhiLviaS31ykOCt+TaEEjXhMt+z8mtVrO3aOXjnzdFPeXD3P87oW93tMD63EpPAyd3pWdp9ax78WylvRQBP8AOaFvdIq6kW5ggW5yluBk7v2Z38FvWce/GEpsvbdSs2WnRr1Ac2SoiO1FwATpWC5eRB42Okrk7MvFIv8AjGusfJavKxTbu7+a+bn9YOsDUyi6HtAg5rcgRqLX+E9HsrHfHFomOnwmGHn2raYmJWaew88gICAgICB5tvftHJtAKMTlN6YNHrCM4ZLdlOHEg38D3Tzu0cNbYb311hp4t59LWvkpu9G+GJw2JekqUWUBCpZWvZlB1s3eSPSYOFwKZsMX70w08jkzjyTXuwiD0jYnnSw3wb96afomn9cuXr3/AAhmnSLiDb7jDm/4v3pH0RX+uT17/hC07p7w1MSKj1adKmtPLqoPGxY6k8gB8Z5vP4vq81rW0zMtfFyxli0zWI06djYyrVw61HrVhUqDrAM9NQqu5IAW1zZbDXu8Z7VezePERE1/V5s8rJvpKG3g2hjKNBqgrVgRfLpTYFbXBY5eydOBA4+En6M4v9H6kcvNvx/Ro23halSqz52vZb6kagCeNg5U46d2Pe9i+Ct52y3awrIWZmJNiBck2vpzlOZyJyajyXw4Yp1UfePHddiXc6gHJT8FQ2+ZufWfQ8LD6LDWvz/F4vJyekyzKLqUlPKxmpwSG6lQ08SqH2aoajUHIhwQv963zmXmU72KZ846x8nfjW1fX39EMXX2SADceYN9f2zU4eA1IW5+EDGkBexuPrAzr0lHAk62+v5QPlBLm0DsfBpw18/GBpp4LWxPDugdJ2enDMQeV7Wv4wPe+g5MTTwDUa9J6arUL0GYEZ0q9s2BHANc3/SgejQEBAQEBAQECm707m08RW+2PVfNSGdFsMqhACRpqblb6zJyMOTJE1rbUT7nbFelJiZjw96lb27EopWDYyhVfNTphXpU8SwF2ZQrNSJXNcqBex14cJgrx+Vgx1ph+fh+TVOTBkvNsnyT/wDK3YtLLTqgUmyqbVMJVpkqRoe3TFwbcec9iu9Rt5862qu9GL2JiaxqLWpr2QOw5pg28CLes83k5OZXL9VXdenvbMOPBantz1Q+zNuYSjg6tJ3SiXLi1OqMS5zIFzdgC1uFj3cdZm5PHz5ORS8RvX3xrzd8GTHTDaszrfzQuy8Xs6iwbrs9gRZ8K+t2DXNn1OlvKen6Tkf0R/5f6YvR4v6vyb8XtLAVFKirTS5JzLhHDa8r93cJWcmeY/h/+0JjHij+f8pfdr71U3qMaVRiptYZCPdF+I75l4/DyUpEWiPylqy8mk23Eyx2HveirU60sCVtT0LAt3aDTUDWRyeBbJauta318jDzK1id79yL3Y2V9pq2PsIMz62uBYAX5XJHznrw8209Fl27u9S6tjSQIy6XW2Uutw1O/FmzDL5mWmIViVOwZ+8RhydG+DAzlkjdJ+EutJ1aF72jhKTI6lUCkMCQALce0D387ycM7xVn3QZel5j3vOTRtdWJuLjS1rjn5Syr4cIvJmv42ga8KLjWB1YYga+sCUwluyMqsH9u4BaxPBTysNdOZ8IQ5MRT6t2Q8VZl/VNoSk9nUOstSAUhludBmzHgb8Ra4FuHHvhEvaei7eOtWw2GoNha4RaWUYk5eqbq7qADfNfTL5gwlf4CAgICAgICBrxFFaiMji6sCrDvBFiNPCBFNutgiCrYdGBFiGuwI7iGJvAqPTPu5RqbMNVKSh8LkNMqLFaWZVddPcCm9uAy3gfnSoxEDEv4QPlNCxCqCzE2UAEkk8AANSYEls7BqlX+eUsWtKxv1Shal+X9KuW3GBwVqqZjlzAXOUEjNa+l7DjaBuogaWgWHdTEZOs0B/ozY8srE39CQYVleX2kvVMzseyrH3Q5uWOcch7zfxNpKHlyk8Rpz8pC6Vxe81NqBomnUJKBGN1UXtYm9zofKTGojUEzMzuUBUxlzfLa/jw/1aQMftR7oH2gbQNtJvygWXdyjTZg7uqhB2wxA0B4gc9Dbz84Vsh9r4sVK7uBYO7OB3BmJA+ELJzd3aFKkjVWP3irZVse0QOzry1te/dCsxuXu/Rlh+q2VhEPE089jxHWM1QAjlowhZaYCAgICAgICAgYtAhtu1T1boyB0ZWV1PBlYWIPoYH5f3m2G2GqMoDFL9hjxt3N4+PP5QINFLaKCT3AE/SBYd1VrYasuIFM5lv1eYWyki2bXnYn4wL4N8cW3tN84SwrbbrVB27Nz1AOvfrAo+8VHLWL2AD66AAZuYsPj6mEOLCYk02zC3PQ8CDoQe8GB14vajOnVjspe5UMTc+vAeEIiGylgVKglmDW1sR9CCIS0VNiqeDN62/KBoqbHa1l+cJc52RUHMQNbYVk7z6QNBrWOt4Q7MNUdvYSo3gFJgdVDd3aFVrphK7X/QIHxMCzbI6Ndq1bZsOKQ/TcfQXgesbu7sY6nbrq/DkvCBdsNQZQLsSYHVAQEBAQEBAQEDBqYPEXgc1XZdBvapUz5qDA5K+7eGYf0ar5ACBA7R6PqL3ym0Cu4no4qKeyQRA5zudWXisCK2tuJXqKQFvArT9GmPvoqW8SfygbKXRpi/eNvwqfqTAk8J0e1x7rHzhKbwnRzVPHSEJnC9Gg94wJXD9HdAe0LwJGjuNgxxpqfMQO6jutg14UKf6ogSFHZ1JPZpoPIAQOgIBygZQEBAQEBAQEBAQEBAQEBAQED4RA+ZR3CAyDuEBkHcIDIO4QMrQEBAQEBAQEBAQEBAQEBAQEBAQEBAQEBAQEBAQEBAQEBAQEBAQEBAQEBAQEBAQEBAQEBAQEBAQEBAQEBAQEBAQEBAQEBAQEBAQEBAQEBAQEBAQEBAQEBAQEBAQEBAQEBAQEBAQEBAQEBAQEBAQEBAQEBAQEBAQEBAQEBAQEBAQEBAQEBAQEBAQEBAQEBAQEBAQEBAQEBAQEBAQEBAQEBAQEBAQEBAQEBAQEBAQEBAQEBAQEBAQEBAQEBAQP/9k=;" vertex="1" parent="1">
          <mxGeometry x="520" y="860" width="494.2" height="492" as="geometry" />
        </mxCell>
        <mxCell id="F8rlqcTrgMaWFQeFcG7n-113" style="edgeStyle=orthogonalEdgeStyle;rounded=0;orthogonalLoop=1;jettySize=auto;html=1;" edge="1" parent="1" source="F8rlqcTrgMaWFQeFcG7n-112">
          <mxGeometry relative="1" as="geometry">
            <mxPoint x="1020" y="970" as="targetPoint" />
          </mxGeometry>
        </mxCell>
        <mxCell id="F8rlqcTrgMaWFQeFcG7n-112" value="" style="shape=image;verticalLabelPosition=bottom;labelBackgroundColor=default;verticalAlign=top;aspect=fixed;imageAspect=0;image=data:image/jpeg,/9j/4AAQSkZJRgABAQAAAQABAAD/2wCEAAkGBxMTEhUTExIWFhUXGCAbGBgYGBsdHhoaGBgYGBsdIB4YHiggHR8lHR0XITEhJSkrLi4uHR8zODMtNygtLisBCgoKDg0OGhAQGy0mICYvLSsvLy01LS0tLS8tLS0tLS8tLS0tLS0tLS0tLS0tLS0tLS0tLS0tLS0tLS0tLS0tLf/AABEIAMIBAwMBIgACEQEDEQH/xAAcAAADAAMBAQEAAAAAAAAAAAAEBQYAAwcCAQj/xABFEAABAwIEAwYCCAQEBAYDAAABAgMRACEEBRIxQVFhBhMicYGRMqEUI0JSscHR8AdiguEzcpKiFUPS8RZjg7Kzw1Ojwv/EABoBAAIDAQEAAAAAAAAAAAAAAAMEAQIFAAb/xAA0EQACAQIEBAMHBAIDAQAAAAABAgADEQQSITETIkFRBTKBFGFxkbHR8COhweEzQjRS8RX/2gAMAwEAAhEDEQA/AH2DyJhGHKD9IL5BPfFhcSeACZARwsSeMzQ+TOMklOJQ34UgLSpCgVc4NvEJsTcxbmNbjTzZ+sbQj1caJ8i6ruyfImiThUfEtzFME31LRqRaIOpBvsPYVgsxv5ZxveFf8CwxGpjGBJuNC1gixIBBPiFr8aWPYNaPicMDiIWk/wCn8wK2PsyNJxKlC6gtpSdJk3kEBUzw60qGHWl1Ku9Upu+okaogSLTtI4ilHqo5y2sfz4zgpY6SnyzKy62CnEsz93iPY2NYvI8ai6ClXVCr/OKHwOXJcbDxcCE/eKIj1179K2ZnivoqRpxUridC0bDgSdUpngDc8qL7PdQWX1BhBRYm1p5a7QYpk6XmCpP3hb8YmvWLbwOIClrZSlUcZTJm/wAMGeXCkP8A4pcUgaje8hO1ztSHFZjqVJsN/IiYqFqsAVWa9LwwpZg1p0MZdlxTpDATHEEg+4MmlmL7Jfbwz39C/wDqF/kanMPmZEQqRTtjNSNja3H1ruMCOcCaiUXQ3psfXWLnsU+wYdQpHU/CfJQsaPwPaKPtUzazgKBQpKVJIggiQekGl+M7KYV0amlqYVyQQU/6TYekVVERtUa0u9U2tVT5Q/EOs4hIS+gEE2VspPOFC496WZrk6MOjvsM8uZg6lknTPW3LlSJnBuMO6VuBaDY2I5Qdz70Ti0ubJVI+6q3sdj6xXcdluhIN+szcQKIOV9PoYac4WEEqUTPEf2/CtLGbobdQqAU6SlQPUSJ9Up96lW8xW04pskoI4LTG/Od+hoxhSHSUOOJSVxpUkzpUNiR907G/KmUZ0Gs8xVpZXtDc1xrPfF5sBKCPEiOMQTEes/pFVXZZ8qbAlR0nU24DdBJEpk7pPFJ/KaRZl2dabw+orWtenxFIA+RG3rXvKMcyjDoSVqB030A6STvvepNQrr1hqeKy0io9JT53k7OKVqWrSTGoJIGqOJ67D0FK81ybQlOgqKRNybpHKeAib/sj4DEtF1KO8IKjbVsJ2n9KmV43FuuFlSlalaiUnYJTIOkRYQki1qpUC1Evax/NZWial7k6TdiJbWpKgoBWkxMDTI+6eA24e1McHj161BI1KIkXk+EARxnhcdaUqwyi4AUkACwuJBNiRte/WvDuFdbMtrKVkEWN9rj8PlS5VW0MPsYzybLFKDhecWRJ0pUTBtqVE2G3r6Uxw6mA2AEIBKd5uDwM7k7b0iGbYhWHA1hOqUzFyZEkTMdaGy3Knu8B76wuUlMyncwPzqr0y1yzW/qQDaU6cOCCZkDhBPravLqUtJFrFUXBvNvz2rYFuaUrbCQFkJhw6TdQBG4vEmOVe3XSl1SUuNlE2SfEQCSEkg24TN4geVLBDa7SGaI1ud6pSEJ0Bs6VFRO5NrHyNPcTj3GVJSkFVoCpuJsLC9/yr1l+Hbw863EgSTJUJVfVJnjPTetuKzBjvPD8fPTeBItxSZ5771LEE6DQSkCyZnW6rWCAnmSmVX8JI2vc0Fm2I71IUswrUboBMo+FRTaTwifOjO1b6e5SoHReVX+MhBATIM7iYAiN60ZIpSWWw7upUlQ3bSIOocoHUQKMo5Q/vnCBYVtKVhKCsJXANzJIm6gQI4COlT2Z5U4sgurCUSQkJJOojmNgY9b0Z2ollal94FnUSbzxKkk6TzgcPwgFCXFpLz4UEET4bCVAQAJkki/rwrQoU2HOJDGwjBGVOEfVtqKPskCRAtWVR5BniE4doJTACRaRb+9faPwhAZmnQ0drGSIUhfXwSPlQbmNy4mQSyo7lAcbnz0QD6zW11tuBGHUI5tIT/wDLFey6CnSGGz1UUE+zaTQqjPa2a/pG2IHW8lc3Q2Tqad1nqlJPugJJ9Zpf9BWQVykBM8TOoCYSU3Pv71RYvJErSpKm0J1GStIUFCDMJ1oAH/etCcoYTBKtrf4iRt5OD8Kz1okczEfnwkZltJ9HaR1CihJJ08jIHkZN77Sb0sVg0uL1qU8kkkypIWJ4k6gL8pq4UwweKLf+ar56VGhncpaXsG1f+o9+pouoHK373/iSK+Xa8lMfl2GUod1iu6AFwpKlrUeJJUsJ9gKCdydkoI7wrVJAUCRMcYm3lVYOymFnU4hGx3dcgTaRqRuK1jsrgki2KWOmrV/9VTxL7Nr8poYXHKh/UJInPnsqWgy24oUfgMNj1jwMqdHAgQD6m1VycgwSSFLxLsC/2Igc9SRHCm2F7UAJAQQUxYwLjhVjVAA4mo+E06NcVf8ABvJXC5XmIucGv/W3/wBdHNt4wb4V0eQB/Amn6u0ZJ3rwrtErnQ2NA7AxwNibWIElsyW6LuMOp66D+QoHD53A092pY8iCPWKrMV2gJ41PY7MQeIAoLZDoFMFXo8VbVbTUvA/T0KS2hQcbunXpEA/ZmZg+XAUhxmVO4dQDzekgi9iDB5pJHpVbhcsMSpUFQ+EXI5aojT60a/2fc7pClOBbSwbHeE77E26zTNNiqWA0nl8StNGtTYED5iCZbj1KbEmeR6TU64tffaAqE6rdONF41OIUkpwgRAInbVcWifDAiI6cZrUzlWIWlI0aTxU4QJPEx8XsKGulyWFvpFgg3jjLNKFBdlaVArJ4JMjVPE6opjmOZ6Fa0p1Eqm0agly9pO0H97g3JchCcEWlBCnFiVqFx8atO44AA7VAZ9jnkPOuKC2wVnRqSoQmNKR4hfwxRThwyLY3/mPBAKYtvKTNXUurQhKJLigQZV8IBVq4jgOPGvLTZI0r06lJ+A6tRBnUd9hNzz5Uv7NOtJQCpaQ6FwgKFkiJKkHiep50bmTzTziH1DQ6gQlSVBRBklPhIAI+K0Xk8ppU0wpydusGQek24TDoU3BaKNJIKSkn4I/1SADbny3X/R3SUqQS4k7p0FMHYpUOdyIjn50EnMfGYbJCASJMAqVuYHvRmKxbi3ApCSSgAEQQIkkjwi8kkWAJmrrSfNp1lSdNYYxlinT3pWUobOkgX8W52tAAPIeV61OulCCpbiSjTYASJB+EqTv+s2p59GMaVuKbbKAC0lNoiLE/CTJsDNvcPE5aAyoYdsKmCApRFha3hAkg+U0X2aoVBI+l4Hipe0BwzzT7aHEpKTBGmxAM/FexNvn50ThcwwzI73wquAdVjEGVBMb8Y5daRPP92dCk6XLHTYQLDZJIN/zHCh3i0UJCzphRNxGqeZm1xah8HXW9pe0aPZqMSQFJC0JBIESY3m1yoiicC+UwlchRQFBNoMBKSne8G/M8rVBY3NlBxJYJQlO3UAzeLxTDLVqxz3dISUnQNbgPwgWMb87c/SmvYyRbp9JxIAhGEyj6Y9dP1TKld4UgDWofZ1C5247Dzo5/LtUKdWFKJJ0NQSSeFuVgCeEXtV/luTt4bDpaaSABHrPxeppHmKe4C3UBCQASZAAJ62sP1p0iwA6RRqpLSccyQAwVtINvCpQkSJvesqWzLL33HVOSFlZ1FW1yATboZHpWV2VO4l+afoAZjhQArU4onklI+aRPzqexXarDjWlSnVFRsNRGkbQAJI8yZ8qncwzpTepKGWUiN5K4JuRMAWtsCOtT+Jxz6hqcUQlWxCEifIAC3WkgrtvaN06ZlW7nGEUdS0K6CCv/AORe/tQuPzprRLKCpWqJW3Yc4lRv0oHsph0Oq7twkpJBQgEBSlJMyVJTqAA68Typv2qwiGVd4hA5KInw2gQPe9DdES1zcylUEG2sTh7MXCkNKcSDupCQkAeaRP8A3q8yTAuBAQtbpA+JSlqKieqlH5Cw2Fa8owjq0IWVFvUE6UASrYcBt8qp2y60PrArTwJIUelhYe9Dz5uVl0G9v5lShAgyMvbiAiZ3KpJ91UzGUYRTY1YZnw80JJkdSJNApx2owk2mNRO5/CneBQCjxCQTtT2ECknJKpe9jObZ92JcS847h20ONuqnTOlaJF9yELRM+EwQDaKlMzy1/DpJQUAg/CVAjyBmQRyNd7UgRpEeVKM/y1rEMOtkAKUgpFh4TwNxBg0epQJttGKNR6RzIZ+dznuJkgkJvtpv6T+Na1ZzilGEOKJPAAH8q+YxKnnUgJCSYSY5psf1rrvYfsc2lAKkg/n51y00uAFEd9pbLmLGcaxTmLIlZeA5+IfhYetFdjRqfK3JWECRJkaiYG/KCa/TacnZ06dCY8hXNu13ZRnDrW8yjSVxqA2MHeOBuaJWpFaRy2itTEFwRcwPGZxqSGmEguLECBtO58/On7qVfR2W0RLKQkg21J2VPWQD786Q4Ds+oJ1yNRuD0pyyVJT4jNIIWI1g6WFGXWJe0+JU2FPMpSFIE6YsoC5BA/GhMg7QJxLZUGiFJgEWIkmAAfOiM3ZceCmmUlbigQAOo3JNgBxJojIMrbwrfcJIIbEuObBSyJWu+yUp8InnQ6uFp1Vuw17xr2ZSQDKHKnANYPDSJ4aikGB6An+qm2Pyll9GhxCVpPAiahWM9DrkN/Akm+2pR+Jfrw6AVYZVjisDxX5Hf9KOjL5B0jjUCigicv7adm3MEe8bClsqMHYqSpVhJVuLkTUzlyypcjSSkR4pMTz4AwI9vTvGcrCkKQtIUlQIMi0EbGojs/2VQnC4l3TOlaykDchKRpH40TKTygaxKuoRc8Q5LhCkhRAU7HhEkJQnYq3vvEX4C0mn+sxC1TIsAb36bztw/OfDRKERJmPik3Mge3COQ5TW7D42EiUW2nbVzPlMwDJttFGygCwmO5LG5mhKFhRJuLWgDSOIiYM7RuYrfhscudSShIKoKQm0SQCCPnIPIxW3F4ZLtlAFMWCTBmSCARGwkfFxr4rBshI06wACNKQTpBEWhUhRA3g26VxXSV0i7tO33qCGwFLSPswS3cA3Fik36SU1C5gysEpUCkcvIQf+1dQweLZw7ilOwlKwBAHiVpkXG0RaPOgk5Rl7inFay425cAEpW2ZBtq3gm8zaQZsTHBIUHrCU6ttDtOUqbiAJIq97GMN4LWHPE64P8QH6tIA8I5nxTJgcKd5t/DpprDreaxSQkQQXEhIN4gquZ4RG9TbACUwowPl8qoajAQldwRZZUs52sKJUR8ISQNgRNwL7/OLVLZ7nzy1lkaO74jTJUJBuo7DaLCseWkCQoTwgj9betBnEoBBeGoKsEhVz1ttHtRS6kXMVQGfO+rKV4zLsY4tS2sMe7J8Fh8PDfpFZS3sZOsZhziieJKRtO3ttejwWERqH0lwosBqCUESYkXWAnlA34XrwGtayFpC3CpISdRDTZVbxwBeRAkxb0r7k3hxScMl+e9JStbMi0GwUQFKQCL7A1ZV0myTlEMyZa8I+h1SUhSgYBggIVvEGxifQ10pHZdLo7xZcJVfSkgADkbSai2+yU41pBUHGwQXEzGlCZPEiRYWBJvXXGnBzieWwoaUlqHm1iAJYljFrCA0QuLxAHLyrdisxQrQTBvEcpETHp7E0Fn2IWVJTY3gRPGbnkaS47vEoAtIIvx8jXVqgooQsIVuLxyhCFqlJ+Kbg2BBgRbejGsasAAlNrCDvFo29am8HmIgagU9eHrAt7VtxGYKQggIJSr/mg69+o2/LlQKWKUaiDaovWP8AFZmAIJOrby9/3etZzFLkJIvwJ4cKh04xXe6VyTwPPiP+4pjhsxGkc+fy/wCk1IxbloA1DeE9sMlYlDwQhClqkkQJKROrzIkHzFNcmzBASIIMVL5xiVvNQnSYKSUqJAN4A6HUBQWU5sFbmDy5dKYpV7nOPlDIxc5Z1BvHjnWvMcA3iEFCzYjcVJtZh1oDOO2LeGQVLWYHAb037RcWIvC8A7iC9oXVZYlCXH++QTp16YUOWoAwZ5j2obK8crGn6keAfE4QdCfXirkkXNGu5aMwSh3FoW0wCFhtVnHDHhkAyhJEmPiP8ouSHsxAQpzR3ODw6T3aUARYXKUjjuJO3mbAZF679o1Tv/cKxD7bKe4ZALi/iUSNS9NzJ4JTxOw28+Xdqu0qNKmMOdSCZddn/FV046BeOe/KvGedp3MWpTTKe6aVZV/EtI2CiNkj7g4kkkmisp7EIcEuOq8kgD8ZqC6IQXhkpuy8u0C7L5iCN/Or7LMcQZ2pdl/8L2kkqGJdHXw/hFfM3yvEYJJWSHWU7qFiP8w5dR8qSq0wXz0zHadYFcj7xn2jz6GjBkxYV9wGYFGUtI3XiCom/wAKSqZ2PQXqDzHM0vKS2hUqWQlIH3lHSD6Eg1W9rCGHGWBqAaw6R4bGPF+n40/hgyglpj+JONEWLmU95OrUEpsChJBJKQSRO5mNrzxogBwJhCACnwpEgGbmLSDFjq5TJm9B4TGkpC/EnhFySTBEXkAgCvaMQpRAIuSCRBskniDYmJJH57luDMkgz60+lEpVp3I8KRqJkJA30wJ4nmZNbkZiqbST4iQlQPI7RCjJPKLivakoLYARMH41iFKPHaTx6bHlScuBJPiHUhR3E7AAWMDnMGbg1IFjeQADGmPLZErUDoV9wkpMSQCNIVb3IvtcnJ8OhpAV9WfFdRkXVyVFjEWFpkSSKm8JiCtYSlRUEAi4lIvJsTAMjfh6inP0y0kJB46blI6wjyVbiBtXebecRbSWGHzVaAEBagjYxcCYhQkbDlte/ITGdqR/zFpi8K0ATE7hKd4rUzmYJASsqI2JkRPU8OaTI2vNac8xSNKXFiUKFwAPiTEmJPWqVFNxbaUy95J5jiklR0zpHOB+FLXsYVGQmyUmwG52HzoztBiEfChOmYMHcCJM9Z+UV6yLLSWy5JBIn2kD53npUhVUXMKugvDsr7baGkI+goUUpgqCgJIsTGgxfrWUmZyswPGRWUTiJCcNYQrMMSlnuUq+qJ1FMAajzURdUcJkCisr7ULaKQnUy2F61BuFqV0lcagOSj1rYjNEH4kA28q3YTLcO6QO80k7zwp1sIjeWXGIdRzTbk3bNAxQcUVAFRTCpKoXsbCOQN+O0V17DZrrSEmSNrDe2/QV+ce0WV9y4UgyOBGx9q6R/D7tGnEqUylvQW0ApClnYQklNucSPI1nV6HB1G3WHp1AZ0DGY5SRAEwQZVvYg7+VLM0xpUOYPHmDxpTnWfqb+rESTdUyLzYdfSvGBWpbKSSCBIHl+59qx8Y+ZfdCZgdBDTiVgDQbK3HUWNeMO4oqJCghfBQASflvWhhcpKJki48q9tHUCOJpYDUEQDIDCnczeBCVoQ7y1JAPnIvWxrM8MonU2po3mCSkz59YrZh8CVkKUqBF438qT9sXkNFttrxLnUq8mALEgdadRHteDakbQXNGHE4hHdrCm1bJBIOrcSNj0pL2yfDC2iyNLitQWkSQoiIMbCLi0TTdnH98poAErbB28RMxCYG5tPrFfHOyVjiMyd7sE+FhsjXClWSpVwmSRITJPMbUxhwb3bpGaFO2sQ5JiMwxi+7YRqPFWyU/5lGw8rk8Aaq8F2cZwrzannvpOLJ8B0y20RuUI3cUOZtMWtTrF5i1hGEtju8OkizYsTPQeKOZ+JXGBsqyzEO4kqTh0lIIhTivjUOQiyE8gPWr1sQtFb7e+PJSL77T52m7TttyhUuuf/hQdRk/fWJiftHc7Cwrm+fZvinzD6lJRI0tQUISBZICYi3rXdck7KMtJAKRPypw/krREKbSRyIEfOsxfFrXKoSO/wCCS5QaXn507NtXKjxroGUonjan+b9gcOoFTCQ0vhpsk+aeHpHrU3hAtlRQsaVJ3B/frQauMXEc6fKP4d1KZVlphnYiDRr2KbWhSFAREdD0qewuKChBP9q9PLQhPiXYdaYoVmAtBPSHWQfYTs0P+MKbAlDBU4D0toH+4e1Pv4lY1H09DYHjDQE8fiMD3KvbpVD/AAzy9Q+k41aCkPK+r1CCW0Cxg8D865vnmKOIzF9wHZWgH/ITP+7VW5rkGaYjpxKpA2EJexEGIgAWkzueBPrvzNYHoSQI4xIJHUiTvNC94ATMhRBSfMcupH416bEmIMzEaogQDJm89KADrF2W2k3P48le6pFgEgAnqBtPGK1fRQEpUUgargydjAFuPD51iFEOCJCogEjnMmx4dd5r0HgDIJJTMAgECTw6xInrRFPeUI7TU2kAkKAPAAEQnY8Pj34wLedfEvK1GIi9yLmAVKEAHkBvwOwJrRicSSoEzawg3k8bXgbTzrbhQSYGx4mTFr8Qk1e5Ei0MbkyUrG3iAKuBgGFc5SSJi1qEcT3wSgCQne++1vTavSlaQrxTNbMszdnDpKlJK1zOnaeVyNuNDck7QvBIF+smMwZV3itYGqbxsPKPSt2X5ipCSgGTFh06nleIHWhs4zFbqitQSkFU+EEdYvvRmT4AQBxNXYgJrK5Lbwxp4QJrKdoyYQLispe0rxBIJp80cnEiKQodIre25O1agYiGtGTx1CDcUChLjKg4yopUOIMH/t0r005e9F6ZFqtkLTriacT2oxC4ClARxAg/pXSuy2boWwG1gIcSPtAjVxJ61ybMGoNMMp7RraToV4kjbmPXiKRxWFD08qiXRrGdHxObISoKEnTvAJgeYERY1rzjtAG0hxBTBHExv5AzUjlXapaXiVXYcMLR0Jv+voDwr3jezLzr/dMtuOCZB0nToNwpSiNKbWJJFwd6VXBKtryvMWlBhu2DzpQ22ptJgkq3t5kAfjW/F5E9iwlxs6ETDuIcJ0qAFoHxLMzCU24WimGQ9jcLhgHX9L7sSE/8pMcQD8Q/mUIP2Qd6O7Q502BqxDyk6RKWEFIW4OAi5bQfRR8qvYBhljiUSV54f2fwbeGQe5QZIguODxK6kD4E8mxc7qMVNdoe3qGVEYeH3+LirobPHTtrV12GwqVzrtM/i/Ar6pkWDSJiOp3V60iew4B8J8+VFVR/tCWsOWU+QYZeKeL7yipbh3PAfkK6/gcGjDMa0EeG5uL1B9hMONCDEwkVR9o8W23oBTqSTKilROmNrJ6mvN41zXxITpeN1hw6HLKNrNCvSoEC0q5Wrdhcet1xSBGkcb7UhweObLYIkkxBjgec7W50KznbC34TrSSSFK+zblaCJ5UWvhk4TWAmNRdzUAMt3FgDcVCfxFwZLJxDSSVtXIH2kTfzI396qERFlBXUGhMaoaFpPFJHuKxMPUKVVb8tNhKeW9jrCOxvZZLbKFYkanVAFST8KJHwwLEjiaqG8tZHwtNj+hP6VK5f2gKkCbGLjrTvCZ0kgXr32HNLKLC0zK/ELEkwrMmSUEDiK/OOCaW0t0KHjStaVT94KIJ95r9Eu40KsONct/iHlCW8Ul1JADqfGP50wPmI9qLiBdbiRhTZ7HrOeP4vSqSISTOrkeHzj5U4OKSpOpB3Te5vciL2G/zobMWgRpgxypGttxpUpKgORFj770mrK3xha+FYnMscuYg3FzbaSb+Z6ivKVTF/nafKBxNKf+IrABU3N99uXPe/CjmsSFXSFH+lXztRYiyFZvbakRx5+dj6RReD1AktpWpW0CY8ydhG/ChkJXtZP+Y/kL0dg8M0U6XXVOCZ0AkJ/wBLd1epobVFGm8qF7wBwX0qXK/uN+NX+2w9zRI7N4hVw2lkfeeUAfZRn2Sao8IsNp+rbW2jkhspJ9EDWf6iKCx7r5nu2XUg8kEqPqbD1JoBqG+n7whrk6WiV/sth0eLEYxXkhEf7nYH+016wub4FojusO45Fu8dcVA/pQEjlXj/AIFiHDqLaUc1vHUr0SP0oPG5XBgha+alFKU+gBJq4cHRm+n5+86wbQmNnu3iUEp7pm3JtJHuTWVMKwfQew/OvlXy0vwyPZh+WiZIFbU0VimQYsEna036kHY+XKgFoUNr08GvGClptKq+h8jahFrPGmmT9msXiRqaZOgbuLIQ2OpWshNulXzESlotxDpO9e8sy13EOBpltTizslIkxz6Dqa6fkf8AC5lIS5i8QpyRKWmRGrrrWJ0/zaQORNU2DwTbSChhlOHwoMuK1aUmPvLJ7x0/LlagPXVdtTCrQZt9BJLs9/DlLYC8U5qMxobPhn7pV9s8wmAIurhVMopQkBK0s4dNlTsvTshMkA334edJs/7bYdPgw475QGmfhQANgI+z/KnfiqofMcU9iFanl6uSdkpHIJFgKWKs5u00KOHJFkEp8+7YqUoowygBxcuSTwIKtyBxiBeKmQRqKlElR3JMk+Z3JrQMMa1lopNxNTlGwhWwlZRcibiqSYsOdfFJG3CtzMG2oeW1EFoefXhVC1oEJKfsni/qkpmwEH0qpewjbiYiuY5Zju5cIPwnjyPOrnAY2wvWJjsOyvnX4x+i4dbQNzK3UklLi44gqMET0p7lWCQ1bT4TfqJArA6DW1t3wxSdWvUdcplEw1NGzKIcFhJ8Jigc9zYtsuLPBJjqYsPevInnUp2rxpdIaRdAMqI4nl5CowuHz1BfbrLuLC89J7XIW0geJKwQDb3g7U7yPPdSo1W/DhB4T/eoVGGB4W4VoYxL7Tn1JJUbQbg++0c69MpUtppEHpG073l+LAE7mpDtWj6ZikNJNmgdZH3lEWnmAB5TSjLGMaseN0pB3CPCPfeqHANNsIIBvvPOqVcYCMo+cNQ8OynM3y+884jKmWU/DKuf9+NTea4dBTJSCAZgjleKZ5pm4uBepXMMctw6GxJ26D9TSIDO9+k02VUpEGfMVneEHwhNrSGiT87UsxHaFraHT/SkfLX+VEYfsyoQXCEJPHfbcRzo9IwzPwBJV94mVfIGPIAedO/pKdATPL1KeU2O8Dwq9QCihxsHbX3YnyTBJ9BTdvNFIEFbzaeZKEz5DSFn2pLicZMw4pE792mFHzWslVKnMQ02ZDS3Fc1vGfZIq4p5un56wJT/ALShXnoUTqxmKHK6gP8AarVXlanHbIxTauQ1qCv/ANv60iZx7/xIwraR94o1fNc0wPavFpAAJRNrISP/AGiiGgR0+k5eGDy29YT/AMIeCh4FrJ33IHqCRWO9nVaSVhVtgOPub0PgO0DilwXHA4RZUkgxfxJNud61YnMG3D9fhkqUDcpJbVPG6PCfVNQAQbGENVhpYRM5kjxJMAdO8R+tZT5LGFOxeHSEGPXUJ9hWUbj+6V5vz/2WeYYbKXUk904lX/lKCfkpSh+FfMn7JYOA6cM8pPN5y5Hk2EoA/wAyhVrjcpSEktJ0rixSSn8LUsTkYKQp7Utf8yyY9zQbsI+MhixvBYJah3OCaUsHcjvlCNrqUpM+9NWfBqXild3p+HWtBIG8pTMJ81WHI0FjdSRpClhI2AXA9gam32/FcE34qmgPX7wopaaRlnHbBkTobL0mYJ+rJ5rUfE4f9vSofPc4xGJu8qUp+FtNkJ5QkUbjmAlZRHUfn+tBuMApVNoBPqNqlK17SaNMVCogGXYVOoa9pv8AvlWxxASpQA1cthHXkaJwiwnhJ4V4XhlatZtHAcb+37NWL3Y3mr4lhqlOkvBO9hYd54ZcCvCE+sXra5gQQY3Hl+VZhG1EmyjJk23vO9OomLcPahuxVuWTglxR/wA5It0sPrIrG4W4ixrwMGobLM0xzNQ1GOdEZbhdZv602auVbmUqYBamIPQbmAt4JauKjR2BxjrFviSOB4etOtQBCEiCbAczv+IFaXEFRI0HVcRxkbj040qa2cWK6SScOjtTA5gbD36TYx2qbFlaknqP0o5HaNuLSeUD9ak8RgZBkVpwuCX9lRtVGwdAi4lcSlWgfcZVYjN3HLTpT0mT61rDadM8hStvv2xdII96r+zWTLfGp5OhJG20g8+Q8qEaQTy7QKNm3irKsqcd+Af1cI6czVZlPZlrD+Jd1nf9/lTlb7WHQENgApG/5CpbOe0IAJKoHM1Rm1sNTD00J12HeNMfmiUyPkKkc2z4atM6lcEpufXl60uGKfxatLCSEn7ZFz5Dh51RZR2faw6dSxLm5m/nJrigQZqm/b7/AGhg99KXz+0Ay7JnXvG54EcufrF/lT1bLDCPBAMUFmXaBCEkSByqVVi8RilaWkmOf72q9KnUrHlGkBXr06Au51hud5v3ngBEfpSFzFpFhKj0296fYXskRd5e/AH8a+v4PDt2SmTWtTweReYzzWI8R4r3QSVW44oxsOQ/Xem2RYdCFalpHreteJxCUk7Cisoy57E/4SFFPMD9bCiK2TUQdPD1cUcq/Yf1HuNzhtQCUg2/e1TeaEEBbaSFJMz5VQYnse63oBUjUowEhxJV6gWFJc4yR9slKwQRaFCB77GrtXLeaMf/AAcQozIAfgbn5faMMvy1Drv1pEaJhJ8UWPDYi3uaQYtpKHFJCgoTZQvbhaBfn1rpnYfsM2/hC8taitaFJQkeHSpMgXF5kCucOMi4Pxcd96SUW1ij5lGVo3yjsst5lLgNlTHCwUU/lWV0Hs5g1N4VhNv8NJ/1AK/OsoRrgGW4ZlYoiP70K9+9vzFR+f8Aax1XgaQvSTA0ggr4bjxR5aD51pyrBY3EqCCQhE/C2dItEhTl1KUOISDHFQNO8FjNAUyBcx9j2yeJ/wBv6VOY1vr/ALv0p7nH0TAshTg1SFaYJVqKRfxE3vaSdzFc/e7coKb4YpM/YIiP6rmlamBY6gwtOsbbaQzPcLqSladxf1uCPxpH3vEC3I8uIpnge1TLp7syjiNURO0SD+4r3isnS54kKgnhwNZ9zROSoLdpCVOG+nxiHvk6jG028uFN8LiEkcP3FKMZlLzZktkjmm/960MvFJuCPMEfjTLItRbqZ6Ojj6VRRmO0pUv6vBqgb72oPH4kICgDvxpcMeORJ6A0ozHHKJuCPMR+NTRom9pNbHUlFwZ9W5qWBVf2dabCSXFAA7dfa9ROGQT4hvVBlOLsCDcbijYkcukTw1b2hXXNlJO43tHuZ5c4dLjVgDKSRG152G1asPhFIhazqUUbzO5MnrNr0S3mUtOpPFswORkD8zS9WMJAE2G3rSWYlbCDwXh5oYkvmuBpr1BG8+OphKidqCyoDUZ51szLGCAkbcuZqg7KdntKe9e3N9P69aubIk0sYwdcsPyfKwqFrskU2zDMUtp0pNunGlmb5klAgW/Sph0uYgwkqj5UqoL76DvFCFS1hf3febM47QqUdCBrVt0H618ybsgt5XfYpVuAPDyFPMqyRrDjWqFLF/L+9aM37TCdLY1KPD98KKr25aQ9ZR7eaqdO3QfeOF4pnDp0oATAvzNSma52t0w2PXh/evGByt3ErGtXpwj/APo/KqNpDGFBARqXwP8AfhTVDA5uaoZj4vxpV5aO/eJ8n7HFae+xCjA52/7Udise22NDKQkDpQOZ52te5McgbVMZjmmnzrTFQKMtMeswGz1mzVDeMsxzMXk0owylPq0omNpA3PIDiaQ4rFqcNzvwqyyLF/RgCiNQTCVcid1ee/vQarFRruZv+D+GriKhuNF/f3RiewUNd67pSZslSzqUSbCBYUPj1u4dSsOVwEmYSqU3jlY2rPp8krcUSeAm/nQLyS8okWi5jfyA50Bze17z1n6WDps5ygDsLfLvPQxgEQPFMzyg2qna7ZPr0pXocSFJUUqSIOk8/l61I4rLXEkHSsSfDqTZVpsrY2rZlODW84ECE3iSYAjeTyFcrdVMHh8dh8bfQNbv0+06z/DTN9Sn2YCUpX3iBPwpcJlI6Ax708zDs+ziUOsONpOoKCTF0kggEEcpqEwOHSw4g4bGJ1pbMhYIQo76LDjvzkCuiZHmqcQhDyBZW44gixHoag8u88/4vhgKhqoOU/HQ+vfeJ2sDpSE/dAHsIrKoHsvWVEgAgm1faVNB+0zQwtvJfJMuQEB03Onc2CSeAA5CjMfhC00UYdX1rn+IoC4SRAQk/YA5c+pqUy/PlpbQVjUnbTMBNwZEC52tv1pu/jUlMqknfQAbAc42M3vXqUENVFRWvAc27NKxSxrUQ2gBCUp+FIA/ZnmaTZt2NbQ0VNqCr7AdCeVvKaoU5q2hJIOnogC+9jEzxvwo5jMGywETvBEx4iSU242vPlRCB2kKaq2PTtOKYnK7mUyJmdiJ/e1EZbinGBOorbBgzukna0mR1FW2PwjJUq4CjwMxcmfTY1HYhpJc8KpCje/IyPmBSWIw1OotjHHRXW/WVWV5mhzkafMYdqR4Qa43g1OJulcHf0O1Nme0j7W6wekX+VeXxHhT5jwz6TNYETteDDYHwijCpkiFNpV5ifxrjOF7dOD4m1+l6PZ/iC39pLo/pn8DS3seLp7Lf5RVrHrOmuZJl7nxYRF+ISkfgBS3EdgcsUrUltbZ/lWofKYqQw/b7DkwHCP8ySPxFN8J2uaXs6k+Sh+tSa2MpixT6iSrMp5WtGDn8N2FA93iXByEj2un86lc37BY1snuil4cpCFeyjpP+qrPDZ4PvU3YzobEgjreuTxEX5xb9x940mOxNM3DX+M5NkOQuJX3mKQUFJshQ+fWnOZ5zHhRvsI/dq6UVtOjSpI0ncbg+lS+M7AtKVqw7ndknZXiEdJII9SaIay1TmvftaP0fFwRaoLHvIdOC1HW8ryFbHs+aaEI36Uw7Z9i32Gu9D4cQI1DTpUJgTYmRJ9Ki8vwYUqeA400tANqx9Jer4ooUlIxdxzz+0oSfc+XKnGWZMhAlyw3ibk9TxrU2pDfwgHrQ+KzYc56U/SponT0+88/icZWrnU6R3iM0Df+GADz5eVT2NzDck+tLMbmkcb8AKSYjFqWb+wo9y28WSnDcZmZMx71r7PZOrG4hDIWEa58SulyEj7Suk/3+4XLVKgq9qu+x+apYAw7iQW1OBSSf+WslMKuNpAM8KrxVBtHOC4QkCROK7MOsPKaWmVIIJI20qVCSY2m1utUHZjJhil6S8luADe5I4xcbVUdrlIaLiwvxL0lR3sgABIHWD71z9L15ixkj3oLVMx+E9D4BWBVlva/X3ymznshiEkqbbWtA+2IUDHEaSSB50FlaO7SC4E+AyUqFyDfUPL14VowubOIslxSQbGFEW9KMzvFvv6VySllICTbwg2HU1SoM6m02cfgDiaXDJF9wRca9LjW9/SVGB7aMq8D7SVg8CAZHkoQa34vsvhcUgrwKg05uUEnQrpzSfK3SoXB5C4+vWWyltRkrShQSnrqM2FuNFYNxzBPAB5KkniheoD14UEUsi6aj82MwaPhuMwn6tFrMNxvce/p6Tdi8LiMKoIfaUgk7m4J6KEg+hq2/h66ru3TPhDoA81IB/I1PZ4t51tDjrgsohLSp1zcaoiw3jnarjshlenB93Olxau8J5KEQD0gAH1o5XMtusexuMZ8EDUHMxlS1mAgTWUtD4FlAAixFZQuORpeecKe6cWy7EqMtlRGo2Udkq2B6A/CfQ8K8h91mfiBmFpJJmDcGetI8HivF8dzt16ecbe1O1a8W3rRJcbAS4gbqTEIc94QrlCTxrdDWm2zrPJzBMzKhyjr+NPsoxSXVIbWuBqHdnksmIvslW3npPOoyPCkxvPyMGmuTtlS0QQFpUCAoxJCgQATa/Wrq5g21EdPtFK1JkSpSkmfMi45ipxLEOYcQCS6hBHmq3yJpn24CmcZiALSsrF9gsa/xJrSxhlKzJTafiDyVJ8kOBR/2lRtyriZUsOHf3SebwyGko1yVlWlYmICQbD1vO9fV4hgGUIP9Vz+Jp/21waU4txCQFIMmL2JWsi/QGPapXG4FI0iSkExe9IE85W8xK1NjzdIajHI5fhXt1TSvsX6x+lYz2VKhKX0GduA9ybV9f7J4tA1d2op+8iFC3MIJNUeid4pnTvAXsI2eEUK9lM7EHz/AFrZoWm0+9vxrG3yNx6ihjMNjCAzw29iWfhccAHDUSPY06y/tu4kgPJkfeR+hP50C3jPWvq2Wl8AFe342oTpTqaVFlgxnQ8j7XIX8DgPSb+29VmGzZK0zYHmLf2rhDmUcUqhQ24H9+VO8pz7EYdMOJLg2BB8Q8wbHzrLxHhakXon0MtmvOyNYtnEFTDplJSQQTuFWMEca532k7Iu4MlbUvYYbKTdSOiwP/cBHOKmf/F6yogNxP2lG/sNqOwnbjHMqBTC0ec+l7/OmcNQrUhlIHzgit9opezEnY2pficdPw+9W+ZYLDZmjvMOkMYyCVN/YdjeNglXWL8Z3qPbycJu4qOhtt50+rIBeWp0yxtAmMK64QENkzaYsfU2qqyDIWZ+u1hZ4EERO0QP3ypxhMOe7QtsDRFtMeu1hVFljqWtK1nRAIiSSQQDfSLbCx4ilWxZZrWsJRqmXaTmHyQJWQpxUGYEWsN7/MCtPcltd0TvEAqHHpaI4gRR2b5vh+9JJcM8CduoSLj5UJhM0IJ0yNQidKVyDzBHzBoJZib9JKV6gBv1hiGlOQr6Ml2BBClGxCUggyI6XqAzQqSsmABJsNk32F9q6bmmdHDYWC0JjTIVGrV9oACRI1mLRFc2xOISskCf7U3RItcRnBVihJmvDYubE03wePU3Ckm4Mzvt58OlI2sA4PFptymjGMG6qIQY9KKwBnqMH4utrGPsd2ifdSe8fUR9wGE/6UwKVs4yDMT86KZyZZTcCeJ5frRqcrQ2mdyBM1JKg3jD+JIFyrt2GkfdkGO9cCnPsiQnrsDXUcnwxSOlcq7JYz6+NiQR7XH4V07JseT4TvQqbAm7Tz+Pr1KzXMaLgmSkE9RWVOsdtmAmHZS4LKSRsQYO96yl+On4ItwmnAGW5sU6kmZA3tuU/wAw5VQ9nM1+jvNLdJ0z9XiEifDsUOD7QiQQfELbiKnGcI+l1TYSoOJN0xCgU7EDemmWPlajBTqUYW2oShfmkXSf5kbX+GtzePM4Ilj2v7MDuC9hiFtataQkzpSsDWOoCgCOh6VH4tpetBAJ71tKgB95I0qA6ykmOtdG7K4ttCSwpK0JULtOQQOEoWPCpPz50LnvZ1AShKJAQ4SIuQhe4HSb9L1ZGtFlrkHK0T9s8MtzC4TFTJOHCHP6BOo9fFBrblWCCccH1Aju2krPDxfRkJjzUpY9jVHhlIXgUN4gASkpVwngT5nfzNB418OKOkgJ/GAAJ9AIFAr1wglqbMwy/GIl4Jbi1OLBKlGSRf8AcUvznJ+8bIG4unz/AHaq5tCotp/fpSHtMlYSJICSblM/jFZgYlrwpQZbSOy3HraMXEb71UYDPxPLytPqkG/UpNa2clDzQUsX4LFiRwJteleJyJ1syE6h03omfW4My6+DO4lUvEMv/GEuWj6wSoAfzteL3AoHFdmGVgKblBngoLTHQi4PQmppvEEG8gjnuPXcU6wWbKF9cnmoBRt/MIUKhqzDeImiV2i/GdmHE7aVjhBuY6G5PS/HkaUvYJSdpHQ10PC53r+JGqPuGQZ5hRJB6z6Ua2zhXrTeb+EDfhAI9zVRVvoJ3Edd5ypLqk8P70SxjjPDyUJHzroGM7HNnZafKb+xtU/iux8faIv0In5g+hq7MBqwtLCsvWbcjWwVBS2k6uINwRzHX3o7OcKyoq7tMBQ2tZQvw2ETSdns7i0mGwHOlwfn+tMMOHEoWXW1oKdpA+InSJO0C550s/EvynScLOwynWC5bhyghSVFKhsRuDzoRL2rE944ylxKSRoXq0m0ajffiad4NhRFkz1phgcqbYSXnQm4lCDBne8R+dRxCpJ6zQxBUJpvBl4oRpDaWhYAJTYQOfDyNE4hkhMqAHEXEmeg2FK8dnBXASkBRT4ojSCBcge29Lc6zRmUhsG0a1SRO0jxdbTFCWmXY36xDKZ4+gl54qQYIFuRN9Unyity3HMICpbaFk/CSSQmFQSUiNVyk7xejsN2iabEDCnXaIKYnbfc+1eMRm30khDzISAqLSPiGkgjyM7jajjs20rdjuNI1yZkYnDfWoUHgpRUlSfiTMg8uPCpXFZM0HnCILYsk30pJHiueRteKoGMyUjTcalJJgiIAISOJEEhXyoTMXdUlxM/EQDFygEmOBNpmqIWUkj9p2oMXrwsXJPKBBmY571rwZ0qtqSmOPPkQRvWvDYsuq1I1ISOOlPHzG9HY7EtqaUkxJAUm/8ANf31fKmRcbw9NipvGuDdBt3omJuBHv8AlW9eHJ4ap5WF+dJcpagp1RIsAReBeq3CXgqJvwAqd5qUapcXIk/ikFpSVogKTeB0511LJfHoWNlAH3FRucYAKTMAmLcT6RVT2ZeHdtX+yPwqlrNaTWN1vGr2Hw5J71ppTmyipIkxb8IrKc/RUKuUgk8YrKPwKvQxLiDtOQfxVQErYWkAL+8BCrFMX3tSb+IDCAllwJSFqSCVADUTzJ3NZWU/T8sc7SjyFRLCJM+AG9786cuXaT++NZWVxidTzRJijcDgNhXpCRyrKysmt55o0fKJvQkchWLQOQrKyhiEn1e1KcUa+Vld1nRRjmklJlIPpU0bG1fayimZmJ80PR8IPHn601aMtkm5HHjWVlJVIg8bZZilkGVqMREqNr0wwb6iiSonxEXJ2jasrKYonlgDHuCMExbypDnBseo/+xNZWUSv5lk4f/KsUYFRhZm+oj0k2oDOlnU2JO5+QrKys9v+RG6vnnnDD9+lT2UoCnxqANjvflzr7WU3h/8AaS20ZYlIDpgbJt0o7Mj4mv8AO381AH5VlZVD51ge00Nf4ajx+jN3/wDTJ/Ek0GFElE3+rVv1rKyidfztLHcQHHJA1QALj8E0F9ofvhWVlNLtCCWeB/xvIW9qpcuNz5V8rKp1mjQ8sZOjwen5VryBR7lrzP8A7jWVlDqby7eWX2GUdI8qysrKcG0QM//Z;" vertex="1" parent="1">
          <mxGeometry x="1195.5" y="836" width="259" height="194" as="geometry" />
        </mxCell>
        <mxCell id="F8rlqcTrgMaWFQeFcG7n-115" style="edgeStyle=orthogonalEdgeStyle;rounded=0;orthogonalLoop=1;jettySize=auto;html=1;" edge="1" parent="1" source="F8rlqcTrgMaWFQeFcG7n-114">
          <mxGeometry relative="1" as="geometry">
            <mxPoint x="1040" y="1160" as="targetPoint" />
          </mxGeometry>
        </mxCell>
        <mxCell id="F8rlqcTrgMaWFQeFcG7n-114" value="" style="shape=image;verticalLabelPosition=bottom;labelBackgroundColor=default;verticalAlign=top;aspect=fixed;imageAspect=0;image=data:image/jpeg,/9j/4AAQSkZJRgABAQAAAQABAAD/2wCEAAkGBxMSEhUTExMWFhUVGRsaGRgYGBcaGBkYIh0YGxoaHxodHSggHh4lIB0aIjEhJSkrLy4uGh8zODMtNygtLisBCgoKDg0OFxAQFy0fHR0tLS0tLS0tLS0tKy0tLS0tLS0tKy0tLS0tLS0tLS0tNy0tNy03LS0tLTctNysrKy03K//AABEIAOEA4QMBIgACEQEDEQH/xAAcAAACAwEBAQEAAAAAAAAAAAAABgQFBwMCAQj/xABJEAABAgQDBAYHBgMECQUAAAABAhEAAwQhBRIxBkFRYQcTInGBkTJCobHB0fAUI1KCkuEVYnIzQ1TxF1ODk6KywsPiFjRj0tP/xAAXAQEBAQEAAAAAAAAAAAAAAAAAAQID/8QAHhEBAQEBAQACAwEAAAAAAAAAAAERMSECEkFRcWH/2gAMAwEAAhEDEQA/ANxggggCCCCAIIIIAggggCCCCAIIIIAggggCCCCAIIIIAggggCCCCAIIIIAggggCCCCAIIIIAghOlbaLPpU6U900n/tiOFV0hIl6yw/DrL/8sX61Nh4gjPpPSLMWWRRuOJmt7Ori9o9o5q7qpwn/AGj/APRDFMkEUNRtIlAJUkW/m/aKiq2/SkkJk5yG0Xv4Hs2hiadYIS6fbaYssKUDh96W8+ri0l7QqYlcoIb/AOR/+mIpgghTqdtUp9GXm/O3/TERG3pU2WnzA7xMsP8AggHeCFyk2hmr1pwn/af+EdqraREsOoD9X7RcNXsEIs/pEGbLLkZ/zsPPKY7yNtVqDmmA4/ek/wDbhlTTnBCTWdICZQdUof7zl/RFJM6XCLikGXiZzezq4ZTWowRnGFdJU6oLpogJY1WZ59g6q8MlNtKtf9yw/r/8YimOCFnF9r5dMgrmJA4DNcngLRU4Xt9NnH/2eUbnmlyOP9mz8ngHyCFXEtsk08vPMQ3ABblR4AZdY44LtdOn3NKEPo80kt/uwH5PAOEELWO7XIpZZWtOm7M3hpGbzunwpJAoAeB+0bu7qYYNtgjJ8E6YJlSbUASOP2gn2dUIcqjavqpBnTZYSEpKiM/xywDNBGbYJ0nLqEhf2MICico64klPE/dBu6JOO9I5p1y0CmC1LDkdaRlHH+zL+yA0CCM7/wBJK/8ACD/eq/8AygiLhJR9onlvRHLXxJi8wzZUBjMPxPnFnOxKVJQ6QNQPYT8PbFJWbSqWtpYJygX0Tmudd+4W4R1rnsnDGFyJCSzdn3u0VdbtKVEJQCWDncOQeKemwudNAK3UCcxb0X14++GCRhUuSApahfcUj2RNVTy6edOYqch3IT6PjvPsi4pcGlywDMUMqtxtfwjnVY8iWSmUkDmPq0U2edPTqdd+ojOrF9UYyiWCiWO4m8VEyqnT3Id3Zzo0WOH7PPlWoXHnF4DJkBwA4F3v/lDC3FPQbOqUQtbgMxfTyi0KJFOm7E8f2ilxDagqITJGY7wNw5ndFSikmzrrUdXKRp574uM/arbE9qSolEoOdHGg7zFaKSZNLzVa+r6rfGJ8qklykvYaBjxirxLaEAlEvtF9BwHPvjWosCmVJF2F9OG8xR1+0ClumUNzPw+cVVZPUe1NVxOW4HnviFTibUqySE9kaqOifGJrXRV1TquTMWdBrfui6wbZtUwhdQLbpY+Ji52e2aTK7QGdZ9JZF/CG+lo0ywVEszaxm1eIuH4YAzgBmZtBEXHtpJdMMiGXNUCyQdLs6uAivx7ahS1mRSekFXW4yhrWG8xy2f2ePpnMVH0sxd+f00Q6jUOFTamZ1s8uo3GhSBwAaLvEcQk0UsWdZslA1KvrfHjHscRSAS5YzzVeikbuZ4CIOz+ATJq+vn5lzDqoMco4AbhAecGwibVTOvn9o7gGKUDkH9sN1dUyqSUSSAwudx4WOhiROmS6aWSSOyHzMxbnGLbc7VKqFFiRLGg48zGjVZtztQqpWbkJHop+JhXw+lMxYHExxUorU/HSHvYzBT2S11GzEFu+M2rDlsLgQGUtZPdfnHnpKrjOmS6GWfT7UwjdLGvnDgpSKOmKldkJS5fTSM5wKUqetdSsHPUFwDqmUD2R4xeBi2foUi7MlI8kiFqXNNVVLnbiWTySNIY9qqr7PSZE+nO7I/p9Y/XGIux2HXTEFh/CxwP6f3ghtyDhBGmfWZUGErnEdaXbcxYE6kpe573hpo8KlSbTSg9/04MRMS2kSkBMt3TxS57gNR7PGKeZNnVHazljv3jlp7hC1V3WbQolumWADoC5JPy8Yqz185ScztpqX84tMO2dcAqAFrv8ovAJUpnYHd8uUMTZFPh2zuU5lDXXn4RcjqpAJDGKPFNpurVkGjGwup+Q3vFElM+eVOVICi+UXV4/hhibq9xLan0Uyrk+qNW58Iq0082epWdRD+qk7uavlE3D8ISBplPDf4nfEmsr5cpCj2XTYd7xUfKPDUJABAS3DT94j4jjsuWAzOTu1YRSVuMzJyiJZypAy5j7WiDMySnK3ztrmBgO1TVzZ1ycqXJYHtRVVeJIlhk3fcWJ84iT8RmT1BEoOo8B9e2GrZzZISyFThnm7k+qn6+m0iWrIqMJ2dm1DTJzol7h6yvCNCwnBQlICEhKLdkb+8xPosNIubsPId3CPmNY7Jo0oUsF1GyUh1KY2YRlriRVTpVPLMxZygMCTpoflCXi2NTK5ZRLUUSFGxKS620udAe6Iv31ZMectaUu6ZeiAeLg+l3w4YRhiQCCQctid45HiYGIeA7PhACSlIy6WAA72jltLtMJR+z07KnnWzhI4q+URNptqFKUaWkczNFLAcI8tVe6Ouy+ziUMVmZnUXKiLk8TxgPGy+zrqMyYoKmrupS0kufgIeFZJCHZKVDUgsI7FpKGKgprgkXHnpGXbabTdaVS0FkDVQ9Y8O6Kiv222oM8lKVfdjn6R+UZjX1RWrkIm4zXlRypiBRU+dQA+vCFqyLXZvDesW5sBrZ2jbtjMIyjrFAAtbu3QqbG4L6KQ5GqgR5WjSMTq00tOVEjKlL3tGYpN6Qa3r50uiQWSe3NO4Sxu8TE7Z+izF2YaAbgkaDk0LuCyVzCqcsHrKk5zvyy/VT46w04tVilpFrDZ1DIi7Ek2cdwOb8sXqFLaKs+1VuVJdErspva2pvve35RDzs1R5UZiG+vf8oRNlaIqLkElR3hwe/nGh4pUimpFL4JLd+ifhCe0H8Vl/iHtgjIOumfiMEb8U54VgSiASQeZfT4wySqaVJDlrPdr31LaCIFbjktMt0G34vrTuhZrMUnz0DKyXd1qCmbknUmLmMW0x43tGmSl0kB9L+ly5wu1lTPqFAt1cuxdV1HuTw5mDCsPQs2OdaLFarqT3DRMXtLThIAXdSt533Z4iZ+0GgwcIOYD0jckus79fgItFqlyklQszDv1iuxHH0Ss4B0cJHM2+cLyjOns5ZAuzhzBFviO0JzhMoZikbuOvxim6km85Ss2rN2X4tHydMlyknssRz3+ML+I4wuYwS7efgBDVkWuIY0EgoDE7rfGK/D8PnVin0RvUdAOXzMWGB7JLmtNnBkH1d6vbf3d+kaPhWGpKQAkJQ1kge3nGNbyRUYLgAkgJkC59JZ3928d/uhso8PAYMzkC+sdkJTJlgkgJY3J0axhQ2i2mmz5glUK0dkJzzHBNgHyj1i9ngW/pYbQbXS5JXIlErnEMMocJD6ny0ihwnCJs0iaucta/xF05d+XLuHKJWz2DEHtsoK9ZgFPzO9+f8Ak3yqdEhJUpgG0O8cTyiDnS0CUIzEAcefc+6EraPaY1ClUtJ2QCy5qRYcQlt/OOG0O0MyumdTTKyyRZcy4Kv5Ugerzhk2W2cyABC023XT8Io4bJ7PS0gDMsHeWBv74eJY6lJSVBVrfR0jokFCGW2YaOA48RCHtntKoHqpdyQyiDoOA5wNQ9tNpSsmVLPZ0WoHXkIy/HMQyjKk3ifi1YmWktblChNmlRzHU+6KPABJ5mHXZLCvWe+4AG/iReKPZ3CVTVA5XHPTy3xsGx2D5yFZWCLBrA8S27eIypl2Yw8SkZjYm57955Qrbc1n2moTS9nq0feTTvAHop8TDjtHiIppC1lPopJawJIBYPGfYPRqLkgdZPV1kwcPwJfuv4iKL7A6Uk5yGJuG0YbvKF7b3EOuqE06T2ZNiCP7y7l/6co8TDjUVKKSmXOUkskBgN5JyAeZEZxgMtUyZnUt1E+kq+ZW8+JhyJ07bJ4fpYeGhHHvBjz0l1vZlyBqoue4fuR5QxbP02RGZgLeR3+6EDGp/wBpr1M2VByC9ra+0nyiiB/C+R8o+w4/wwfyfqMETFZFXVU9C8swsXzpZwO/vi8wLHVrSpBW0z1X0WeB4KHtaK3aCp+0LTl/lSk91vaYp8OqwFgB82jAO50cct943xlpjCQUzCslS0kH8LDKH8S/lFbiGOrmzD1OiRlCibWDP5uYrk08+eQqYlWQABKQCwF9SNS7+cTiqVLT6LNwURfuMNZsc6aiyDPMGZt5IPuMRMWxlKGCU34Akud1op6/G+s7CbPYmPeETJYUlMxr6zDqOZ5d0S1ZNQMRnKIK1v8A07vrlHfCpnVqTMZJI3EPytwhp2kwkIlspP3dgFi4LhxccYRETOrWZbuPVPwiT/V/jY9jcVlT19UskTWdIUfSA1D7iANNGuNCzLiWIyaWSJi1BIZbg62LfOMKwqvmpnIVLBUpCgphvYhx46Q0GXWVMzrJxy/hlKS4SHe+53hTKnYnjysRCUFEyXTB7pLFQJJc2dovsH2cRLykAAJ9EgeznwaJmE4YkpC8rH8Lb23Dzi4ra+TRyiqYUjK99cvdz0jI6VC0SUZ1kDKHIO7mecZni+PTsTWZUsLFMDcpcKmeI9WI2J10/E5wA7FODYKIBXzL7oetmtnpqQ6QGH4Vj3QVx2ZwWWgBPUgM2uZJh3RJlygCARyN/bHSQSiWQovuZQ+jCptVtCZSClLGYdP5R+IiKajbYbSiWTLQTnULkXCBxPOM2r6gS0k5udy7xKqqosVzC51KuMJGMYgZqmHojWAi1tUZqsx0GkeKSQVqF2vwc+AjiSCQNBDjsthwHb6sEcyrN4MWflEqmLZbAgcoS5VZyQygOOvhGu4dTJlS307m8opdk8H6vtkEvy0G4Ny+JiTtni/USFrSkKIHZGjqcAad8IhT2nrU1VT1YUTKpiVzRfKpdsiOd/K8WWB0pUStQ7Su08U1BSFxLX6ZVnmlmeYfV7kizcXhwlzpdNKM2asJQjUngQf8miwJvSRioVMTSoUR1RzLHqkqCFSxzYOryj1svh1kjslJt3Hd7YV6Izaid1kztzCQpRNu0QABbgAE+EaXs1R2zZWdwRzFwYXp+Fri1X9npVrOoST3lgw8TbxjPdjqd15lKAPMPff7Yvek2vZMuQPWOZX9KdP+IjyMdNi6fKgMsA8CmKL/AKtP45f6P2gg/iaOKf0n5QRfrUxgOPVLzD1dgGAPcAPmYsdmMMQPXSle/MFE99t0ccTopRQ5JTwKe0n9PyMc6WsuFp1Go+t0X+rDJiVamnOXPms4UnMAeV7vCTimJKmKJcsdQeMScRmqmElR7LuOMUNXN4aRLUxNpqVahnTrqOJ/aJSFHxj1LqCMq0qIUwOYFjpHesrFT1BV1KZlu+7Qjj8Iyqz/AI6oU3VrL5XAfTKbt5v7ISZyipfZe5sN7vaLmopFlgX4jhEZVCUtMYsgjM2rPzgq1w6WmUrtDMsFiXIYjcPHjGx7AplVUnMFduWrKQoglmBG9/hY8DGMTXUXHAX8NYv9iMaXSVCVA9lZShQPAmyu9JIPmIZnputh2jxORQSislyBqSzGzADT/KMaxXFlYhNCpyzKkgulF78y/m0WvSriYmJQC7rWm24b1B9+7zhYVbQuDDqcahs1gkohJRN7PNAIP5gYeKOnTJBuFMHDWeMb6P8AaVVLPCD/AGU1SUqf1SS2Ycr3HIHdfTdosURJdTu10gbz8oF1H2jx1FMCSTmWzJcqY8e4fW6M6q1FSlTFKdRvm/aJNVVKnKMxYZR1G5twEKe0uKBAyI1gIW0OLFRyJPlFASwYfRj6qzkm51i3ptnpwyrUyXYgPdjoeUFfdn8PWpQ7JHNr/tGs7H4aZh7QKgg2J3qGuliB7+6EGiw5bpVmCS+r6EcWvG3bN4f1UsFw4GliObNuPGM/kW6fukN5EH6YxmuLVBnVJXnzSqcAITqDPKlEPxyhjyYDfDDtVi4SgIB+9nZkSkpPaJLptw1TfdC5g+Ho+7kobJJDOPWV6yvE2HICKL7Z+hLOoOVXfUnf+8UXSXi7BFJkBCkonTCP5VEIHIqUHPdDtSlMlIXMWEpQrtE2YM5Pk8YwqomVE0zFnMqYc17Mhz1aeQALtzi8iL3ZehB0UQs31Yv46xqGFSsqM29gT39pJhS2cpXDlLGWx3EMefA6Qx7SV4pqWYsC6QQkfzE9geZEIVnWO1P2muWbMk5AdzJdz+oq8od0z/s1Iuasy8stBJIYmwcbn1hH2TpCqY+VUwCzso9/o84uOleu6nDihKcipyky7kuU+kpnvoPbFnRkH/qas/1qvZBFb1cfY19g14soKm6MVB8rMl+IEFLIJGZQBABbiePiOHOOdRTzZ+Uy05ilIAJUHs9gCefsjwqXMQO0CFb0lwQruiIg4nUght24bwYpVjjF0mlUS6jc8NBEavpsqX3vEqvuCSM4UC1mZyR3sX7rQ1YXTJK8gS3Dn4wtUEtpQ5nN7gfhFpQ1mUpCjbR96Qd4+UanxljF+V00TcNHVTCfUDg+IHxhXxeqCZa5YupZSyd7Ak/KLjE8cUuWqTISVrUQCoAhAa5c6AO0VlPgszKSkZ1n0lZ0ZjySkl2jDXpcHWShYlt7Ow8YlUldmsEkk+R8YjzZcxUxUrtJb0gXDd4MOOyqJUlhlRnPFIUT3E6+EFV1VhUycApSgpe65JHIB7DuG6OImMMqxlWNTuPd8o06sxeSiWTOlSiANSgJU3B9R3RlVdQTqmY6ErMknsqLabhaCddqdAKmSpybW95MPq6ibNymaAQAEgjcwDnuJfwaK3Z3CzTskl0KIBcNfcbhiNIZa2nTJlkhIfcOJ/aCljaKuRJlm7lvGM9ppXXKK1OSdAPjFrWyjPmZpizkcugDtAhRDezXn5seA0dKtYQiWpStyVLykte2VhEUgV1MUG4IEPcya8tKhdJHlDFjOzklaciZRSshyArMw3G97/PhFWNnzSU5MxdndjoBwB48uAPCLEVCapib6+/jD1sbtH2DLKwyQSD+BPrBXADUbt3ARl1Ticl+wv2K18RFvsolM4rlJcmcCJiyOxLlarLaqLd26F4Q4zKxM5f2tCT2wqXJJDKZz1kxjca5RzKuEMeA0SUoBGuv7RS4SgTJgOVkJZCB+FI9Ed5uSd5JMOK5iJMqbMUwSiWVk8Mup8vdEgT+lLE5WX7CCSpakTF/yyU5jc8VWAG+8LGz1GpRzXBOjhw3D4RAxTE/ttQuoy5euyhKTqmWhISlzxLP5w5bP4cUZFAqAB7QH4YtDbgNJ2Elg5Sp2fg7N3tC10nYkSqXIF/7xQ7uyh/zFR/LDvLR1aVXFlfD42jH8SqhUVUyY/YUtkh27Ceym/A3PjF4hs2LoGSFdYB4K98JfTXiGeqlSASrqUElW4lRs3cE+2NN2elykoDIcs1pijc8iWjBNrcSNRWVE0kEFZSkjTIk5Ut4CE4qoeCPjQQGkKppaZaZspRmIPFIcHk3DgQ8LuOYmMwbtGzx1RLmIlEOyVHfYgxWJw8XUS55+2KiXSVSFcRY2MQK+cFApTcuPBvjE2twdaZaToSx1B7KrpII427niBNk5Ev7YlVwkVBSAk7jHSoQv8XkBHiVQKmEKdgYu0YOtUvMlSF5bEAstv6VC/gTFlSz8p1AUolpKGKTYjnz3vDGilzS82Xskai4+cJtPUJlDKspAVvf2EPYgj38Yt8HxhUglYmZUC+bUPuYaEk2FjGvMY91U4pLMuoSpSuybZjuB0vw0ixmKACXS97cjY/XI8oo8WxDrX0AawsG3v745YdinYyE6aPu4EeDxmXGrLVxiMwzClSypaEkkpUSxJZgS9wGOnLx+y8RKS6VFL8zfvikm4pYpAd9H79w+tYlIQSAeXlyMRpsey8ynqJAmJYrAyLSbEHeFAeq5cFu6PuMTUh5inFtTyDkmM92KrMlWnMS0wFCgLA70uN4cCIO3m2aqhZkyFNKFlKDfeHkdye7XyiKrKSvTMmTSA2ZZUOJB+MTKcudSOY1B4iIGz+CqUQsKvezbjYiLheETUrbIVAjVIJ5lwLi2/SCHzYDElTkTkzFBWRQIUq6rpL5lHUDKPM7rBD6R9qRPV1Ur0AXJ4nR/wBvnHerxRVBInIAabOZN7ZUB934iT4Rn6lFSiTcmA6U0oqLRrGB4SaeSmSP7WaAqbbRNihHLcs/lB0hQ2SpEJmJWsA6qAO9nyhuamfkDGm4BTrK+sXfMXKjx1cnnEVe4HRhKGysdDrrFB0pbQmWlNGgDPUyh1h/DKdlH82UjzhxmTUypc2YpglMvMo8AliT5P5RiGKY0uunKqVjLnAly0/hlB9eZcv/AFGLETcCpRMmPZgwAOrCwjTdm6Dq8w7QBDpva3pDvYwm4BhGZIYdyhxjScMlAIRr6JBfUKAKTEhVTt3if2elXlfOsJlp4ZlJyv4DMfCEPZSlJmAy0KUAwdKCqw5tE7pFxPPUokgOmSnMQAS61BkhuISx/MYtNjMMmsD1Z/Ui3hmeNUXO12KKpsPnTFunsEJdLKKj2UjTVzH5uToI2DpvxLJKlUpcqWrOXL5Up08yfYYyFrgQo99XBErqj9JMEREpXW1awpdk7huiYtBkrykhY4p3FnYgxNq65MgdXJ7SyLvu7/lEagnDK0ztXBPx89PKNTwvrpUghDJ0WLA7uMQKogpIOo1HOJWM4ui6ZSTlSVZSWcJJDPzAA05wsLqC5IJvq8S0kXVBUJSACdL/ABi5rpxTKMwejpm58O+0KlNIVlKy7CJqaSZOy5j2H3ln9mvfF3xM9VcwqmrsLk7otZmHplI7TuzlmBHmDFxS4DMkpUtUohJPZWCFJ3MnMHAPvePM1OdOUkp3KLA2Oh00eJi6U8j3vl5xySkk2i2q5eUlD3T4OO6OkqUhABAcnfEVyo0AICgXd3caHg/BmizoqhIUM4dJYHiBxte3DfpHyTRy1oVMQshb9qXlLZQH6zNowIYhgQ73DtGlzE5CcwJB0cebfWkajN1P2lrESFASCQop9J82oIJBI4HWKrDsJSQla1sCQGbcWueA5x8xdQMtH4km3ApIJPkf+aO0lRyghw4cniDCfHVvyyNT2P2bTNSFpUjIhTEguXG5gNGfxhqxdcqlkTMqBm1cJJVx1udw8hGTbObTzKBzLVmCi6pavRVZjvsdL8hDTthtKEyTP3rCQhD6qIfUbmu/LnCzEnvrJ9o61U2esqL3iRQYSQkLVqb5eA3PHClw+bUrJCXUpyW+rD3Rc0dSzy1tnTbvHERJ6t84l0uVC0qyON1yCD7vMRrmz9RLnSXT3EO+Ujd7oyeWQoW109jxebJYumTOJWvLJ6slZOgylLHvuW74t+MSfLV10pbTmUF0MsAzKhICjYBEs5Sd2qrjzhLwqkC1slilAyjnxPiXPjECvxX7ZV1NYQwUWQDuT/Zyx3hIfvTF3s5QuxBIVuI4/QjNbPuzGHJRMBchKgzDQL52hmqZyZcsrUQAnMpT7gzk+QMV2zq88kF3JVlVYAhaSD58DvvFF0pYpkpxIQWNQvKePVhlL8PQT+YxZGSNTTZlTNXNykqmrK1aAAaJS5tYMPCNS2dw2YlAdCQGd86SfYYz3ZykXMmDJLWoBgGSWYW18I0aomGnplz50spEtClEFn7KSWYF7s0O1WLdKGK9fiC0D0JH3aeZF1Hzt4Qq0yXWAH8NY+1VUqatc1ZdSySTzMSMEk55qQxN9Hb2woaf4afwr8xBDF/Dx/qx+v8A8oIYyR1yxLSSdXu+pvd4rqifnUohQAtY72A+MSqtRmqJLoBuE5faYrVIXMLAAt3CDThOW+gbi0WeBYKqcoO4G7nHXZ/BOuWxIBGgJ1hkrsSFKjqUAGcoa7kp/EYYa8YtVS6eX9nSkLmKDK3AJ4k7og4bXSySkF7BwffzijqZ7eisqWS6lNc83+EQ0u9iXe5hqY0Otn9XKJKuw2r2UNw53hWkYpOWDllpYFnPDeGe8ck1qi0pa8yTcMXAVxI46jxjpSLykjRy9tCYpmRFrMOLGY6szuXAb3x5QVJDKvwYG0M+Fz5ajkXvsx0VyaKipkDMpLgFJIZ3Otn5tEzCXVXLUsqCQrK+8lmsXv3e+L+g2cQlJUZgLDgr4gRWVoOVIPqk38mi2wPHskyUmcAqUCHBtluGUSNQnhweLmml3GCM2UC/CJWFUswjK6eSXOb2AjzIi86RMCRTz0zEAFE0Esn0QoXtc9lma5YNFDRVikAhNncbv2hIWxfp2bmqSlTFLjsvory3e+I1VKmTJMqUopCJLl/Wc6Bmsw43vyjQsEx6TWSQjORMCGUCAFBWj5gwUDuIA4EPqm7YzOqWhCT2shKmN9Xv3qUovzjV76nx8W+GBIkJk0y2z2mKFlKOolO75d/Mk8gLmg2RCcvXIGaYWP8ALw10I15xm+B1syTOTORMMtSS+YM/kbHuLxoydp5qUGoqkpAyhSMoYrCk5pdnZyFDgxew0EsCPtFUS6SbklgKUlXaSSWFzqdzhmAZtYWsSxVc3s+ijcgaW0c6q8fIRKqkqWVTJl1TFFR7zeKeae1Ga1IaaSUgICQCxCS7u9n+MXGEYgqQoFPbS+h18/mIW8EriyZZGZtCA/5Te490NIolgBfVLSd5ynKTwfSLBqeDYjJnyhMkqIBIK0sygsAgpIGhNj4uNQ+Y7U4r9orpqrdXIHVI4Zn7RA45if0CO+HV0yi+0TyhaR1OiklIVNzDqdRxJ03PC7gUmyXAUpRJvflobO+YxKHjZOagMSokuzMSX8omdK+KfZ6AoSClU9XVsQQQhiVljxFvzRe7MzVhAAXl5AAexozTppxYzKlFOC/VJClHfmU5A7glj+aEGdnSL/Y6lzzk9gqbmw84oFmG7YqSHUspWrKN1kj2RIHp0/6tH6x/9oIRf4yn8UEdMMTsRlqMtUpPabQn3txiqpMssJCgL2KgL+PMGJk7aaUJCcqfvXYh+Rv3G0VtLTTZ4JVbtFVrNvaM0eqREyWsrGV3IAYgP894iPNlrTmWpbqUXJL3PfujsZqjYkONdxPA98d6PCOtlkZ+1d94f4QqRRT5CrF3K98dZqDJSHQCVaOX9xiyosPSlBK8ytWYtl42IIjngGDLnzcxSSjUA5XPmWMZVM2R2bXNUJhZne7+9outpMJp5VwVpmksEJIyrVxuHA4mGSbUyKWRmSAhSWcAXfcGFrwqYPIm107rVgOTbMWCEcBbzMUeKDCFGUuaWUqWlShY3UA4a+gaFSRhqlr7Km4qUW/zMPe12L9SkUklKRMUGUUhLpH9Q3mEyrUEkS8wJAc2GvB9YEXP/p0plP1ktVi/pAv4hn7uELv2hPMEcvlDZs3i+ZpM05hdjv0OUE70uO/TuipxCdKl1MxAQGLdq4KS2li17a74u4mat/tRmUsiWQ+QLSFfy5iw0/Cyfywt1VGEKN+zr3CGXDsq2z6pZwT6QfUc+Yig2wlgTkhGikuwLjU7+GsN/K4+4DXiTUoWCCnRQJYKTvBPke9IirxTETMnzJoftrUoPuBNh5MIiLkkQIp1KDhJI0drPweJbpJidKxIC+VzwBt8/CJFNUTZ6k51khAASH7KQLAAbrWiNJwxSJqEzUkJVv8AD6tFvR/dKDAdx8N47xFktLVlLw3rAQnUOHPojR/rlCcmjUVqTvTrGubHzadcpSSoJnAkqQq3ZJfMlW8PY7ww4h0LaBSZdZNSkWOVzaymfXgxETB42bEtE1PWLKQ9yAGA4x+gcBpwlAUiaFAjskAEH8wLGPzqUgG4fhwi+wvH58tIlyZikAlnzLyAEgKOR8rXJNuMayIvOmLG+smyqZKgQn7xbbzcIHgHLcxFVs5RpUsBZUWYMkge0g+6KHE63r5/XKcmYtS7/gcJlhu5J84cNjKCetTplgA3zLIA9pD+DxhWlYRSykJdFPLcgXUc3vDR+ftrMRTUVs+an0Sqzl7JASD3Fn8Y3bElKp6WYpc9DhCnZJZNmBfNq7R+cUC3fFoBrDnhKxLpJiusJOUsALe/4QnSASbB+UN2NrVKoQghCc5AZOV/FvnCBN608YI8QQ1W10nQRPSp1VUk9yVxfVHRTPKQlE+Ulg2i798azBEGF1PQjVrL/a5A/IuOlH0JVUskirlud4EwW4M/tjcIIupjGJ3Q7VWyVUoavmTMI98S8G6KquT6VTJVwZKg0a5BEVi+MdENbUTQs1kkBPopyrbx4xZ0fRpVSkkIqJIJSwsts3FmvGqwQGJSOheqSVrNXKVNU/aKV2flEai6CZ6ZgWuqlKALkZVh43aCAx2q6HJucTJU+UhWrZVFL8WiGnoSn5sxqJClEurMldzv0vfk0bdBAYrUdDdTm+5qZMpDDsNMXlO8hSu0POOVf0KVM3KTUyM49bLMuL7naNvghowf/QVVf4uR+hfziejoaqBKMo1MrK7pGVbAsztoY2mCLLiWaxpPRDVkALqZC9xdCmPAtx0uIJ/Q3OJtUSwm1iFFtN7a2F2jZYIfamRi6OhyqSQpFXKStJdKgldj9bo64n0Q1M6YqYqokdrdkVy+UbHBC3VY3TdDc1H99IPgu/I/OJdV0PAhQQtCQpOW5WcrkZiAd+UEeMazBEGJK6EpwmqWiplZSAEhSVOLJDuO4t4QxYH0cT5BdU+WruC40uCCYQtrdhp1XSKp0TZaCspdRCiGSoKZhzAjPz0CVP8AjJP6FxvsEFYLT9AtSkgmrlM92Qt4scb6F585KEIqZaUp1zBRJPgBG0wQGAf6Aan/ABkn9C4I3+CAIIIIAggggCCCCAIIIIAggggCCCCAIIIIAggggCCCCAIIIIAggggCCCCAIIIIAggggCCCCAIIIIAggggCCCCAIIIIAggggCCCCAIIIIAggggCCCCAIIIIAggggCCCCAIIIIAggggCCCCA/9k=;" vertex="1" parent="1">
          <mxGeometry x="1200" y="1060" width="250" height="250" as="geometry" />
        </mxCell>
        <mxCell id="F8rlqcTrgMaWFQeFcG7n-116" value="" style="shape=image;verticalLabelPosition=bottom;labelBackgroundColor=default;verticalAlign=top;aspect=fixed;imageAspect=0;image=data:image/jpeg,/9j/4AAQSkZJRgABAQAAAQABAAD/2wCEAAkGBxMTEhUSEhMWFhUVFxUYGBgYGRUYGBoYGBYXGBgYFx0YHiggGBolHRYYITEhJikrLi4uGB8zODMtNygtLisBCgoKDg0OGhAQGi0lHSUtLy0tLS0vLy0tLS0tLy0tLS0tLS0tLS0tLS0tLS0tLS0tLS0tLS0tLS0tLS0tLS0tLf/AABEIAMQBAQMBIgACEQEDEQH/xAAcAAABBQEBAQAAAAAAAAAAAAAFAAIDBAYBBwj/xABPEAACAQIEAwQGBAkICAYDAAABAhEAAwQSITEFQVETImFxBjKBkaGxFCNS0QczQmJyc8Hh8BUkU4KSorKzFjQ1Q5OjwtIXVGOD0/ElRHT/xAAZAQADAQEBAAAAAAAAAAAAAAAAAQIDBAX/xAAvEQACAgAEBAQGAQUAAAAAAAAAAQIRAxIhMUFRYfAEMoHREyJxkaHBFCRCseHx/9oADAMBAAIRAxEAPwDQAmpUYVCDTxQA40q5XJoA7XKVcJoA4a5SJrhqgOg1PhrrKcyGCKrCpENUmQzb8G42LsK+j/A/caM15zbNaLhPHohLx05N9/30ShxQKXM0lNdwBJMUP4hxm1aGrAk7AH4ms/e4s9xpOia97kDp3QOZ1++lGDY3JIP4nHzotAeJ45F0MMTpG48gPyz8POgXGeKuGGV8tvTzY9G+3+iNOvWrvDfR2/iTnu5rNs9fxzDy/wB2PD4HetHFRSdmabbBeJxfauloN3rjvbhdYNtbbEOR6vduKco5CK8/41h9Z8BXr3HuBWbfZWbS5O6zBgTmz/SMEuYtvmIMT0rzbi1ifcKmOtlPQz/B72VL9qT31VyI2KFgAfCGmepqtxxZsWxzNtp9l37jTkJW+68jacn2Lp8qnYJ2dkudM10NOgCgJpP9WduZrnxpKLi3z/TLirLOGtZbViBI7W2DGvdCC2fgD7qqWLP1bDSXKxEE6IZ8NRc0HjXG46i21VQSVFsjwYM7vJ/sDnzoRe4mxIyAIFbMsa6gIBvvARRtsK5cKGK5O1Sv8LU0ckuPALWgrhoBLQDqZGmwjYc48R40rnErYRlLL301y6/WL6rADYGQeWoas2zE700a7a1tPw2d3JkqdbBrEcfJkKDDW2QzpuxYER0zfCqGI4nccAEgBRAgcqhXCufyffpTnwZAkkeQ1JrTD8Phw8qJcm9ziYbtRcdrgBWCS0kmZ+MLVQ1cvWEW2xuasWAtwToRMkxpVM1UJZm+QNE2AxbWbqXU9ZGDDx6g+BEg+Br2bD4oXbSXFkC4qMAdwHAMH2GvEa9i9Hx/NsPPKzaj+wKslhKuhqjJrmagRPmpVDmpUDLStUiNVUNBKkHQ+ce6pbbg7GoTLLIrhrgNdpgcimk04mmE0AcJrhNcIrk1QhwqRKiVqczxTEWA8VQ4rxdbaknlyG/QUP4jxcLoN6zXF7x3ctLgBR+To0kk8zH8HlcWQwvY4szskrmLNlCgnckATGsSdYjzFaHADFYljatWzI3dgVtWwRI5a9coH7axvAG+vtbwCx9yk/s+Ve1WU7IC2oCjc5QVBJZiY3MSToOupq5yomMStwL0Yt2CCbnbYkQWuOBA11CqNE0Oka+MVp2cDc9T7BzrNXeL28Nma62qoT2YjOBoZKzCDT8o6xvWa4l6UPdt3WU9gCvcc5izrkN1o7pZwFB0tqYg7waxpy1NbSLPpl6SIEtYq0HuWVAz5DbZjad7T9pbEyDNtYLwKxvEDNA14hawV18NbGeziGuC4sqGS4BkXKinKFZhmBnVHX7NFuIOQSp0ILAjeCDBqkqJepmcZbi8zAwckexswPwoTfXlV30gxnZuI3cHWPsn9/Sn4C1cuMFQesA0nQKpEksQNhrr8zUuUVblouY6fAFfQ3PKPPT99Pt4JR6xJ220Htka/Cjl7hfeCK+ZmGZdgMg3uOZhQSNBqYgmJAqPF4W1agOXdjE5SEAk9GUk+3KT0GtZfyMNtKFsai+IMWynJBz31896dMbQPdzq19HX60atlykN0l7Y1ift+2NKethEzOdcjsqgk94gNE7baE+wc6fxV331HRQc1YxGDgAq0jSZGoJHx2PuHUUTtYPtbKC3rLDOdAQQHLEzpudIHSh3EHJbIpGRdoIIPU90n93vrKONnnljurtDqlYD4rwm4h7RygBbQAyTJ8BEx8qrGp+NowuwxfeQCO6AQJKGddulQGtMO61dikNr2Lgzfzax+qtf4BXj1ercJxSdjaTMMwt29J1HcG45aVoSwoXqNrtU7uJqhex+uVdW+A8W6eXOgQY+kUqB9pc+2P7J++lRYGtxdyLsERyPxg/x1FP0O9QYy/2hDZQGHQ6H2HxjnXVu1BoW1HQ/tp2tQ23HWpQ1MBE00mrWBthmM7KpOu0nQff7Ko8QxQVoCA9YJB8uYHuqkhDq5TUvoY1Kk8mB+az8hUl5Mq5jEdQQR8NqpIRG7jc1leN8f75tW2BYbidf4/dU/EeL5iUt69fDz9n8RXnX8oGzcZlhnOzNqAcxOeNiefTwqQNS+PSyC1xs7mSBpzOg8vj1oQ3FHvXAW2AMDpVThOHFwm5fzuxIITYMDrmduS67CJjerl6xlud31CubRSFVmZu4D0ABgaacqtMlhrg90i/YAMFriLPg75GHPcMR8jWoxf4Q790FbQKZQo7QQLjAEjM7D8WCPs7E+tyrBC/lZGEyhVu6QG0aZBgxqBrqKgxvFc2iKESPVBJHmZ0JPUADwFN6vYSdBnGcZNiYbPcZR3lZW3ZiQxkgOJ3g/kzQnEcUvXiTcukZjqEJBOrMJYkkwXeASYzECBpQsuzkKJJOgAknyAHyFbb0d9CnFo4jF2LigNIVpUlFXMxFsEXGMBjEbLoDTbS3Dch4Ri7FtALOGXPALMe9AXXux3svMyflNX+OXYvXh0u3R/zGrf3sDgLFlke7bUG057NAtsEZCTKrLkwTr8q8v47fBv3iCSDdumTodXJ1HKotWOgRxSz2ly33Q0Zt2CgSU1OozR0Hx2qewbisAWyAKJCgwBAGyadNyBtQ3ixJNsztcX/EPuq4MZlfu6m2xUzz7xg6R0Pu8aynBtv6d9PwUmHcbeZLVtbZl7izmbKWyIBlmNNRBHrac9Zoerq9sm7MkIO01LZWBhjm9aGGp0MA6maXFFuMe0BnTUZ87AhAGJ56xzAPzqD6FcQMLkLnQQpIDGCCoC7zKj+15xx4UIxgtVd+u/t6FttstphmttcCmdpIOxDW2M75fVMT8ajv44eq8OGdWEzOUqDoQwI9aNo331qGwzEq0jtEUAHWHQysEjYxpykRtE0Xs2UUOHuzlGhPddM0aB9Vf1j6wAnUZZmliTUHc1b6b997jSvYbcW2tp1ttDgsWQ5W5ZnRSqiSFgEAGB76A44BWAGwHxMyff8AIUZXCYdArJeYmycwUZJzFlgkqSPsg67LVHjbWywdF0aPIAzoB5hh4ZfHSfCyy4lK3d69f+bBLYzHHrj9qVZiVGVgOQzKKiip+OZSyMGUyi7Tm8JG0affUNehGuBmxkUYweOa3hGdDD9pE/DnzoTUbYluzNsRlnXQSdSZncctqpiJLvG8Q290+5R8hVZuIXj/AL1/LMwHuFQNTZooZL9Kufbf+0330qimlRQHuIxA50+1eB2NVb7ZQT0puHuBxMe+sbZdBZGqQNQ1BG1SC4etPMKgrh8WUDAQQxEzvpMQRtueRqncWWLH3aR79PlVftz0pj4irUkBesWc27KNeZC6/wBaKg9MuMphMOjWit1muBSMpICxJygFZJMCSdjWW4nxJrrjD2vWdgskMdTtoNTVf03ZbdpEU95TJBK7kSSIgAakCB+STuSo3jFuDlwRm3rRnuK8VZg0mM5kgRrOwMaAeHhrXOH4IOxLBSogagEiNeegGo138qrNilgqiEExmZoJiJgDaI5+fsVt9xOk5ivIwBv1rFPTUt76Bi5i0UfUqGCwMwGW2CfL1vZ7xtVXtSzZmaWjc9J0A6Cp7uHuOJYhEAOp0UAAQVUDbfWORk0Nwy5SZYMfzZI0PI853pQle4TVOkF+D4nLi7DQTlu2TA5xcUwJ0n2iiWK9HEN53uOFzs5CDUySWGiyY2GgoLwm4BibZO09CeR6b61s8I9i2O+VO+jGZ2y91QYgfaAq5NrYjQbgbduyA1i0wjQuC4JP/tnNGmxdfGjbLjsSMrEqgBIzN2SAAASFt94aNGrnmOtB8Z6aWUXKgkAzyUaCB9on+0tAcX6d3mP1ekbZRLD+s+Zx7DU7gbk8Bt2LTXC7XtNUsqqowIOaSBDmOrTJ5xXnPEb0uxBMEzrqYIB11NVcXj8Xe77hyN8zknnGmcydelNxt0M0qZBW3137Nc2/501SCht3vR9W1zKZCqGJ0BgnKJj+PCrF26/bP3Qo1JJUfb0gEbxry1iSKE8QchCQY/8Aoj9tXsbi8rwxnQE6QZIJ90EfGocM0tyrpGhwvErabgwNAVZAxPNoRSF66++ql7GYcQVD3CZJNwkEHMDqtuAddfWO21CrmIKxNuMxAE79OhrmDsXLphR6ubMZELEjXXroOVZPwuDh/Mp3z1pDU5PgXbvEBnzgGe7oAABl2iZ0nlULYxZaEgNlEZhoAQR6sdBVS1aLIXJAUA9PWEd0a6nWfnuJ6bXdD8iVHPnHh5+7xFWo4a/wFsspiyJ7q67yX20jY+AqrjsRmEHaIhQdRJMeGpJmpsbYCjODKsuYTAMjMCpk+Ag767GhmMvZWgaj2fsJog4PVA7JeK2Ua3buBirBAmUj1gGIkEbHnB5eVVKfxFzltHn9YJ/rA/tptVFVxBnKq82HgfgZq1VUCW3A9beeh6VTEXsLg7KLnxBaSAUtoRMdXMHKPDet5+C5FuNfZEACC1lXYSS253JMDUzXmDcvKvV/wJwRf1E5rQjwAY1MthM13Z3P6J/+I9KtV2dKqHn6L8+55pYv27ySjh1OkqZ16SOeoqWxYCiB+0/OsV6NX7iYO2bZIm+4aADplG8ggCfLzrW8DvvcsI9wyxzSYy7OwGkDkByFYPka5dLL4FcNOimtQIY1V8QYBPQGpmNVMe0W3PRGPuU0xGH4VxB7RV7TE3MqnMAGOqyw7w3I0PgI2MVzi4e4XRm7wuQxOpkBs89TMiQY0p+Ex9tYKKVcIqkqAubUsCZDQZCnrKLBG9RYh0YBSmhHlLE6sY30lR7Old0oxjha+a9jJO5dBhwRgtAGVRqdCQFgRzM5d9p0nlVHCZu2BVip1AI3nL/GlFr1u8bepORBEEwToDz1bTWdtD5UMwoKtnB5mPlXHCTd216FtUMOIZyO0Yk6HvctAJjkYA84qXDtqfZ+2uvYCaMNYB1IJgjSuLcBOhmK0RJd4R/rNqdu0SdOhE/wa0F/0Uzd5sR2Wdx3MjsRndgBqVUxlcmDoLZIkESA9HDOMs6f7xNxMwRp4itHZdmuBbjMFFtrj6nUfRcMCY596/cbxJrl8TjTi1GPKyoxszeNw1lXAtOzoRILLlYHXQgk9N9N6gB09o08Oenuqa/ibOot2cskES+eBGiiRr5zv7qigmNQAfHaCd66U9CCTHXJZsoIUhh6oUbmAANYjlM+NQI3dHlUTuJIBO0HlIMSDrr0pyHQUwOXVLDKBmJIAExJOke2YrU/6P3ldLlyyhJAgM9tUQhQQXJeXbTYaagzpFZ7AY5rNwXUClkkgMJGxB06xNEvSHtLllMUbozPlGUb6oWHkJDRPU7ZdebFjiTnlVKNb/60NE0lbGY3hLNcLvds6lTrdQkQZIEct4A9wp122uUWzdCIHZyVzMXZswzHKx1ysAN4g7yZC/Rrzaq1xx1VWImYjeqJQ82bx1HWOvWq+C6SctthZlwNRcFj6v60sttICZXEsTmYsSCBJ5AGeu1Nx+IsMqqGICqNEVVEgzozsSsEtrlJ73PnmThx9r3n91MawBuR7z/20Lw6VO3+PYM4f4lxIXTm0XuZYB0HrdCJnNr8jtQ+6Ecyzx4b8zzJPWqj4Mgd4EeYuDw+z1B91dXA9QYg8rg1ysRrHhMfmmrjCMVSFmsKnhoewHDfiy06SADlEsNCFzQMwmOYih9HfS3DqpRVVsouMMpEGMoMCBtAEHoB50BpxTTdsZyqo9b3/I1aqsN/f8jVPYRc4dhcM0G/iMg07qI7Nt9oiB8a1/DuO8PwsCyWU6Nmy3C0lYmTscpI0jQmqPo16BribRd75UggQqgiInmRrRy1+DSyCC9648abBR7dSfcRUSkvqGhJ/wCIFj+nue6591Kl/oAn2rP/AAH/APnpVOboFLmQehuHuHhyG2jPmxDhsoYkIIZyMoJmFj29YFHuOXzZstcRlIFxVBguIJA/J3PKetReiN+9Y4Hbv4cKzDE3g4YiDbIZTPeBPeybeHKa1vB+FP8AyfbfvF2Cs0byZzer49KqW79Ddx+RPT9+pmfR+89+0ztlkXHXugjRY0M8wSQfKrjYY1oOC4F+zPag5p5z0ExmkxM1YbAeFKjMyv0SqPGcLFi6elq4f7hrcDBDpQ70kwYGExBjaxe/y2p1oI8NuZrIs3CAVMMs65lynT5e0eFEuJYjtLiFQBFsSAAw11yyRrowBI5yB1Na3j1dLKE9xDkWBBObUyeZJBMxuT1qLjA7MrkZgDOpLKT4HQcxEbaVn5ppz82v2Hw02J8Rcud5Mx0Et1gsJknUjXb7qEZSS4nYGNTHuFFeJ3rma0md2zG4DmJYmCBGvLSoMGgjFEmCLYjUDe8inc6mDHt9+sVS2S+hLG8NNi2p7QqzHabaNAjkXeAZP2TtXcVibbtNvNGmYFlIzQFlQqKFEKojXbeqllASpIkyv9GTuNIO/lz2ohj7DC7cHZspDaqba2mXQQDaQkWv0ZqyRvB7wtYi1eaMqXEYxBaFYEiJkaDnRjjPHUui4FVszpaQE7AKlkNznU2jy2IrO2dXyaySfIafuo/wv0UvXra3g9hUY/l3cp01MkIwBiOu+1ZzwoykpPgNN7Gf7PWZqRVjma0x9DX2+kYbz7Ykf5YpY/0Oa1Ze99ItP2aliqkSYEwuuvuq7QqZn8Nw5rubIHYqMxCjO0CPVURJ9vKlicObZKNlkfZM+/o3UaQeQrljiTJbuooUi6oVpkkQZ0gjXfWuqWud4lJ23tW9Bp6sidBqffUJzzO9gpV1K7c6MljcsWrT+oEtuuwOY28u8SRB6xrQt7RG+XePWUmecgEkVouGWlYYZGGjW7I8ycoHxjXpVSll1BIiwV57ShbbMFWY9UxJJOpWdyaiwi5CMoJ5QxJVhrKMM3eUgkR40QsKp7LuHvm9dMhtRb7U9lv/AOjtv3t6bgUDCyQsziCrTOuiEKYOoidNDv4Vj/JS4d6+xeUH4zhNsOVCErClZLHusqss9/fKVnyqueH2/wCi/ut/30QxmL7Q6aDLbHMMCtlUYddCuntpli4BYDkTlupJMmQyOcpM6j6s6eIrSWJlElZUW2HVc4ZtB63aN838fjXWwyEa25HirHbzbxPvqxhmm05j1CjSJ0BLLlGsASy6eHhVq6gzXABAU2Lg3kK8ELqdB9Yum+lZ/HSdV3p7jysB8VJyBnZvxhg6kx2Z01bzoWKNcZufVWyDH1g1/wDbPhQatkSNiq6DX2N/hNWoqNE19jf4TTezHHc9J9CuP4S1YK3cQiGRvm+yOg8DRzFekmCZYXGW5ncPlIHtGvlXjT2CEXbUsdwTy3A29vWoTaqVER7b/L2B/wDOW/8AjfurteIdmaVGRDzM9l9HeP8AbpbJWzaRkutFx3KhldUUDKBuSJ0+UE3h7lw/ze46i6mKKFU0UolguQNPVzx41nvwR8Mt4lMPauglexxLaMymRftc1M8zWrs4Vfpd65Hf/lB1nX1ThXMe8VTVPvmJJ5rNfYtqVBURIqK5bpuDaFipbjUiyqVoV6T/AOp4n/8Anv8A+U1FnoVx8Thr462bo99tqUnoI8Nw2EFsWQFJCkOhMamCc3QwfkOlR4zFsjBwJMvo3ioJ5+J95qm9ybNtlZu9fOoJB1Z/3VYe2xzIXIZblxCREmAogyTOnTpUqFrVajbI+KNN2yPG5867w0M1y6iqWVlIcAZhAuKQTMgQwBkjl50y9hmLq5IOUn41NhwQt0KSO0MGdfVZoI26/AVqSXLdrDwFzWwRpthy23OFnlzqrxGwq5cmxzfkhdRAOwE0KfAODKsPLUURxbrmK21i2oXLpqxKjOzGJZi0joIAGgFAing/x6+Z+Veu/g+4YqcPw7PaGZldpjWGuOyz/VK15Jw4fzlP0xrX0P6JXsOMLYspi8Pea3ZtqclxCSwUTpmn4UgRT+jWVB7nPw3PnQn08wyfydiWVVBFtYOUD/eIDr5VvBgpAJUewVi/wuIbXDL0f7xrNsCOtwMY9iGlQzwrkPL3anSrFraqi9oBqnvVv2RV61qq6RoJ335nXahCk7OhoIJOkiZ23EzRDBcRtqbRYnIgQHKCSApXmAdQBt99DbyyImNtYJjXeBvTnUciSBoC28DbTl5UnFPQV0aPFYmyHRlYNlxFwMBsbWJ70LpsoLL5sarcMv27dq3mbvLeuOxHMWbLQR4FnAoCy1GVrD+L8uXM+7/bNPia3QUGTsWcEB17AbiCGsd72lkzT+ea6LqLhQxcS99BlkeratXMx999RQgimnpWzwm+PG+/UnMGOHvbNy7a7SFuWWVddM4y3EnxzLHj7aJcMvW3Ks9zu3cGFMkL9ZYvIJJYwDlQGT1NZULTh8pjwnf31lPw7ltLvuvsNTLfErwNpB+eD/cNQLcIEALrHrJbY6dCykjyG/OmnANoyBXzBjkmCMsgmJBJ1kRNdit4tPYVCa4TyX2JbB94UEeym4cDMJBI1GhA3EbkGukU1TBHmPnTewh+Ew7OSFEjnJgDpBgwfYfLo84JScq3UJ6T8NJ/ZUmIbLbW0OgLeJI1+M+wCqD2xUq5agWv5Mf833/upVThvtn3mlTqXMD2T8B51w/6nGD/AJ1o1pGvZL2J+0MarKOpNor/AIS3urLfgWuQMOT9jGf5ls1rsZkN9iB3vpNgtrzNu97joKqXf3KDmHMrNdZqrYW9yqRjWdjOs1CuPFvo94IJY27kDTU5TprpRBjVPGnukeBosD55wyzh7IGsX1j2sw/bS46sduCMp7dpEEQcgMQddIjWu8PDi2gykKt1e9yzC6ojz7xqniyWW8TJPbE+0h9aokPekBKPZA0DvdDba5Ske6aocPthsQ6sSFM7Ej8oSfEwaJek66YY/wDqv/eFs1QwA/nLD80/NabAN4rgzOcyX1cmBBQBjyHqAAbbkazQrG8Mv2SO2t5A8lDMhsujcgdCRy5itlw3ChuykR3l1Eg+tG41qj6dYcK6gM7EM4bOF0Pd2y8qSYMxeFuKuIRm2DqT5SJ2126UzHuWZu5mGZ4JknLmJBk6k+dS2LqreYOCUcZWiCwkqysskSQyqYnUAiRM1dXhx0y3bLqdj2qWzv8AZvFGB9nvpkkb2cTZBJw9+yCcwKBwus6AiBGo0k7edR4vij3lCXcRedAwOS7ce4oIESBMTq2v50ctbIwotQTfs25OuVmuH/kKwnzIogMFZukFr1y7A2FtRv8AnG4xH9mk2kGoEtYSzGjwYUgg5ZlSWXcmc0AHYiZA5WLrE5ZMwqidZ0EazuetO4lw+zbGY27hBMAjEW+fh9HkVzSEiYyJEmSBlEAmBPuFCArYnRST4fOpLCdoyIrID2VsQ5ygtKIADOrEtzgAKTNK/ZzgL9plGnnTUwCgbvMyCGAj4Gab6AWcHhCxIdCsXMPO/qM1wOfI5Rr4ab0RfgKqQMwnK0EkFe0a862Q2m2RO8PKgeNss7s+aC3IaARAA05QNvKkWvT/AKxd0IiSx/JIJ1bxiOh9lc84YrdqVdPQu4rQ1Vr0et3HOgA7a6ukiLdsOJgHcm1c/u1Sxfo3bX1nZNAW7pKL3Q3rE6iGBOvOgS4/FKCBe6nVVMkwCNQdxO+kSKJvxEHDstzK91rdyWVADnzFUHqiSVck9Ms7k1j/AFEJW3a712K+SXQFY+0lssA7NlJjuEZhmiQZggjvUziFrsnZGIJUkacxureREEedXeM3lFtBbCF1SwGYCZLJdLgTyUwJ6nyosvFTctI1yR3H7RQ5Iy2kTKCCZJfKBBkygnWt1iydOtO6JaM6uMcJbuI7AqXVeRWQSxUrG885plDjf7qIeRnXxAA90URrdJEnDUN3YjwqZjUE0wLeN1yvrDKvj3o1FVC1TYbGBQUcZkPLprPzkzuJPWuFMPP4146ZdZ84/ZURuOjAgzUqsxher+9v+ylV30YHqH4JnyYfD3DsPpf/AEn7q0uFdrj3ntI1yL9loSG9W28nQxqW6xrXLHHsAuFwyYNs1i0GTPkcElV6FQxJYyTG5NaT0OtkXMUDoS1ltdd7Sn9tKW9cikhYPAXAv1kKTyBzRr1Gnuq2MDIIkzBg9DyNX7tvx+VNVR5/H51FDKNjD22VWg6gGCSYkbEeFS/RliAsT00P313AiGuW+jZx+jdlp/4guj2CrQYdZ8tflVUI82436M3Etuosi7b7RXEFM+pgtDEAuuaeUxIgnTyDjXDGsdsHKsC+hEmIka6aHvDTw1r6ku2swKldD1I+ET+yvMfwn+hd17BuWENxgy5lUd4rIg5Z1IgCZ28qGxHmvHMUHt4ZR6wawxH6Vm21V8B/rhH5p+SGiv8AoxibVsXrlohciBiSS1t0TRLitoA2QZSRA0g7EicMYxo8V/6P3VQHofDdERuhn3MTQr00bOVeIljp7B4eFFuG/ix7fmaG+lSfVofz/wDpb7qjiDMC6g3wrNlUsktBbKJWWgatAkwN4o5xHhQRj2N23ftgAh7TBoBEwVnMCNesddKB4zS9/Z+QqbBjuj2fOrJFi0MD3+MQNfLxqrl1nnWxwfpI4trZvWrGItKFAW6gJUCYCMPVOsZiCaAYuxbZ2KKbaliVWcwUEyFk6mNp8KAoZjsQjWraqHDrPaFmLBjmEESxjSRECPHep09S3+rtf5a1VxqqLYA3zamrdn1E/V2/8taSVAQ4oDKSeQJ6zAJj+Nt6IcUwvY3mssQSuTUbd9Fcb+DCqWJ9RxrqjDTxHwFEvTcg4zEQBpkXTnFtV1kxOkchoPEl8RlTE4dkZ0cFWtqruDyVioVp2gl199VQQdQZA3jWruJ4u9xU7RUdkGUOwLErGzCSrH86J95qXDcbW2jBbKC4094QinRgAyhe8oDHukkGZPqgVnc0trYKipb4Xedc6W2ZdRIE7b6DWqjJBgjUUZ4fj7CoEKshcv2jqAYzIqAjUkNAJkAa5fGpcDdwiu926Qy3QQLWVmKEk6yAApGgEmWiToxiXitf2v3Ky9TP5aWWr+Kt2jbDI6hmd2ylvVQRCaE85gwDpz3It7pUxKt1ieg67QZE6g8q1UrJo7eXummUR4phAlqy4Jm7aFw7EAl4A20BHXnQ400AR9GsIt7F4e04lLl1FYdVJ1Fet3Pwa8PO9o+x7o+T15Z6E/7Qwv65fhJr30tWb8wjHP8Agw4fyR/+Jd/a1V3/AAVYE7doP67ftNbjNXC1UBg//CjB/auf26VbrNSp0FmF9DeDqclm2Mqduxj1oBCsR3pkcuteoYbCXEvvcBQI4AZQGdu4AiEFTpoNZFY/8HFsG8Z1hnP/AC1H7a9MO1ElRaBl0E8ifMhR8JPwpq2j1jyGvvaZ91WbtRgVIwXxG2LeIw9wyVctYcEysuM9pyDpo1soI/pqMRQ/0iwTXcNdRI7QLntk7C7bIuWifAOi13h3F0v2bd60GYXEVwFG2ZQcpJhQwmIJmqQFyKTuAJJAHU6D41CVuNuQg/N7ze9hlHllPnTreGUHNEsPymlm9hOw8BAoAGcc4ecQjC0pDlcuZu7bYAyFcESwmYIHM6wSD81oIxtkEgEsqeAzEpPkJmvq8VgOLfgvtPijibV65aDam2kBc0zOm6zrloJZguFcSBWUIZfkeY8D4U/0juq1lSDs405+q1bLj/oIpJu2FW3iSNRLLbuwN9NA352UnruDXn3HAyDs7qm3cBBKNvzBjkfZ1B1BBIBkMf8AjgPAH4H7qtnBoLYe3eQNnZTaliywWgkEeqQoMiRLAVUx5+vX9Ef9VTYfL2txW7twO4KmNIbbz3GnSmIebrL66xtqNRUiuDsatosAA+HxNNv8PtlZXMtzNyjJlj35p5REH3ggXxH1Pb+w1ewf4tP0F+QqjjrDqset0geBmaJYf1F/RX/CKAI71vNA6so97qvLferHHkb6Vic0yL10TLa5XYA66wYpYUTesr1vWB771v3ef307i+I/nOJOVWzYq9vmGhuvsVIOzfAUuIyiUhVLAqWmCR3SB62Ux3iDGoqtiSVjYyY0OvLlvzHKPjRX6W9vMuUdmxnsrgzoTGjAPBDR+UpDRAmh+aNoA2O+uhHP28/lQIT2oMEQRoQRqDzB2g017ZEeIkakSJIkdRII9hpwRdNNo+G21M7dhpm9hgz7DNMZHdvHuoTtMDu8zJ8TUTgyDG3X+IqV8pIZh6pGglc0tOp+Gkb0r0w23gd/GgAjx/G5uxTTu4awpCzlBJZiu0AjwMCCORoZR70qw627iWkACphsKMvtdifOWn+saB0lsAW9Cf8AaGF/Wj/C1e7F68K9CR/+Qwo63R/havdr2BaO6+viPhIOnnFS/MI5mprPSSyxGjDTQgggg9Dvr+47GmXMNcj8n3n7hTTAXaiuVV+jX/sj3j76VVYFz0HwYTE3guylgJ3gJaEmOu/trb3Xisn6NSLt5pUM73CM2/fusRA5nKq6SOVaM4LNrcYt4bL5ZRuPBpqXqkWVrmJEwDJ6KCxH6Uer7YrgFw7AIPzu83uUwPPMavBABAAAHIaCm0UMrrg1/LJf9OCP7IAWfGKF+jDZDiMKf/17zZP1N7663HQLme2P1VHRWe4gex4jh7uy4q2+Gb9Zbm9Y+Hbj2imIPFa5FPNMoGKug1VxWMVCF1ZyJCLqxHXoq8szEDxqH6M1z8cRl/olJyn9Y2hueWi6wQ29MQ+9ie1lLSh9fxhJFtCNNGGrsNdF6EErWK/CvwzLgWuXFD3LbWgl4AAgPdRXVvsSPYSBsdD6CkCANANAPChfpdwf6Zg7uGDZS+Uht4KOrj2Sse2kwZ8r8WaLit0X5E1Z4xZU3r0qQe1uy0hhOc/miACDrzEbUUxPo1iDifo/Ys1xT6oHdYKxDGWIGXSNfLStNxf0He6GxGDYM09+w3dMxrkkDK35rAbzPKhNE0ef2cVdt799NNd9D478/hRKzjRMGUb7LiD7J8jtUVqzkZ0ZcjgMGVwQVIE6qYynTpsafjLVq8LUWuz70QrEoxYJqk+qDvE7k0wJcS+ntHzFPs+qvkPlVHiGHayCpLQVBUkSIIBBBE6ET+7YX12HkKBFnhNrNisMvXEYfw2uAn4Kfj4VRxwLu53m4TqSdJ03OukUS9H0JxuGymD2qwSJAhbjajpKj90UJQyuh3pDLdniFxRAYxEQ2oiZ56xP7etJsTabR7Kjc9wlACdjA3jUROx8Napu8iNtJHv1nffw2qu85wBrIJ05RMzPMAePKikASOFw7CFuOhJmXUN8U2/jWrfCjiLGZsPctOXABVhbugrBYh1cMBEcjy36iRrtH8eVIr/G9FAEOLW5cubCAsqSlm21tFYIucKLTEAyfIzOkxQTE3QNQNMskMcwnUENKqR1j41c+kPtnaOmY/I+Q9w6VQxbZmOdj6pkxJEzJ8aEgNF6avOJaY/F4aR0+r3HvI91ADRz00/1q54DD+Y+qHwMfCglNbAFvQf/AGjhf1nyRzX0ETXz76E/7Qwv6w/4Gr6CG1Q/N31EV71szmXRtvAj7LeHQ7ieYJBVq7PUEbg7g+P37HlUxqC/ZnVTDDY/sbqvh7oOtUBJNKqX09v/AC97+599KihhLhno4Uv9vcYsRooOm2xIG209TzjUHQm4anIqJlpIsiJpV00wmmA6az3p5aY4K5dTW5himJTrmsMLhHtVWX+tWgFDb+N7TNbsqLm6u5P1S/ksCR67DXuL0hiu9AFtMdbNpb2YC26qwYnQhwCvmTIjrVcvdu+rNpPtEfWN+iraWx4sCdxlGhoJ+DvDAYVUcl7mFuXsNLfk9jcZFyDZJTKZ3IIknStVTYith8MtsEKInUmSWY9WY6sfEmn080wigZ3NTg1R0poEQ9kgBZoBGaWMDmTr57+2h93gy3D2utu6dmG+Qeqjg6MI1KnYsYg60VKgkEgSNtBPsrualQHnvpDwq3ehcZZC3R3bd5NATtlVz/lv/VzRNYLino5dwNrtBb+kWxczBlJUWwoBzMIJUFuWq6b7CvauJ21vs2GIm2QO300yt6tqeTON41CxtmU0BxXCr+CX+bBsTYUkm0zTfRTECyzfjFXK3cY5oIAOkUhNHlvG7WHTAO+HvznNp+xuznAzZYtHYoAYI1jfTQUGBr0zG+i+A4jaLYd+zh5cIIKtPeVrbR2TnmCNxMGvLEenQBj0Vb+f4fwdj7rN40CvdrmY5F9ZgUHdyspIIXUiAQedFPR14xds9Fvn3Ye7HzpYzDOWe5Eh3d9OWd2aDz0mKaEC1xaMYaUPRh/9VKs6agjy/ifbXLqqRDAHzqqcLl9RivhuPjQDdsthANRodfjvTbbnTT76jvG9aIF60wkBhoR3WEq0HkRrNK3iEfmPkaQErKc4E90rJLciAZGk8wQD5TGtU8UQVaPzh8DVzNHjExMyJBHt9Y71XuidNBOmu2umtNAHvTNf51cPW3hzp4pHu7vwoCaP+l2t6239JhLDeBgmR7o/g0ANC2XfAAv6ET/KOFjftD/lvXu30hxo9sn862Qw9oMMPIA+deF+g/8AtHC/rG/y3r3rNU8RDGvnlbc+WQf42Wmm452QD9JgP8AaphXVFMCvNz7Kf22/+OlVvLSp2BqajuVylUlkLU2lSpjAV26b+LvYZyRatW7T5VOXObhaRcO5UZfVBAMkNmFGkQKAqgAAAAAAAAbAAbCu0qXEEZ70ZGXGcSQer29i5/WuYa3mPtyitIa5Sp8vohIa1RmlSoGcrlKlTA5NQ4y8Utu43RHYTtKqSJ8NK5SoER8JsBbKDVi4DuTuzOAWY+ZPLQCAIAAp1hyZnoB7nce/Su0qlAA/TDhlpVbFKgW93FZhoXVmCw5GpiZB0IjeJB+fa5SqkIt+jzH6YomPqcR8bFytBa5VylTjuIixODR9SIPUaGs7cEEilSoYFriGNuXezNxixW2qAmJygtAnnudTQ+7h1bce3Y12lSAG3LzIxUMYHXWrlu4WWTSpU1sAf4+fqeHtzOGdT5KVighpUqXBCNn+CfCq2Ju3GEtaQZPAuSGPnAjyY164lKlU8QJgKetKlVDH12lSoA//2Q==;" vertex="1" parent="1">
          <mxGeometry x="-500" y="1110" width="541.54" height="413" as="geometry" />
        </mxCell>
        <mxCell id="F8rlqcTrgMaWFQeFcG7n-118" style="edgeStyle=orthogonalEdgeStyle;rounded=0;orthogonalLoop=1;jettySize=auto;html=1;entryX=1;entryY=0.25;entryDx=0;entryDy=0;" edge="1" parent="1" source="F8rlqcTrgMaWFQeFcG7n-117" target="F8rlqcTrgMaWFQeFcG7n-116">
          <mxGeometry relative="1" as="geometry" />
        </mxCell>
        <mxCell id="F8rlqcTrgMaWFQeFcG7n-117" value="&lt;span style=&quot;font-size: 27px;&quot;&gt;IT CLOUD&lt;/span&gt;" style="whiteSpace=wrap;html=1;fillColor=#dae8fc;strokeColor=#6c8ebf;rounded=0;gradientColor=#7ea6e0;" vertex="1" parent="1">
          <mxGeometry x="167" y="1110" width="303" height="50" as="geometry" />
        </mxCell>
        <mxCell id="F8rlqcTrgMaWFQeFcG7n-120" style="edgeStyle=orthogonalEdgeStyle;rounded=0;orthogonalLoop=1;jettySize=auto;html=1;" edge="1" parent="1" source="F8rlqcTrgMaWFQeFcG7n-119" target="F8rlqcTrgMaWFQeFcG7n-116">
          <mxGeometry relative="1" as="geometry" />
        </mxCell>
        <mxCell id="F8rlqcTrgMaWFQeFcG7n-119" value="&lt;span style=&quot;font-size: 27px;&quot;&gt;TELECOM---Teclco cloud&amp;nbsp;&lt;/span&gt;" style="whiteSpace=wrap;html=1;fillColor=#dae8fc;strokeColor=#6c8ebf;rounded=0;gradientColor=#7ea6e0;" vertex="1" parent="1">
          <mxGeometry x="135" y="1310" width="420" height="50" as="geometry" />
        </mxCell>
        <mxCell id="F8rlqcTrgMaWFQeFcG7n-122" style="edgeStyle=orthogonalEdgeStyle;rounded=0;orthogonalLoop=1;jettySize=auto;html=1;" edge="1" parent="1" source="F8rlqcTrgMaWFQeFcG7n-121">
          <mxGeometry relative="1" as="geometry">
            <mxPoint x="60" y="1440" as="targetPoint" />
          </mxGeometry>
        </mxCell>
        <mxCell id="F8rlqcTrgMaWFQeFcG7n-121" value="" style="shape=image;verticalLabelPosition=bottom;labelBackgroundColor=default;verticalAlign=top;aspect=fixed;imageAspect=0;image=data:image/jpeg,/9j/4AAQSkZJRgABAQAAAQABAAD/2wCEAAkGBxISEhITExMWFRUVFRgYFhYVFRUVFxUVGBUWFhUVFxUYHSggGBolGxUVITEhJSkrLi4uFx8zODMtNygtLisBCgoKDg0OGhAQGi0dHyUtLS0tLS0tLS0tLS0tLS0tLS0tLS0tLS0tLS0tLS0tLS0tLS0tLS0tLS0tLS0tLS0tLf/AABEIALcBEwMBIgACEQEDEQH/xAAcAAABBQEBAQAAAAAAAAAAAAAFAAMEBgcCAQj/xABHEAABAwIDBQUFBQQIBAcAAAABAAIDBBEFEiEGMUFRYSJxgZGhEzJCscEHFFJi8HKC0eEVIzNDkrLC0hZUovEXJFNjc5Pi/8QAGQEAAwEBAQAAAAAAAAAAAAAAAAECAwQF/8QAJREBAQACAgIBBAIDAAAAAAAAAAECESExAxJBBBMiUXGRBTJh/9oADAMBAAIRAxEAPwDW55WRNL5CGtHNDfZPqjmlBZD8MR0L/wA0vIfk8+Qcgo3SPEs+8asj3tj6n8T+vDh1JgLTonjW2XYCTWqpbZ7aspQYobPn48Wx9TzPRAENqtqYaFmtnykdmMH1dyCyCurp62UvkJc4nQcAPwtHAJrJJO8vkJc5xuSdSVZsHAg1DQXczw7k+htIwnZz2TQ94GbkeH81PkhTM2MOdqWpoYnr7vqou72nZx9Ou/ZtA3eqjT4jpuHmoP8ASJJ3eqNDYFtC7NUOA4Bo+qmYdHd/kELc7PM483lHsAZd46u+q1x+FKXt9NmrpB+ANb5Nv9UAsiG0MntKuodzkd6G30UPKovYN2SsnMq9skDdkrLuy9DL6AXJ3AakoBsNXpCsmHbP6Ayb+XAdOpRUYTEBo3xyiyqY2puSiWTUyvcmBRu3sHkW/JC8S2W0JjOvIm4P1Cdwo9oqoC9AXToyCQRYjeDwXbGqFOWsTrY06yNS4aYncErSRGM4J9kKIw4VrmJ4bkRgpgPdbdTcgDxULjwt3qU3D2D3jfpwRyLDnu6BTIcHA4XPVRcgBRxm1mt08h5cU6KAn3j4DcrE3D+icGH9EthX46IDcE593R8YeuvuHRHI2rb2AGySg4/W+zqJGcsv+VpSV+tN9GgLoBeOcGgucQABck6ABZhtptu6bNBSkiPc6QaF/RvJvXitZNgR2126yZqelN3bnyjc3mG8z14LO2Rb3PN+JvxPXmU7S0nE+ZT80DTxVdFajtrwN2ikNrvzKP8Ac4x8XyRKh2dmmF443ubztYeBO9Le0ohrepXH3z8yN0uwdTI8ty5bby4gD0vdF2fZXMP71l/H52S4JSpZyeKZY/XetIi+yu47dRbo1l/W6bxf7OIaennmEzi6ONzhcAAkC6Nw9VnNC3W/QlWfZ4ZRmPwtc70VepGaO7gFeNksGFRniJLWujIcW2uAdNL6X1C06Wx6WK7nOvvJPmbrn2PVbYfsWo/+YqPOP/YuT9itH/zFR5x/7FluFyxT2PVeGHqtpP2KUvCpn84/9ihVf2KC39VVvvw9oxrv8tkrlByyeno3Pdlbv9AOJJ4BE6eSOnuWtzu3Z3aDuY0a+O9E6rCjSe0ic4Oc1xD3tvY5SRYX4DXxTeEYcJO27w6BGWUxm14Ye1MQY6b3fCSObXG/kdFYKKtZI28Zvbe0izh3j67lIZg0ZG5CqrAZGH2kNwRxH61CnHz35aZfT8cCXtGnfceoTboxwKhQ4o09mYCN/P4T4/D4qQ7IfdcCfykOv5Lpmcs25rhZdAW0WEZwXtHbH/UOR6quQU97K/l4dmYdHjeD6HuKCRYV/XEDcTceKjOTW4c44qJSUY5XRqkwt7tzbK14Ns+0AGys1LhTRwWGrRtR6XZ0neEYp8CA4K2/dmtBJsABck6AAbyVnGP7evc50dG0NaNPbOF3O6sadAOpv3I9CHquOGnbmmkZGPzOAv3DefBVrEduqSPSJj5jzt7Nvm7X0VbrKFzmyTSuc94BJc8knuueHRVprVUwiou8H2i9oZ6UZeOWS7gOl22PotCwp8VRE2WFwcxw0PEHi0jgRxCwYhXb7I8WMdWaYnsTtJA5SsGYEd7A4HubyT9YLGm/cuiRokY9kvHR21RpL562rfmrKg/+44f4ez9ElGqwZJJH/je53m4lJUtpu2G176xxiiu2AHduL+runRAoIbC/68EUwfZuWQZstm83aX7hyRD/AISmcbZwPDcqtkTarjiCV1IywAG86BWuq2PaI7NJz/iPNc0uyLiWFz/d10Up2k4bgkMLGOcwPdoTfj0Vyh2lp2sFhlsPdAQKfDXW1cof9GdVVuKJuDuE7TAySGTshx7PQciic+0sYIDe1rqdwAVMjoDzKlNpbcUt4/I3lOIvbMQjLc2YW71VdusdY6hqGt3uLWDrmcL28AVFioroDt5Hkihb+J5PgGn+IRjMfhcyytVanZ2W9XfJaZ9nTLGQ/l+oWbUwu5g5AlXXDal0TG5SRmBvbvV2b2u3UaLLWMabEi/JKKtY42BF1nctYSbm9+abirnMdmbcH5qftfqo+400yjmk2QLNKvaOR3ZzW7t6mUW1Ba0A624qL4s1fcik7Y4DV53j2MhzSkZg0lrsz9CHbtb+qZoaiKn7MzgwjSx3gjhZW7aPaAhkcjjZokYbfvDUqnVcRhlkayISSFziXvAPxG93Hd3deCjyzr2beHLe9LRQVEUgBYQ4cwoOMyyg5WubE3i4tzE9w3Idg8cglDtBe9w33enij1dRtm0f87f91hvTrk3FVdTUbiPaVRc88w0C/HQao9RYc2NgyFpHMAeG7en6XCG5iA1upuSGtu496MvpQ1uUiyLdp9fXtmmOseKtgaDmeAGHmeI9FY6LCnNkD3EHQZrbgeIB46rrGYbOYbdpjwQeQPZPoUXDi2NjXb2jQji0ncet1czupGd8eN3Viw+EZQiTI0FhxSKNvad4DUqu7R/aR9292Bx5F5yg/VdGnFtL+1LFfZU4habOmNj/APGN/mbDzWZ4bT3RDafFpKuVj5AGuEbbtBuGkjMRfxTuEw6jRB/B3aCHJRSHnYeqojG6H9cFpW3EdsPP7bPms4YNCnTx6RypuztX7GspZPwzR3/ZLg13/SSobkxONDbfZJT6mChY7P7OmqJPwRSO8mFM4ZiIkjjff3mNd5tB+qF/aFWZMOqT+JoZ/icB8rp6ZysWpR2G6JJ6GA5R3JJNW+4Thk8oDicjOGmpHQcAvZpgwlo4K3u3KjVcZLyev1USMsuCrZxlAva5SpZiTa6H4pASW9EsJZbMb3SmUlIc9nfinGUwUD71ZPRTEpTm7NNZTDgFy+guuYpTuupbZVpPUaR4og0qi/aTPeeJn4Yyf8Tv/wAq/wCpWX7aTZ66T8uVvk2/+pViMe0Ogb2+4ALRcPoA5jb8AAqBgkd3d7loVJWBosnbppTzsKbZR34QFMOICy5ZWgpSo0FSYECdy8/4eRyOqC7NUE9lpmn2jw5GRxD4nAeA1+iOy0rHgPPxDNr14qtbbVPtq1jRujaSe8n+Sk0dc6WEsb70f9Wf2dXMPlmH7qx83Lf6a6qQ/EY4nHQ2Iyiw36gl1+FreqkPxBsjh7JrTprck28Bv9PFV99S4SMjMbi55ytuQG34a+itOHYDI3VzoohqOx2nXG4XOmu+6xjr25fT6Xbdrx8Q0ueo4rykxN8hdG/3mcRuI+ncmcTwqnkOUOlkN/eLiG233t6aW3J2np2xdlu4NDeptvJPNFFRsVj4qI7FmyEQRNIcBd7iLC2u7mSb6qViUwdYIbg72h0rnECzRqdNMzr6+IV+OS5TbDyZWY3Sz4HhjfeIueZVO+0ynD66lgG5xbfuLhf0utGwBzXMa5pBaRcEbiqPtqwHF6e/CJ5HeI5Leq6rXFIrDznlc7m4nwurFhEGqA0ze0rRhB1UxVSdtqa+HS24ZXeTgspiGjv1wWz41I00z2u3OFj4rGXdhzmHgbd9v5W80t8qxRnpmRPPKZeUKbJsXVXpaccomDyYAmPtRqv/ACkbPxzNHgAT/BC9ian+qjHJrfkE39pVRd1KzkHvPoB8irvTOT8g7D6a8bf1xKSmUgsxo5AJImLTb6GlOh7lU3N1VqqD2T3II8NWUm05K3idcxr3DiBvXNDK0jvT0uEe1c8ncSp9PgrWAdFVxrJDmAsm4ZjyR37iLLmPDQouNk7X8oMZTzHkIm2iAXv3UKJhf2ozTyXWO4pP7SpnfzkfbuBIHoAthrnCOOR/BrHHyCxKO9iTvPzK6MRFh2ai1Z5q5tp1WdmmWN+TVahUBZeWW600lkefd0vu69NSF02oCx1ke4b+7roQ2BPRPtmCj4xVhkL3cgfkqxl2V1pl8js9TUP4A5R4fzumsBrRHI9zjZrjZx5a6O8DY911xROtA953uJPnqoGa0RPNa97TONLnLIHu1AuNSDrqNxHzunYI3u04crkjToqRgm0Ps3NZLcsGgcNXNHIjiBw4jruVrOPRxi7iLEXY4ahw5ghc9xsdeHllWA6AXNz+twQqrrmi9zuQCs2vL25WNseZ/goFLmeRmJNzxTnjuVLLySLVh1OZjc6A7u5RNqdm/YBr82ZpO48CePVHaCPI1oG8pnb2rtExh3kj0C18c1kM8fw2Y+z3F8rjTvO+7o+/e5v180I+1SUxVlNMODfOx1HkSu9nMCkleyU5o2NIcDuc4g3GW/DTf5KV9qGHyTQskazN7K5dbU5TvNuSnL6rxe/p7cuX7WWvbXCnMxVm9SqfapjOCpBfyXPtFqWlvxja50rco0CrU0rnm+t0bxPARDh1JV5nZ6hzrt0ygB0gFtL7msP7yrguUhNPS4hORQuebAeKs+HugZhk4cWe3lnaGt0MgiaWOJ5tF43f4hzQqOcN4X9FQWvZYWIHCwUXbCT2laG/gja3xcb/AFQQY1M3+zIYegBPrdS6ZxkqXucS45gCTvOVu9Ma5WEJJt0iS1JvGKT2aQFWvvzRn7WoH61UraWq/ux7x39B/EqsSTxsIaTqe+3muSZ2DKbEKTGRdrQdSj7JyVTG0zWytebi2+31Cs1NJcXBuFVytiZwIB5UiMIY2fVS2TqYracXLlp1THtF5mT9zQdtpwyinPNuX/EQ36rIYhuHNy0H7SKq1Oxn45B5AE/MBUGlHab5rbG7xEW3A2dl3UgIqIlCwOPsDqSjTGLSIz7RPYLoQlTQxLIhKK2MoDt9UllMW31fZvmbK1NYqJt9LnqIIhwJcfDQfNTlxDivYiMkDW9EJrHWjARTaJ2rWoXVgEtaeR0GlzbdfgsY1vYGQ4u7I7zwHeVdtnnQSUEkUxAMUt4z8WV4BIA/azFBjCwMbmsBoS0XOnHXu4onTUwtuFuHLvV/b3wPbRp0Lb/1bMreZ3lS6KI52gc15LIG8UW2TjEjnP4DQfVVZMMeBN5ZLZg9EXOaeSZxPCWy1AfL2gwdmMbiebv4I7gm9VXb3FzG50MdwXC7nDQ2NwGtPM21PAd68/zYeXPH18d1b8/8dlyxl/L4EZMYpo3FrpGNPEZwSO8DcotRtPSA++T+zHKR5htlmUs+XS9vys083JkVzgdG+ZcfqssP8R453lb/AEzv1WV6gptZhmGPc2WKZzMzryMjic644kMNgx3p0VLMUdzkEjtTvAGnC4bfXxVkfW5h2meI3qThu01RTtdHHK4RkGwsCYz+Jlxp3bui9Dx+H0x9d2/y58s93egvEcTq54aendC72cDbRNbDJcjK1uYk3ze7v3XJUWDB6t3u00//ANMgHmRZXtu0VTf2pl9o4sDQXNZ7oc5wsGtA3vOvdyUTE9qql8UkbywtkFv7NtwCCDlPA6796vSZVXGzlbmY37u/M8OLQcoJDQ0uOp0sHs3/AIgp8Gw2IO/uQ39qSP8A0koM+pc12ZrnMcNxY9zCN27KRbcPJH8J+0Ktp2NZdkoF9Zs73m5vYvz3PikfJ/8A8PKuNrpZXQtbGC9wzPJIbqR7lr6c0P2ebcudzufM2+iuuKbcw1eGVJaDHMGta+Mm/vmxcx3xN0dyPMC4VTwWPLGT3DyH8052IItoJH9po0N/Q2+iS0PZihaKWHMNS3Mf3iXfVJPZk0ZpRmu7M8Hvu7eUP2iiY978h1B1HXoi+KtENRM4DK2MEhvC5ADbdCTdU2Sc5s3G9z15rm1qIolhlUSBG7U/CTxH4T15eXJFIgW+64i/L+Cqjqi+o0+hRGLFi5ov7w0J+R8UaEEI8VmYTmDX2NtdD6IrQ7QxucGuBYTz1b5oC05gkabjyVTpPS7PrY2+88fP0CZhxqJxs3MeuXT1Vfp2N0XdTWtZ2W2ueS0x8UouQV9o9WHvha03AaT5kAfIquUI7R6BPbQzZpz0sPS/1XGHDf1K1k1NNMV8waO0bO79fJFWtVWi2tporRuz3bYEhoIvbXjf0R/DcXgn/spGuPEbnDvadVUZ5dpoC9yqLiGIxQNzyvDGk2F+J5AbyUPpdraOR2US2JNhma5oPiRZBDW4E8gswnk9tWzP4M7I8N/qVoeOVQip5Hng0n0WR4kTFTwlry2aZ7nOAO5p7V/VRnzNKx7cYy+8vcmv6OdK8APjYeGd4B8hdQfbOkcC47v1dOwi5L7XDdG/tc/Df4hZ3G61K0lm+UGpqDmIbrYkdNNFOw2teGhj9Le7pqR+Hw+S6jpGt1dp0XpiY86HdvH8lpylNpcMmn90eavmzeF+whDXG7uJ6pbO5BE0NHBEXvPJc+fkt4deHjk5TaCpyFANv8FfKwzx+8BrzLeNuqlB7r7lYKN5MRujx58jyY8bYO6G28WTsGUC53rSRNC4lskTTrbcFxVbMUzxcNyX4hehPH6uG5bZlLJqoz33VqxzY+aPtRj2jeQ3jwVPqgWkgix5HQrPOWHBfDpexlPwm3hwTGIzWXlM61+p+gQ+qlzE96yqoju1XDmp0ptySjlKy9+paPDefkrfSxEsYwb3kAd7jYfNVjD2XLR3nxOg+qv2zNNnq4W8GXef3Rp62ThNKhiyta0bgAB3AWSU6CG7QkpNG2xo5Jy1jB2RqTe1zwCqsmyVQdwb5/yWjmRL2izK4ys4fsdUGwAYBx1P8E7DsXMPw8jv3eS0ISJOnA3oHrFMpdlpm2uW6d69xCk9g27yETxvapkIIb2ncv4lUKvxiWpdmedBuA0srxwtRbJ0cmryScqagJLxffv7gFxGANdw4qOMQHby8AdV0cSMwmtlvI49SptBoG+aEE3JRNxs09GpTuNvhX53l0sh5k+a4pq18TzKw2dG8OHhvHcvGbg74hoetkxT9r2gPFTSWPbXaAVklMWAhjGFxB/GTr8ggdOSWuKbpjdsfcR6hTmR2COwfh2gmMBpnOzMJ7IcdWi9ywHl0Q7Eah0ktz8LLWHAu3AeF04YQRqlGb66E80gYy5Rbjx/gilIzK1o47z3nX9dygGPUX3ce4alcUk5Li4nf/NEMWdCN6Fyubm0bZwPvAkaLues0I3E6D+K9oIM7tdw1PXp4ooabgGRsLLclPE4QnZ9zPZ6nVFWlq5Mpqu7G7hqaptwRbCKjMxwtwQuTLdGaAtETiBwSnYy/wBVS2fa18lQ12uWRw9b/VWLI0Cyq+xJLpatx4yuVqyL0ccrZHDnjJlTIaW7tyA7U7PwzsMhaAQNSBw5qxpZBqDuOhC0lRphlfC6B5jdvA0PMH3SO9Dir3t5geUFw/u9W9YydR+6fRUNc+c1V4vCm3LsrhQoX2eju+/IfL+a0v7Paa75pf2Yx/md/pVAwKPLG53M+gWv7DUOSniBGr7yO/e1HpZP4C3RMsAknLJJEg5X816I3c1w+cDU6Kv41tUyIEN1KzFsgzX1YiaS5481SMZ2se+7WHTmguIYrJObuJA5frcojW+AWuOH7RbtPicX79SpDcNk9m6WMGQN0exmr2/u7yORF1Bw7PI60Y04uO5WHD62KjkBLr5rNkPQnRx7ifK6u5caiPlRp8Se8kX03ciO8J2IZYz1WpYzsvTVRzPZZ/8A6kZyuPedzvEFUfa3AWUYYGSOdmvo4C4t1G/yUTPa/XlXINXeKm1slmnyUOgGoT+IxyezMjY3Oa09pzWkhveRuVy8qs4CJuyHd6jw6PB4O0XUkpeFyxvM6C3/AHSJ7RkgO/K704qVLNuA4/JM0/ZaepJUaYHhdAES8WsmaeP9eJUaOrFtd6UEt728uPkls0ismytIvqR6bv13Limjs1puo9RJmzD8wbfW+lha/mVzisuRuUH3hqOnP6JbBiWtzPvwGg7ufirBhoIZrvOv8PRAMJoc7g5w7I9f5KwiTpb9b0YiimDzH2rRms0laDG6Ow1WWwv13qU/FZGjR6nPx+3Ma+PyTGarR5C1SauvZFTPJNtD8tFl8WLz3vmTzaqSVwzuLgDoOCnHw3a8vNjpYdiI3QsJf7zyXHxVsFSwj3gq/hdra705VtC69a6c+99jhe08QkCgAjFt581zSF+Ydo2HPighPGKZszCN9gfEEWI8lh2IUxikfGfhcR4cPSy28ThtzfTisf2sqmS1Ur4/dJAvzIABKnydCdgzkomFxAHErxyLbP0t3Zzub8+CyUsOG0Gd8NOOJAPdvefK62rCorbtw0Hcs82Aw/M6SoI/Iz/WfkPNadSR5WgIoPpJJJBk2NbUvku1h05qvZiTcm5TbyANTYKHPijQLN3q5JECTpA3fqeAUmOgL255TkbwG7zQ/CKpgBeWlzh+tENxLFnzHU2bwAU5Wkm1WMGO7ITYcwucMlkldbVxO+/JcYLgMk7gbWbzWh4Rg0cAFhqlvXJXSfhVbLDTtbIb5BYE7y0bgeoGngqHtTjDqiQk7m6AfNW3aSrtEe5Zy838Sifs8Eug49y9rcflpwGRuIzamyVINCge0L/64jkAE9tbODNXXGQ5iBc8RoT323riOote+t/0FFuldTulpJfVuPRNmdyauldG6Hr3332XsURJ03rgp+gktNGfzW89PqgOzvaOSYiiMzy83yg+fJo6qcyHPmAPaOh5NbfUlSAWx6Dc3QDrxcVWidwRlou83J4bgOmm/vTMpB4JuSclcsKoO4n5TcBTonNeNyH2TkUpabhEoGIWtG8FS4ZeVgg4xgt95oK7ZjsJ94FquZQtLdh1Tl4ojUT5rKp0VfC73X+qMxVLeY8wrIUbJovHVFkLqMWhjF3SN7gbqq41tUXXbFoD8XFK5SDSbtdtIdYY3a/ERwHIdVTLrnUnmSptLQOfbRYW3Kr1ozS05e4ABW7DsPLiyCP3nG1/8zj0ATNDRCOwaMz3aaaknkFpWyOzphGZ4vM8a/kb+EfVVrUIbwHDWxsZG0dlgA7zxJ6k6qwJunhDRZOKDJJdAJID5qxOoFg0eKEErqokuU21PZaFKCZ4GVvFWfZ/Ze9ny99lXsCv7RthdaXTyWYL6aJZVGXCVBG1gs0WTpeqhiO0pjkDRu4ozDijXR5hyUo0A7X4j8PMoABqAli8plnHIFexG5J6Km2ET6NvujmVVMXkvNIfzW8lbqQ215NJ9FSZnXc48yT6pVpTaS6Sukl4vV5deFyARXOexvy1SDrozs5StzGeT3YyMotfNJvGnJo7XflTk2VSp4jCCz4yc0nQn3Wfug+ZKiiNr23+LiiMnauSL318SuGwkXIba60SHtpivTEVPIK4yE7gg0b2S5yWU0UrzwK9/o55QAWpch8itYwYfFZOx4VE39BL0tPapRM6G/cpbYZCNA5W2KkZuazN3An5IhT4RM73Kd5/cI+aqeMtqRQ4VITdzfqpkOzpO8n0CvsGyla74AwfmcB8rolTbBSH+0mA6MaT6lV64wt1QKfBo2ak/rvRXDcMkmOWCMkcXbmjvctFoNhqdliWmQ85Dcf4RorJT4e1oAAAA4AWASuWM6GqqmzWyjYe2e3L+K2jejR9Vb6enDB1TzWgbl6s7dqeJAJL1qQer1JJIPk4lSKSke/3R6gL1JMDOCAxyi4VwxSpc2K45JJJd1GfbO6mUucSeJU6ixB7G2B0SSVBxTkkveeA9SpNNuKSSF4p7zaOU/ksqaIykklYqnGUrjw9QpDMMcd9h6rxJOYxO0yLBm8XOPdYKUzBWfg83XSSQekiPC2t+Fo8LqS2OwsDYcgAkknBpyWjmUgG8rpJKpCTKfD5X+5HfxaPmUTp9lat3wsb3uH0SSTs0VohFsRMfelYO4EqfBsG34pnn9kAfNJJLYEqfYemG9rnftPP0RSm2YpmboWeIv8ANeJKblRoTioGt3ADuACfEAXiSndPTsRjkugEkkgSSSSA8XiSSYILpepJAkkkkB//2Q==;" vertex="1" parent="1">
          <mxGeometry x="1110" y="1360" width="390.71" height="260" as="geometry" />
        </mxCell>
        <mxCell id="F8rlqcTrgMaWFQeFcG7n-127" value="" style="edgeStyle=orthogonalEdgeStyle;rounded=0;orthogonalLoop=1;jettySize=auto;html=1;" edge="1" parent="1" source="F8rlqcTrgMaWFQeFcG7n-125" target="F8rlqcTrgMaWFQeFcG7n-126">
          <mxGeometry relative="1" as="geometry" />
        </mxCell>
        <mxCell id="F8rlqcTrgMaWFQeFcG7n-125" value="&lt;font style=&quot;font-size: 22px;&quot;&gt;1 2 3 4 5&amp;nbsp;&lt;/font&gt;" style="rounded=1;whiteSpace=wrap;html=1;fillColor=#f5f5f5;gradientColor=#b3b3b3;strokeColor=#666666;" vertex="1" parent="1">
          <mxGeometry x="-520" y="514" width="230" height="46" as="geometry" />
        </mxCell>
        <mxCell id="F8rlqcTrgMaWFQeFcG7n-129" value="" style="edgeStyle=orthogonalEdgeStyle;rounded=0;orthogonalLoop=1;jettySize=auto;html=1;" edge="1" parent="1" source="F8rlqcTrgMaWFQeFcG7n-126" target="F8rlqcTrgMaWFQeFcG7n-128">
          <mxGeometry relative="1" as="geometry" />
        </mxCell>
        <mxCell id="F8rlqcTrgMaWFQeFcG7n-126" value="&lt;font style=&quot;font-size: 20px;&quot;&gt;CLOUD&lt;/font&gt;" style="whiteSpace=wrap;html=1;fillColor=#f5f5f5;strokeColor=#666666;rounded=1;gradientColor=#b3b3b3;" vertex="1" parent="1">
          <mxGeometry x="-540" y="610" width="270" height="60" as="geometry" />
        </mxCell>
        <mxCell id="F8rlqcTrgMaWFQeFcG7n-128" value="&lt;font style=&quot;font-size: 19px;&quot;&gt;DATACENTER&amp;nbsp;&lt;/font&gt;" style="whiteSpace=wrap;html=1;fillColor=#f5f5f5;strokeColor=#666666;rounded=1;gradientColor=#b3b3b3;" vertex="1" parent="1">
          <mxGeometry x="-560" y="705" width="300" height="60" as="geometry" />
        </mxCell>
        <mxCell id="F8rlqcTrgMaWFQeFcG7n-131" style="edgeStyle=orthogonalEdgeStyle;rounded=0;orthogonalLoop=1;jettySize=auto;html=1;" edge="1" parent="1" source="F8rlqcTrgMaWFQeFcG7n-130">
          <mxGeometry relative="1" as="geometry">
            <mxPoint x="-413" y="769.9999999999998" as="targetPoint" />
          </mxGeometry>
        </mxCell>
        <mxCell id="F8rlqcTrgMaWFQeFcG7n-140" value="" style="edgeStyle=orthogonalEdgeStyle;rounded=0;orthogonalLoop=1;jettySize=auto;html=1;" edge="1" parent="1" source="F8rlqcTrgMaWFQeFcG7n-130" target="F8rlqcTrgMaWFQeFcG7n-139">
          <mxGeometry relative="1" as="geometry" />
        </mxCell>
        <mxCell id="F8rlqcTrgMaWFQeFcG7n-130" value="&lt;span style=&quot;font-size: 19px;&quot;&gt;SERVER&amp;nbsp;&lt;/span&gt;" style="whiteSpace=wrap;html=1;fillColor=#f5f5f5;strokeColor=#666666;rounded=1;gradientColor=#b3b3b3;" vertex="1" parent="1">
          <mxGeometry x="-563" y="820" width="300" height="60" as="geometry" />
        </mxCell>
        <mxCell id="F8rlqcTrgMaWFQeFcG7n-134" value="" style="edgeStyle=orthogonalEdgeStyle;rounded=0;orthogonalLoop=1;jettySize=auto;html=1;" edge="1" parent="1" source="F8rlqcTrgMaWFQeFcG7n-132" target="F8rlqcTrgMaWFQeFcG7n-133">
          <mxGeometry relative="1" as="geometry" />
        </mxCell>
        <mxCell id="F8rlqcTrgMaWFQeFcG7n-132" value="&lt;font style=&quot;font-size: 23px;&quot;&gt;AUTO TKT&amp;nbsp;&lt;/font&gt;" style="rounded=1;whiteSpace=wrap;html=1;" vertex="1" parent="1">
          <mxGeometry x="1520" y="513" width="230" height="130" as="geometry" />
        </mxCell>
        <mxCell id="F8rlqcTrgMaWFQeFcG7n-136" value="" style="edgeStyle=orthogonalEdgeStyle;rounded=0;orthogonalLoop=1;jettySize=auto;html=1;" edge="1" parent="1" source="F8rlqcTrgMaWFQeFcG7n-133" target="F8rlqcTrgMaWFQeFcG7n-135">
          <mxGeometry relative="1" as="geometry" />
        </mxCell>
        <mxCell id="F8rlqcTrgMaWFQeFcG7n-133" value="&lt;font style=&quot;font-size: 27px;&quot;&gt;&lt;b&gt;&lt;i&gt;10&amp;nbsp;&lt;/i&gt;&lt;/b&gt;&lt;/font&gt;" style="whiteSpace=wrap;html=1;rounded=1;fillColor=#dae8fc;gradientColor=#7ea6e0;strokeColor=#6c8ebf;" vertex="1" parent="1">
          <mxGeometry x="1575" y="690" width="155" height="130" as="geometry" />
        </mxCell>
        <mxCell id="F8rlqcTrgMaWFQeFcG7n-138" value="" style="edgeStyle=orthogonalEdgeStyle;rounded=0;orthogonalLoop=1;jettySize=auto;html=1;" edge="1" parent="1" source="F8rlqcTrgMaWFQeFcG7n-135" target="F8rlqcTrgMaWFQeFcG7n-137">
          <mxGeometry relative="1" as="geometry" />
        </mxCell>
        <mxCell id="F8rlqcTrgMaWFQeFcG7n-135" value="&lt;font style=&quot;font-size: 19px;&quot;&gt;SCRIPT&amp;nbsp;&lt;/font&gt;" style="whiteSpace=wrap;html=1;fillColor=#dae8fc;strokeColor=#6c8ebf;rounded=1;gradientColor=#7ea6e0;" vertex="1" parent="1">
          <mxGeometry x="1592.5" y="870" width="120" height="60" as="geometry" />
        </mxCell>
        <mxCell id="F8rlqcTrgMaWFQeFcG7n-137" value="&lt;font style=&quot;font-size: 24px;&quot;&gt;HW&amp;nbsp;&lt;/font&gt;" style="whiteSpace=wrap;html=1;fillColor=#dae8fc;strokeColor=#6c8ebf;rounded=1;gradientColor=#7ea6e0;" vertex="1" parent="1">
          <mxGeometry x="1592.5" y="1010" width="120" height="60" as="geometry" />
        </mxCell>
        <mxCell id="F8rlqcTrgMaWFQeFcG7n-142" value="" style="edgeStyle=orthogonalEdgeStyle;rounded=0;orthogonalLoop=1;jettySize=auto;html=1;" edge="1" parent="1" source="F8rlqcTrgMaWFQeFcG7n-139" target="F8rlqcTrgMaWFQeFcG7n-141">
          <mxGeometry relative="1" as="geometry" />
        </mxCell>
        <mxCell id="F8rlqcTrgMaWFQeFcG7n-139" value="&lt;font style=&quot;font-size: 21px;&quot;&gt;DR&amp;nbsp;&lt;/font&gt;" style="whiteSpace=wrap;html=1;fillColor=#f5f5f5;strokeColor=#666666;rounded=1;gradientColor=#b3b3b3;" vertex="1" parent="1">
          <mxGeometry x="-170" y="830" width="120" height="60" as="geometry" />
        </mxCell>
        <mxCell id="F8rlqcTrgMaWFQeFcG7n-141" value="&lt;font style=&quot;font-size: 23px;&quot;&gt;BR&amp;nbsp;&lt;/font&gt;" style="whiteSpace=wrap;html=1;fillColor=#f5f5f5;strokeColor=#666666;rounded=1;gradientColor=#b3b3b3;" vertex="1" parent="1">
          <mxGeometry x="15" y="810" width="120" height="60" as="geometry" />
        </mxCell>
        <mxCell id="F8rlqcTrgMaWFQeFcG7n-145" value="" style="edgeStyle=orthogonalEdgeStyle;rounded=0;orthogonalLoop=1;jettySize=auto;html=1;" edge="1" parent="1" source="F8rlqcTrgMaWFQeFcG7n-143" target="F8rlqcTrgMaWFQeFcG7n-144">
          <mxGeometry relative="1" as="geometry" />
        </mxCell>
        <mxCell id="F8rlqcTrgMaWFQeFcG7n-143" value="&lt;font style=&quot;font-size: 37px;&quot;&gt;HW&amp;nbsp;&lt;/font&gt;" style="rounded=1;whiteSpace=wrap;html=1;fillColor=#dae8fc;gradientColor=#7ea6e0;strokeColor=#6c8ebf;" vertex="1" parent="1">
          <mxGeometry x="30" y="1710" width="660" height="60" as="geometry" />
        </mxCell>
        <mxCell id="F8rlqcTrgMaWFQeFcG7n-144" value="&lt;font style=&quot;font-size: 22px;&quot;&gt;&lt;b style=&quot;&quot;&gt;SERVER --- DEL XR 11&lt;br&gt;&amp;nbsp; HP DL360 Gen 10 Plus&amp;nbsp;&amp;nbsp;&lt;/b&gt;&lt;/font&gt;" style="whiteSpace=wrap;html=1;fillColor=#dae8fc;strokeColor=#6c8ebf;rounded=1;gradientColor=#7ea6e0;" vertex="1" parent="1">
          <mxGeometry x="910" y="1670" width="280" height="120" as="geometry" />
        </mxCell>
        <mxCell id="F8rlqcTrgMaWFQeFcG7n-148" style="edgeStyle=orthogonalEdgeStyle;rounded=0;orthogonalLoop=1;jettySize=auto;html=1;" edge="1" parent="1" source="F8rlqcTrgMaWFQeFcG7n-146">
          <mxGeometry relative="1" as="geometry">
            <mxPoint x="910" y="1870" as="targetPoint" />
          </mxGeometry>
        </mxCell>
        <mxCell id="F8rlqcTrgMaWFQeFcG7n-146" value="&lt;span style=&quot;font-size: 37px;&quot;&gt;OS&amp;nbsp;&lt;/span&gt;" style="rounded=1;whiteSpace=wrap;html=1;fillColor=#dae8fc;gradientColor=#7ea6e0;strokeColor=#6c8ebf;" vertex="1" parent="1">
          <mxGeometry x="30" y="1840" width="660" height="60" as="geometry" />
        </mxCell>
        <mxCell id="F8rlqcTrgMaWFQeFcG7n-147" value="&lt;span style=&quot;font-size: 22px;&quot;&gt;&lt;b&gt;LINUX&amp;nbsp;&lt;/b&gt;&lt;/span&gt;" style="whiteSpace=wrap;html=1;fillColor=#dae8fc;strokeColor=#6c8ebf;rounded=1;gradientColor=#7ea6e0;" vertex="1" parent="1">
          <mxGeometry x="915.5" y="1820" width="280" height="120" as="geometry" />
        </mxCell>
        <mxCell id="F8rlqcTrgMaWFQeFcG7n-151" value="" style="edgeStyle=orthogonalEdgeStyle;rounded=0;orthogonalLoop=1;jettySize=auto;html=1;" edge="1" parent="1" target="F8rlqcTrgMaWFQeFcG7n-150">
          <mxGeometry relative="1" as="geometry">
            <mxPoint x="30" y="1990" as="sourcePoint" />
          </mxGeometry>
        </mxCell>
        <mxCell id="F8rlqcTrgMaWFQeFcG7n-153" value="" style="edgeStyle=orthogonalEdgeStyle;rounded=0;orthogonalLoop=1;jettySize=auto;html=1;" edge="1" parent="1" source="F8rlqcTrgMaWFQeFcG7n-149" target="F8rlqcTrgMaWFQeFcG7n-152">
          <mxGeometry relative="1" as="geometry" />
        </mxCell>
        <mxCell id="F8rlqcTrgMaWFQeFcG7n-149" value="&lt;font style=&quot;font-size: 26px;&quot;&gt;DATCENTER&amp;nbsp;&lt;/font&gt;" style="rounded=1;whiteSpace=wrap;html=1;fillColor=#dae8fc;gradientColor=#7ea6e0;strokeColor=#6c8ebf;" vertex="1" parent="1">
          <mxGeometry x="30" y="1950" width="660" height="60" as="geometry" />
        </mxCell>
        <mxCell id="F8rlqcTrgMaWFQeFcG7n-150" value="&lt;font style=&quot;font-size: 19px;&quot;&gt;PRIVATE&amp;nbsp;&lt;/font&gt;" style="whiteSpace=wrap;html=1;fillColor=#dae8fc;strokeColor=#6c8ebf;rounded=1;gradientColor=#7ea6e0;" vertex="1" parent="1">
          <mxGeometry x="-120" y="2130" width="120" height="60" as="geometry" />
        </mxCell>
        <mxCell id="F8rlqcTrgMaWFQeFcG7n-158" value="" style="edgeStyle=orthogonalEdgeStyle;rounded=0;orthogonalLoop=1;jettySize=auto;html=1;" edge="1" parent="1" source="F8rlqcTrgMaWFQeFcG7n-152" target="F8rlqcTrgMaWFQeFcG7n-157">
          <mxGeometry relative="1" as="geometry" />
        </mxCell>
        <mxCell id="F8rlqcTrgMaWFQeFcG7n-160" value="" style="edgeStyle=orthogonalEdgeStyle;rounded=0;orthogonalLoop=1;jettySize=auto;html=1;" edge="1" parent="1" source="F8rlqcTrgMaWFQeFcG7n-152" target="F8rlqcTrgMaWFQeFcG7n-159">
          <mxGeometry relative="1" as="geometry" />
        </mxCell>
        <mxCell id="F8rlqcTrgMaWFQeFcG7n-152" value="&lt;span style=&quot;font-size: 19px;&quot;&gt;PUBLIC&amp;nbsp;&lt;/span&gt;" style="whiteSpace=wrap;html=1;fillColor=#dae8fc;strokeColor=#6c8ebf;rounded=1;gradientColor=#7ea6e0;" vertex="1" parent="1">
          <mxGeometry x="760" y="2130" width="120" height="60" as="geometry" />
        </mxCell>
        <mxCell id="F8rlqcTrgMaWFQeFcG7n-156" style="edgeStyle=orthogonalEdgeStyle;rounded=0;orthogonalLoop=1;jettySize=auto;html=1;" edge="1" parent="1" source="F8rlqcTrgMaWFQeFcG7n-155">
          <mxGeometry relative="1" as="geometry">
            <mxPoint x="-60" y="2200" as="targetPoint" />
          </mxGeometry>
        </mxCell>
        <mxCell id="F8rlqcTrgMaWFQeFcG7n-155" value="&lt;span style=&quot;font-size: 19px;&quot;&gt;VMWARE&amp;nbsp;&lt;/span&gt;" style="whiteSpace=wrap;html=1;fillColor=#dae8fc;strokeColor=#6c8ebf;rounded=1;gradientColor=#7ea6e0;" vertex="1" parent="1">
          <mxGeometry x="-120" y="2250" width="120" height="60" as="geometry" />
        </mxCell>
        <mxCell id="F8rlqcTrgMaWFQeFcG7n-157" value="&lt;font style=&quot;font-size: 21px;&quot;&gt;AZURE&lt;/font&gt;" style="whiteSpace=wrap;html=1;fillColor=#dae8fc;strokeColor=#6c8ebf;rounded=1;gradientColor=#7ea6e0;" vertex="1" parent="1">
          <mxGeometry x="760" y="2230" width="120" height="60" as="geometry" />
        </mxCell>
        <mxCell id="F8rlqcTrgMaWFQeFcG7n-162" value="" style="edgeStyle=orthogonalEdgeStyle;rounded=0;orthogonalLoop=1;jettySize=auto;html=1;" edge="1" parent="1" source="F8rlqcTrgMaWFQeFcG7n-159" target="F8rlqcTrgMaWFQeFcG7n-161">
          <mxGeometry relative="1" as="geometry" />
        </mxCell>
        <mxCell id="F8rlqcTrgMaWFQeFcG7n-159" value="&lt;font style=&quot;font-size: 21px;&quot;&gt;AWS&amp;nbsp;&lt;/font&gt;" style="whiteSpace=wrap;html=1;fillColor=#dae8fc;strokeColor=#6c8ebf;rounded=1;gradientColor=#7ea6e0;" vertex="1" parent="1">
          <mxGeometry x="960" y="2130" width="120" height="60" as="geometry" />
        </mxCell>
        <mxCell id="F8rlqcTrgMaWFQeFcG7n-164" value="" style="edgeStyle=orthogonalEdgeStyle;rounded=0;orthogonalLoop=1;jettySize=auto;html=1;" edge="1" parent="1" source="F8rlqcTrgMaWFQeFcG7n-161" target="F8rlqcTrgMaWFQeFcG7n-163">
          <mxGeometry relative="1" as="geometry" />
        </mxCell>
        <mxCell id="F8rlqcTrgMaWFQeFcG7n-161" value="&lt;font style=&quot;font-size: 18px;&quot;&gt;AZURE&lt;/font&gt;" style="whiteSpace=wrap;html=1;fillColor=#dae8fc;strokeColor=#6c8ebf;rounded=1;gradientColor=#7ea6e0;" vertex="1" parent="1">
          <mxGeometry x="1160" y="2130" width="120" height="60" as="geometry" />
        </mxCell>
        <mxCell id="F8rlqcTrgMaWFQeFcG7n-163" value="&lt;font style=&quot;font-size: 19px;&quot;&gt;GCP&lt;/font&gt;" style="whiteSpace=wrap;html=1;fillColor=#dae8fc;strokeColor=#6c8ebf;rounded=1;gradientColor=#7ea6e0;" vertex="1" parent="1">
          <mxGeometry x="1360" y="2130" width="120" height="60" as="geometry" />
        </mxCell>
        <mxCell id="F8rlqcTrgMaWFQeFcG7n-165" value="&lt;font style=&quot;font-size: 38px;&quot;&gt;APP MANAGE&amp;nbsp;&lt;/font&gt;" style="rounded=1;whiteSpace=wrap;html=1;fillColor=#f5f5f5;gradientColor=#b3b3b3;strokeColor=#666666;" vertex="1" parent="1">
          <mxGeometry x="-150" y="2350" width="1140" height="100" as="geometry" />
        </mxCell>
        <mxCell id="F8rlqcTrgMaWFQeFcG7n-167" style="edgeStyle=orthogonalEdgeStyle;rounded=0;orthogonalLoop=1;jettySize=auto;html=1;entryX=1;entryY=0.5;entryDx=0;entryDy=0;" edge="1" parent="1" source="F8rlqcTrgMaWFQeFcG7n-166" target="F8rlqcTrgMaWFQeFcG7n-165">
          <mxGeometry relative="1" as="geometry" />
        </mxCell>
        <mxCell id="F8rlqcTrgMaWFQeFcG7n-166" value="" style="shape=image;verticalLabelPosition=bottom;labelBackgroundColor=default;verticalAlign=top;aspect=fixed;imageAspect=0;image=data:image/jpeg,/9j/4AAQSkZJRgABAQAAAQABAAD/2wCEAAkGBxMTEhUTExIWFhUXGCAbGBgYGBsdHhoaGBgYGBsdIB4YHiggHR8lHR0XITEhJSkrLi4uHR8zODMtNygtLisBCgoKDg0OGhAQGy0mICYvLSsvLy01LS0tLS8tLS0tLS8tLS0tLS0tLS0tLS0tLS0tLS0tLS0tLS0tLS0tLS0tLf/AABEIAMIBAwMBIgACEQEDEQH/xAAcAAADAAMBAQEAAAAAAAAAAAAEBQYAAwcCAQj/xABFEAABAwIEAwYCCAQEBAYDAAABAgMRACEEBRIxQVFhBhMicYGRMqEUI0JSscHR8AdiguEzcpKiFUPS8RZjg7Kzw1Ojwv/EABoBAAIDAQEAAAAAAAAAAAAAAAMEAQIFAAb/xAA0EQACAQIEBAMHBAIDAQAAAAABAgADEQQSITETIkFRBTKBFGFxkbHR8COhweEzQjRS8RX/2gAMAwEAAhEDEQA/AH2DyJhGHKD9IL5BPfFhcSeACZARwsSeMzQ+TOMklOJQ34UgLSpCgVc4NvEJsTcxbmNbjTzZ+sbQj1caJ8i6ruyfImiThUfEtzFME31LRqRaIOpBvsPYVgsxv5ZxveFf8CwxGpjGBJuNC1gixIBBPiFr8aWPYNaPicMDiIWk/wCn8wK2PsyNJxKlC6gtpSdJk3kEBUzw60qGHWl1Ku9Upu+okaogSLTtI4ilHqo5y2sfz4zgpY6SnyzKy62CnEsz93iPY2NYvI8ai6ClXVCr/OKHwOXJcbDxcCE/eKIj1179K2ZnivoqRpxUridC0bDgSdUpngDc8qL7PdQWX1BhBRYm1p5a7QYpk6XmCpP3hb8YmvWLbwOIClrZSlUcZTJm/wAMGeXCkP8A4pcUgaje8hO1ztSHFZjqVJsN/IiYqFqsAVWa9LwwpZg1p0MZdlxTpDATHEEg+4MmlmL7Jfbwz39C/wDqF/kanMPmZEQqRTtjNSNja3H1ruMCOcCaiUXQ3psfXWLnsU+wYdQpHU/CfJQsaPwPaKPtUzazgKBQpKVJIggiQekGl+M7KYV0amlqYVyQQU/6TYekVVERtUa0u9U2tVT5Q/EOs4hIS+gEE2VspPOFC496WZrk6MOjvsM8uZg6lknTPW3LlSJnBuMO6VuBaDY2I5Qdz70Ti0ubJVI+6q3sdj6xXcdluhIN+szcQKIOV9PoYac4WEEqUTPEf2/CtLGbobdQqAU6SlQPUSJ9Up96lW8xW04pskoI4LTG/Od+hoxhSHSUOOJSVxpUkzpUNiR907G/KmUZ0Gs8xVpZXtDc1xrPfF5sBKCPEiOMQTEes/pFVXZZ8qbAlR0nU24DdBJEpk7pPFJ/KaRZl2dabw+orWtenxFIA+RG3rXvKMcyjDoSVqB030A6STvvepNQrr1hqeKy0io9JT53k7OKVqWrSTGoJIGqOJ67D0FK81ybQlOgqKRNybpHKeAib/sj4DEtF1KO8IKjbVsJ2n9KmV43FuuFlSlalaiUnYJTIOkRYQki1qpUC1Evax/NZWial7k6TdiJbWpKgoBWkxMDTI+6eA24e1McHj161BI1KIkXk+EARxnhcdaUqwyi4AUkACwuJBNiRte/WvDuFdbMtrKVkEWN9rj8PlS5VW0MPsYzybLFKDhecWRJ0pUTBtqVE2G3r6Uxw6mA2AEIBKd5uDwM7k7b0iGbYhWHA1hOqUzFyZEkTMdaGy3Knu8B76wuUlMyncwPzqr0y1yzW/qQDaU6cOCCZkDhBPravLqUtJFrFUXBvNvz2rYFuaUrbCQFkJhw6TdQBG4vEmOVe3XSl1SUuNlE2SfEQCSEkg24TN4geVLBDa7SGaI1ud6pSEJ0Bs6VFRO5NrHyNPcTj3GVJSkFVoCpuJsLC9/yr1l+Hbw863EgSTJUJVfVJnjPTetuKzBjvPD8fPTeBItxSZ5771LEE6DQSkCyZnW6rWCAnmSmVX8JI2vc0Fm2I71IUswrUboBMo+FRTaTwifOjO1b6e5SoHReVX+MhBATIM7iYAiN60ZIpSWWw7upUlQ3bSIOocoHUQKMo5Q/vnCBYVtKVhKCsJXANzJIm6gQI4COlT2Z5U4sgurCUSQkJJOojmNgY9b0Z2ollal94FnUSbzxKkk6TzgcPwgFCXFpLz4UEET4bCVAQAJkki/rwrQoU2HOJDGwjBGVOEfVtqKPskCRAtWVR5BniE4doJTACRaRb+9faPwhAZmnQ0drGSIUhfXwSPlQbmNy4mQSyo7lAcbnz0QD6zW11tuBGHUI5tIT/wDLFey6CnSGGz1UUE+zaTQqjPa2a/pG2IHW8lc3Q2Tqad1nqlJPugJJ9Zpf9BWQVykBM8TOoCYSU3Pv71RYvJErSpKm0J1GStIUFCDMJ1oAH/etCcoYTBKtrf4iRt5OD8Kz1okczEfnwkZltJ9HaR1CihJJ08jIHkZN77Sb0sVg0uL1qU8kkkypIWJ4k6gL8pq4UwweKLf+ar56VGhncpaXsG1f+o9+pouoHK373/iSK+Xa8lMfl2GUod1iu6AFwpKlrUeJJUsJ9gKCdydkoI7wrVJAUCRMcYm3lVYOymFnU4hGx3dcgTaRqRuK1jsrgki2KWOmrV/9VTxL7Nr8poYXHKh/UJInPnsqWgy24oUfgMNj1jwMqdHAgQD6m1VycgwSSFLxLsC/2Igc9SRHCm2F7UAJAQQUxYwLjhVjVAA4mo+E06NcVf8ABvJXC5XmIucGv/W3/wBdHNt4wb4V0eQB/Amn6u0ZJ3rwrtErnQ2NA7AxwNibWIElsyW6LuMOp66D+QoHD53A092pY8iCPWKrMV2gJ41PY7MQeIAoLZDoFMFXo8VbVbTUvA/T0KS2hQcbunXpEA/ZmZg+XAUhxmVO4dQDzekgi9iDB5pJHpVbhcsMSpUFQ+EXI5aojT60a/2fc7pClOBbSwbHeE77E26zTNNiqWA0nl8StNGtTYED5iCZbj1KbEmeR6TU64tffaAqE6rdONF41OIUkpwgRAInbVcWifDAiI6cZrUzlWIWlI0aTxU4QJPEx8XsKGulyWFvpFgg3jjLNKFBdlaVArJ4JMjVPE6opjmOZ6Fa0p1Eqm0agly9pO0H97g3JchCcEWlBCnFiVqFx8atO44AA7VAZ9jnkPOuKC2wVnRqSoQmNKR4hfwxRThwyLY3/mPBAKYtvKTNXUurQhKJLigQZV8IBVq4jgOPGvLTZI0r06lJ+A6tRBnUd9hNzz5Uv7NOtJQCpaQ6FwgKFkiJKkHiep50bmTzTziH1DQ6gQlSVBRBklPhIAI+K0Xk8ppU0wpydusGQek24TDoU3BaKNJIKSkn4I/1SADbny3X/R3SUqQS4k7p0FMHYpUOdyIjn50EnMfGYbJCASJMAqVuYHvRmKxbi3ApCSSgAEQQIkkjwi8kkWAJmrrSfNp1lSdNYYxlinT3pWUobOkgX8W52tAAPIeV61OulCCpbiSjTYASJB+EqTv+s2p59GMaVuKbbKAC0lNoiLE/CTJsDNvcPE5aAyoYdsKmCApRFha3hAkg+U0X2aoVBI+l4Hipe0BwzzT7aHEpKTBGmxAM/FexNvn50ThcwwzI73wquAdVjEGVBMb8Y5daRPP92dCk6XLHTYQLDZJIN/zHCh3i0UJCzphRNxGqeZm1xah8HXW9pe0aPZqMSQFJC0JBIESY3m1yoiicC+UwlchRQFBNoMBKSne8G/M8rVBY3NlBxJYJQlO3UAzeLxTDLVqxz3dISUnQNbgPwgWMb87c/SmvYyRbp9JxIAhGEyj6Y9dP1TKld4UgDWofZ1C5247Dzo5/LtUKdWFKJJ0NQSSeFuVgCeEXtV/luTt4bDpaaSABHrPxeppHmKe4C3UBCQASZAAJ62sP1p0iwA6RRqpLSccyQAwVtINvCpQkSJvesqWzLL33HVOSFlZ1FW1yATboZHpWV2VO4l+afoAZjhQArU4onklI+aRPzqexXarDjWlSnVFRsNRGkbQAJI8yZ8qncwzpTepKGWUiN5K4JuRMAWtsCOtT+Jxz6hqcUQlWxCEifIAC3WkgrtvaN06ZlW7nGEUdS0K6CCv/AORe/tQuPzprRLKCpWqJW3Yc4lRv0oHsph0Oq7twkpJBQgEBSlJMyVJTqAA68Typv2qwiGVd4hA5KInw2gQPe9DdES1zcylUEG2sTh7MXCkNKcSDupCQkAeaRP8A3q8yTAuBAQtbpA+JSlqKieqlH5Cw2Fa8owjq0IWVFvUE6UASrYcBt8qp2y60PrArTwJIUelhYe9Dz5uVl0G9v5lShAgyMvbiAiZ3KpJ91UzGUYRTY1YZnw80JJkdSJNApx2owk2mNRO5/CneBQCjxCQTtT2ECknJKpe9jObZ92JcS847h20ONuqnTOlaJF9yELRM+EwQDaKlMzy1/DpJQUAg/CVAjyBmQRyNd7UgRpEeVKM/y1rEMOtkAKUgpFh4TwNxBg0epQJttGKNR6RzIZ+dznuJkgkJvtpv6T+Na1ZzilGEOKJPAAH8q+YxKnnUgJCSYSY5psf1rrvYfsc2lAKkg/n51y00uAFEd9pbLmLGcaxTmLIlZeA5+IfhYetFdjRqfK3JWECRJkaiYG/KCa/TacnZ06dCY8hXNu13ZRnDrW8yjSVxqA2MHeOBuaJWpFaRy2itTEFwRcwPGZxqSGmEguLECBtO58/On7qVfR2W0RLKQkg21J2VPWQD786Q4Ds+oJ1yNRuD0pyyVJT4jNIIWI1g6WFGXWJe0+JU2FPMpSFIE6YsoC5BA/GhMg7QJxLZUGiFJgEWIkmAAfOiM3ZceCmmUlbigQAOo3JNgBxJojIMrbwrfcJIIbEuObBSyJWu+yUp8InnQ6uFp1Vuw17xr2ZSQDKHKnANYPDSJ4aikGB6An+qm2Pyll9GhxCVpPAiahWM9DrkN/Akm+2pR+Jfrw6AVYZVjisDxX5Hf9KOjL5B0jjUCigicv7adm3MEe8bClsqMHYqSpVhJVuLkTUzlyypcjSSkR4pMTz4AwI9vTvGcrCkKQtIUlQIMi0EbGojs/2VQnC4l3TOlaykDchKRpH40TKTygaxKuoRc8Q5LhCkhRAU7HhEkJQnYq3vvEX4C0mn+sxC1TIsAb36bztw/OfDRKERJmPik3Mge3COQ5TW7D42EiUW2nbVzPlMwDJttFGygCwmO5LG5mhKFhRJuLWgDSOIiYM7RuYrfhscudSShIKoKQm0SQCCPnIPIxW3F4ZLtlAFMWCTBmSCARGwkfFxr4rBshI06wACNKQTpBEWhUhRA3g26VxXSV0i7tO33qCGwFLSPswS3cA3Fik36SU1C5gysEpUCkcvIQf+1dQweLZw7ilOwlKwBAHiVpkXG0RaPOgk5Rl7inFay425cAEpW2ZBtq3gm8zaQZsTHBIUHrCU6ttDtOUqbiAJIq97GMN4LWHPE64P8QH6tIA8I5nxTJgcKd5t/DpprDreaxSQkQQXEhIN4gquZ4RG9TbACUwowPl8qoajAQldwRZZUs52sKJUR8ISQNgRNwL7/OLVLZ7nzy1lkaO74jTJUJBuo7DaLCseWkCQoTwgj9betBnEoBBeGoKsEhVz1ttHtRS6kXMVQGfO+rKV4zLsY4tS2sMe7J8Fh8PDfpFZS3sZOsZhziieJKRtO3ttejwWERqH0lwosBqCUESYkXWAnlA34XrwGtayFpC3CpISdRDTZVbxwBeRAkxb0r7k3hxScMl+e9JStbMi0GwUQFKQCL7A1ZV0myTlEMyZa8I+h1SUhSgYBggIVvEGxifQ10pHZdLo7xZcJVfSkgADkbSai2+yU41pBUHGwQXEzGlCZPEiRYWBJvXXGnBzieWwoaUlqHm1iAJYljFrCA0QuLxAHLyrdisxQrQTBvEcpETHp7E0Fn2IWVJTY3gRPGbnkaS47vEoAtIIvx8jXVqgooQsIVuLxyhCFqlJ+Kbg2BBgRbejGsasAAlNrCDvFo29am8HmIgagU9eHrAt7VtxGYKQggIJSr/mg69+o2/LlQKWKUaiDaovWP8AFZmAIJOrby9/3etZzFLkJIvwJ4cKh04xXe6VyTwPPiP+4pjhsxGkc+fy/wCk1IxbloA1DeE9sMlYlDwQhClqkkQJKROrzIkHzFNcmzBASIIMVL5xiVvNQnSYKSUqJAN4A6HUBQWU5sFbmDy5dKYpV7nOPlDIxc5Z1BvHjnWvMcA3iEFCzYjcVJtZh1oDOO2LeGQVLWYHAb037RcWIvC8A7iC9oXVZYlCXH++QTp16YUOWoAwZ5j2obK8crGn6keAfE4QdCfXirkkXNGu5aMwSh3FoW0wCFhtVnHDHhkAyhJEmPiP8ouSHsxAQpzR3ODw6T3aUARYXKUjjuJO3mbAZF679o1Tv/cKxD7bKe4ZALi/iUSNS9NzJ4JTxOw28+Xdqu0qNKmMOdSCZddn/FV046BeOe/KvGedp3MWpTTKe6aVZV/EtI2CiNkj7g4kkkmisp7EIcEuOq8kgD8ZqC6IQXhkpuy8u0C7L5iCN/Or7LMcQZ2pdl/8L2kkqGJdHXw/hFfM3yvEYJJWSHWU7qFiP8w5dR8qSq0wXz0zHadYFcj7xn2jz6GjBkxYV9wGYFGUtI3XiCom/wAKSqZ2PQXqDzHM0vKS2hUqWQlIH3lHSD6Eg1W9rCGHGWBqAaw6R4bGPF+n40/hgyglpj+JONEWLmU95OrUEpsChJBJKQSRO5mNrzxogBwJhCACnwpEgGbmLSDFjq5TJm9B4TGkpC/EnhFySTBEXkAgCvaMQpRAIuSCRBskniDYmJJH57luDMkgz60+lEpVp3I8KRqJkJA30wJ4nmZNbkZiqbST4iQlQPI7RCjJPKLivakoLYARMH41iFKPHaTx6bHlScuBJPiHUhR3E7AAWMDnMGbg1IFjeQADGmPLZErUDoV9wkpMSQCNIVb3IvtcnJ8OhpAV9WfFdRkXVyVFjEWFpkSSKm8JiCtYSlRUEAi4lIvJsTAMjfh6inP0y0kJB46blI6wjyVbiBtXebecRbSWGHzVaAEBagjYxcCYhQkbDlte/ITGdqR/zFpi8K0ATE7hKd4rUzmYJASsqI2JkRPU8OaTI2vNac8xSNKXFiUKFwAPiTEmJPWqVFNxbaUy95J5jiklR0zpHOB+FLXsYVGQmyUmwG52HzoztBiEfChOmYMHcCJM9Z+UV6yLLSWy5JBIn2kD53npUhVUXMKugvDsr7baGkI+goUUpgqCgJIsTGgxfrWUmZyswPGRWUTiJCcNYQrMMSlnuUq+qJ1FMAajzURdUcJkCisr7ULaKQnUy2F61BuFqV0lcagOSj1rYjNEH4kA28q3YTLcO6QO80k7zwp1sIjeWXGIdRzTbk3bNAxQcUVAFRTCpKoXsbCOQN+O0V17DZrrSEmSNrDe2/QV+ce0WV9y4UgyOBGx9q6R/D7tGnEqUylvQW0ApClnYQklNucSPI1nV6HB1G3WHp1AZ0DGY5SRAEwQZVvYg7+VLM0xpUOYPHmDxpTnWfqb+rESTdUyLzYdfSvGBWpbKSSCBIHl+59qx8Y+ZfdCZgdBDTiVgDQbK3HUWNeMO4oqJCghfBQASflvWhhcpKJki48q9tHUCOJpYDUEQDIDCnczeBCVoQ7y1JAPnIvWxrM8MonU2po3mCSkz59YrZh8CVkKUqBF438qT9sXkNFttrxLnUq8mALEgdadRHteDakbQXNGHE4hHdrCm1bJBIOrcSNj0pL2yfDC2iyNLitQWkSQoiIMbCLi0TTdnH98poAErbB28RMxCYG5tPrFfHOyVjiMyd7sE+FhsjXClWSpVwmSRITJPMbUxhwb3bpGaFO2sQ5JiMwxi+7YRqPFWyU/5lGw8rk8Aaq8F2cZwrzannvpOLJ8B0y20RuUI3cUOZtMWtTrF5i1hGEtju8OkizYsTPQeKOZ+JXGBsqyzEO4kqTh0lIIhTivjUOQiyE8gPWr1sQtFb7e+PJSL77T52m7TttyhUuuf/hQdRk/fWJiftHc7Cwrm+fZvinzD6lJRI0tQUISBZICYi3rXdck7KMtJAKRPypw/krREKbSRyIEfOsxfFrXKoSO/wCCS5QaXn507NtXKjxroGUonjan+b9gcOoFTCQ0vhpsk+aeHpHrU3hAtlRQsaVJ3B/frQauMXEc6fKP4d1KZVlphnYiDRr2KbWhSFAREdD0qewuKChBP9q9PLQhPiXYdaYoVmAtBPSHWQfYTs0P+MKbAlDBU4D0toH+4e1Pv4lY1H09DYHjDQE8fiMD3KvbpVD/AAzy9Q+k41aCkPK+r1CCW0Cxg8D865vnmKOIzF9wHZWgH/ITP+7VW5rkGaYjpxKpA2EJexEGIgAWkzueBPrvzNYHoSQI4xIJHUiTvNC94ATMhRBSfMcupH416bEmIMzEaogQDJm89KADrF2W2k3P48le6pFgEgAnqBtPGK1fRQEpUUgargydjAFuPD51iFEOCJCogEjnMmx4dd5r0HgDIJJTMAgECTw6xInrRFPeUI7TU2kAkKAPAAEQnY8Pj34wLedfEvK1GIi9yLmAVKEAHkBvwOwJrRicSSoEzawg3k8bXgbTzrbhQSYGx4mTFr8Qk1e5Ei0MbkyUrG3iAKuBgGFc5SSJi1qEcT3wSgCQne++1vTavSlaQrxTNbMszdnDpKlJK1zOnaeVyNuNDck7QvBIF+smMwZV3itYGqbxsPKPSt2X5ipCSgGTFh06nleIHWhs4zFbqitQSkFU+EEdYvvRmT4AQBxNXYgJrK5Lbwxp4QJrKdoyYQLispe0rxBIJp80cnEiKQodIre25O1agYiGtGTx1CDcUChLjKg4yopUOIMH/t0r005e9F6ZFqtkLTriacT2oxC4ClARxAg/pXSuy2boWwG1gIcSPtAjVxJ61ybMGoNMMp7RraToV4kjbmPXiKRxWFD08qiXRrGdHxObISoKEnTvAJgeYERY1rzjtAG0hxBTBHExv5AzUjlXapaXiVXYcMLR0Jv+voDwr3jezLzr/dMtuOCZB0nToNwpSiNKbWJJFwd6VXBKtryvMWlBhu2DzpQ22ptJgkq3t5kAfjW/F5E9iwlxs6ETDuIcJ0qAFoHxLMzCU24WimGQ9jcLhgHX9L7sSE/8pMcQD8Q/mUIP2Qd6O7Q502BqxDyk6RKWEFIW4OAi5bQfRR8qvYBhljiUSV54f2fwbeGQe5QZIguODxK6kD4E8mxc7qMVNdoe3qGVEYeH3+LirobPHTtrV12GwqVzrtM/i/Ar6pkWDSJiOp3V60iew4B8J8+VFVR/tCWsOWU+QYZeKeL7yipbh3PAfkK6/gcGjDMa0EeG5uL1B9hMONCDEwkVR9o8W23oBTqSTKilROmNrJ6mvN41zXxITpeN1hw6HLKNrNCvSoEC0q5Wrdhcet1xSBGkcb7UhweObLYIkkxBjgec7W50KznbC34TrSSSFK+zblaCJ5UWvhk4TWAmNRdzUAMt3FgDcVCfxFwZLJxDSSVtXIH2kTfzI396qERFlBXUGhMaoaFpPFJHuKxMPUKVVb8tNhKeW9jrCOxvZZLbKFYkanVAFST8KJHwwLEjiaqG8tZHwtNj+hP6VK5f2gKkCbGLjrTvCZ0kgXr32HNLKLC0zK/ELEkwrMmSUEDiK/OOCaW0t0KHjStaVT94KIJ95r9Eu40KsONct/iHlCW8Ul1JADqfGP50wPmI9qLiBdbiRhTZ7HrOeP4vSqSISTOrkeHzj5U4OKSpOpB3Te5vciL2G/zobMWgRpgxypGttxpUpKgORFj770mrK3xha+FYnMscuYg3FzbaSb+Z6ivKVTF/nafKBxNKf+IrABU3N99uXPe/CjmsSFXSFH+lXztRYiyFZvbakRx5+dj6RReD1AktpWpW0CY8ydhG/ChkJXtZP+Y/kL0dg8M0U6XXVOCZ0AkJ/wBLd1epobVFGm8qF7wBwX0qXK/uN+NX+2w9zRI7N4hVw2lkfeeUAfZRn2Sao8IsNp+rbW2jkhspJ9EDWf6iKCx7r5nu2XUg8kEqPqbD1JoBqG+n7whrk6WiV/sth0eLEYxXkhEf7nYH+016wub4FojusO45Fu8dcVA/pQEjlXj/AIFiHDqLaUc1vHUr0SP0oPG5XBgha+alFKU+gBJq4cHRm+n5+86wbQmNnu3iUEp7pm3JtJHuTWVMKwfQew/OvlXy0vwyPZh+WiZIFbU0VimQYsEna036kHY+XKgFoUNr08GvGClptKq+h8jahFrPGmmT9msXiRqaZOgbuLIQ2OpWshNulXzESlotxDpO9e8sy13EOBpltTizslIkxz6Dqa6fkf8AC5lIS5i8QpyRKWmRGrrrWJ0/zaQORNU2DwTbSChhlOHwoMuK1aUmPvLJ7x0/LlagPXVdtTCrQZt9BJLs9/DlLYC8U5qMxobPhn7pV9s8wmAIurhVMopQkBK0s4dNlTsvTshMkA334edJs/7bYdPgw475QGmfhQANgI+z/KnfiqofMcU9iFanl6uSdkpHIJFgKWKs5u00KOHJFkEp8+7YqUoowygBxcuSTwIKtyBxiBeKmQRqKlElR3JMk+Z3JrQMMa1lopNxNTlGwhWwlZRcibiqSYsOdfFJG3CtzMG2oeW1EFoefXhVC1oEJKfsni/qkpmwEH0qpewjbiYiuY5Zju5cIPwnjyPOrnAY2wvWJjsOyvnX4x+i4dbQNzK3UklLi44gqMET0p7lWCQ1bT4TfqJArA6DW1t3wxSdWvUdcplEw1NGzKIcFhJ8Jigc9zYtsuLPBJjqYsPevInnUp2rxpdIaRdAMqI4nl5CowuHz1BfbrLuLC89J7XIW0geJKwQDb3g7U7yPPdSo1W/DhB4T/eoVGGB4W4VoYxL7Tn1JJUbQbg++0c69MpUtppEHpG073l+LAE7mpDtWj6ZikNJNmgdZH3lEWnmAB5TSjLGMaseN0pB3CPCPfeqHANNsIIBvvPOqVcYCMo+cNQ8OynM3y+884jKmWU/DKuf9+NTea4dBTJSCAZgjleKZ5pm4uBepXMMctw6GxJ26D9TSIDO9+k02VUpEGfMVneEHwhNrSGiT87UsxHaFraHT/SkfLX+VEYfsyoQXCEJPHfbcRzo9IwzPwBJV94mVfIGPIAedO/pKdATPL1KeU2O8Dwq9QCihxsHbX3YnyTBJ9BTdvNFIEFbzaeZKEz5DSFn2pLicZMw4pE792mFHzWslVKnMQ02ZDS3Fc1vGfZIq4p5un56wJT/ALShXnoUTqxmKHK6gP8AarVXlanHbIxTauQ1qCv/ANv60iZx7/xIwraR94o1fNc0wPavFpAAJRNrISP/AGiiGgR0+k5eGDy29YT/AMIeCh4FrJ33IHqCRWO9nVaSVhVtgOPub0PgO0DilwXHA4RZUkgxfxJNud61YnMG3D9fhkqUDcpJbVPG6PCfVNQAQbGENVhpYRM5kjxJMAdO8R+tZT5LGFOxeHSEGPXUJ9hWUbj+6V5vz/2WeYYbKXUk904lX/lKCfkpSh+FfMn7JYOA6cM8pPN5y5Hk2EoA/wAyhVrjcpSEktJ0rixSSn8LUsTkYKQp7Utf8yyY9zQbsI+MhixvBYJah3OCaUsHcjvlCNrqUpM+9NWfBqXild3p+HWtBIG8pTMJ81WHI0FjdSRpClhI2AXA9gam32/FcE34qmgPX7wopaaRlnHbBkTobL0mYJ+rJ5rUfE4f9vSofPc4xGJu8qUp+FtNkJ5QkUbjmAlZRHUfn+tBuMApVNoBPqNqlK17SaNMVCogGXYVOoa9pv8AvlWxxASpQA1cthHXkaJwiwnhJ4V4XhlatZtHAcb+37NWL3Y3mr4lhqlOkvBO9hYd54ZcCvCE+sXra5gQQY3Hl+VZhG1EmyjJk23vO9OomLcPahuxVuWTglxR/wA5It0sPrIrG4W4ixrwMGobLM0xzNQ1GOdEZbhdZv602auVbmUqYBamIPQbmAt4JauKjR2BxjrFviSOB4etOtQBCEiCbAczv+IFaXEFRI0HVcRxkbj040qa2cWK6SScOjtTA5gbD36TYx2qbFlaknqP0o5HaNuLSeUD9ak8RgZBkVpwuCX9lRtVGwdAi4lcSlWgfcZVYjN3HLTpT0mT61rDadM8hStvv2xdII96r+zWTLfGp5OhJG20g8+Q8qEaQTy7QKNm3irKsqcd+Af1cI6czVZlPZlrD+Jd1nf9/lTlb7WHQENgApG/5CpbOe0IAJKoHM1Rm1sNTD00J12HeNMfmiUyPkKkc2z4atM6lcEpufXl60uGKfxatLCSEn7ZFz5Dh51RZR2faw6dSxLm5m/nJrigQZqm/b7/AGhg99KXz+0Ay7JnXvG54EcufrF/lT1bLDCPBAMUFmXaBCEkSByqVVi8RilaWkmOf72q9KnUrHlGkBXr06Au51hud5v3ngBEfpSFzFpFhKj0296fYXskRd5e/AH8a+v4PDt2SmTWtTweReYzzWI8R4r3QSVW44oxsOQ/Xem2RYdCFalpHreteJxCUk7Cisoy57E/4SFFPMD9bCiK2TUQdPD1cUcq/Yf1HuNzhtQCUg2/e1TeaEEBbaSFJMz5VQYnse63oBUjUowEhxJV6gWFJc4yR9slKwQRaFCB77GrtXLeaMf/AAcQozIAfgbn5faMMvy1Drv1pEaJhJ8UWPDYi3uaQYtpKHFJCgoTZQvbhaBfn1rpnYfsM2/hC8taitaFJQkeHSpMgXF5kCucOMi4Pxcd96SUW1ij5lGVo3yjsst5lLgNlTHCwUU/lWV0Hs5g1N4VhNv8NJ/1AK/OsoRrgGW4ZlYoiP70K9+9vzFR+f8Aax1XgaQvSTA0ggr4bjxR5aD51pyrBY3EqCCQhE/C2dItEhTl1KUOISDHFQNO8FjNAUyBcx9j2yeJ/wBv6VOY1vr/ALv0p7nH0TAshTg1SFaYJVqKRfxE3vaSdzFc/e7coKb4YpM/YIiP6rmlamBY6gwtOsbbaQzPcLqSladxf1uCPxpH3vEC3I8uIpnge1TLp7syjiNURO0SD+4r3isnS54kKgnhwNZ9zROSoLdpCVOG+nxiHvk6jG028uFN8LiEkcP3FKMZlLzZktkjmm/960MvFJuCPMEfjTLItRbqZ6Ojj6VRRmO0pUv6vBqgb72oPH4kICgDvxpcMeORJ6A0ozHHKJuCPMR+NTRom9pNbHUlFwZ9W5qWBVf2dabCSXFAA7dfa9ROGQT4hvVBlOLsCDcbijYkcukTw1b2hXXNlJO43tHuZ5c4dLjVgDKSRG152G1asPhFIhazqUUbzO5MnrNr0S3mUtOpPFswORkD8zS9WMJAE2G3rSWYlbCDwXh5oYkvmuBpr1BG8+OphKidqCyoDUZ51szLGCAkbcuZqg7KdntKe9e3N9P69aubIk0sYwdcsPyfKwqFrskU2zDMUtp0pNunGlmb5klAgW/Sph0uYgwkqj5UqoL76DvFCFS1hf3febM47QqUdCBrVt0H618ybsgt5XfYpVuAPDyFPMqyRrDjWqFLF/L+9aM37TCdLY1KPD98KKr25aQ9ZR7eaqdO3QfeOF4pnDp0oATAvzNSma52t0w2PXh/evGByt3ErGtXpwj/APo/KqNpDGFBARqXwP8AfhTVDA5uaoZj4vxpV5aO/eJ8n7HFae+xCjA52/7Udise22NDKQkDpQOZ52te5McgbVMZjmmnzrTFQKMtMeswGz1mzVDeMsxzMXk0owylPq0omNpA3PIDiaQ4rFqcNzvwqyyLF/RgCiNQTCVcid1ee/vQarFRruZv+D+GriKhuNF/f3RiewUNd67pSZslSzqUSbCBYUPj1u4dSsOVwEmYSqU3jlY2rPp8krcUSeAm/nQLyS8okWi5jfyA50Bze17z1n6WDps5ygDsLfLvPQxgEQPFMzyg2qna7ZPr0pXocSFJUUqSIOk8/l61I4rLXEkHSsSfDqTZVpsrY2rZlODW84ECE3iSYAjeTyFcrdVMHh8dh8bfQNbv0+06z/DTN9Sn2YCUpX3iBPwpcJlI6Ax708zDs+ziUOsONpOoKCTF0kggEEcpqEwOHSw4g4bGJ1pbMhYIQo76LDjvzkCuiZHmqcQhDyBZW44gixHoag8u88/4vhgKhqoOU/HQ+vfeJ2sDpSE/dAHsIrKoHsvWVEgAgm1faVNB+0zQwtvJfJMuQEB03Onc2CSeAA5CjMfhC00UYdX1rn+IoC4SRAQk/YA5c+pqUy/PlpbQVjUnbTMBNwZEC52tv1pu/jUlMqknfQAbAc42M3vXqUENVFRWvAc27NKxSxrUQ2gBCUp+FIA/ZnmaTZt2NbQ0VNqCr7AdCeVvKaoU5q2hJIOnogC+9jEzxvwo5jMGywETvBEx4iSU242vPlRCB2kKaq2PTtOKYnK7mUyJmdiJ/e1EZbinGBOorbBgzukna0mR1FW2PwjJUq4CjwMxcmfTY1HYhpJc8KpCje/IyPmBSWIw1OotjHHRXW/WVWV5mhzkafMYdqR4Qa43g1OJulcHf0O1Nme0j7W6wekX+VeXxHhT5jwz6TNYETteDDYHwijCpkiFNpV5ifxrjOF7dOD4m1+l6PZ/iC39pLo/pn8DS3seLp7Lf5RVrHrOmuZJl7nxYRF+ISkfgBS3EdgcsUrUltbZ/lWofKYqQw/b7DkwHCP8ySPxFN8J2uaXs6k+Sh+tSa2MpixT6iSrMp5WtGDn8N2FA93iXByEj2un86lc37BY1snuil4cpCFeyjpP+qrPDZ4PvU3YzobEgjreuTxEX5xb9x940mOxNM3DX+M5NkOQuJX3mKQUFJshQ+fWnOZ5zHhRvsI/dq6UVtOjSpI0ncbg+lS+M7AtKVqw7ndknZXiEdJII9SaIay1TmvftaP0fFwRaoLHvIdOC1HW8ryFbHs+aaEI36Uw7Z9i32Gu9D4cQI1DTpUJgTYmRJ9Ki8vwYUqeA400tANqx9Jer4ooUlIxdxzz+0oSfc+XKnGWZMhAlyw3ibk9TxrU2pDfwgHrQ+KzYc56U/SponT0+88/icZWrnU6R3iM0Df+GADz5eVT2NzDck+tLMbmkcb8AKSYjFqWb+wo9y28WSnDcZmZMx71r7PZOrG4hDIWEa58SulyEj7Suk/3+4XLVKgq9qu+x+apYAw7iQW1OBSSf+WslMKuNpAM8KrxVBtHOC4QkCROK7MOsPKaWmVIIJI20qVCSY2m1utUHZjJhil6S8luADe5I4xcbVUdrlIaLiwvxL0lR3sgABIHWD71z9L15ixkj3oLVMx+E9D4BWBVlva/X3ymznshiEkqbbWtA+2IUDHEaSSB50FlaO7SC4E+AyUqFyDfUPL14VowubOIslxSQbGFEW9KMzvFvv6VySllICTbwg2HU1SoM6m02cfgDiaXDJF9wRca9LjW9/SVGB7aMq8D7SVg8CAZHkoQa34vsvhcUgrwKg05uUEnQrpzSfK3SoXB5C4+vWWyltRkrShQSnrqM2FuNFYNxzBPAB5KkniheoD14UEUsi6aj82MwaPhuMwn6tFrMNxvce/p6Tdi8LiMKoIfaUgk7m4J6KEg+hq2/h66ru3TPhDoA81IB/I1PZ4t51tDjrgsohLSp1zcaoiw3jnarjshlenB93Olxau8J5KEQD0gAH1o5XMtusexuMZ8EDUHMxlS1mAgTWUtD4FlAAixFZQuORpeecKe6cWy7EqMtlRGo2Udkq2B6A/CfQ8K8h91mfiBmFpJJmDcGetI8HivF8dzt16ecbe1O1a8W3rRJcbAS4gbqTEIc94QrlCTxrdDWm2zrPJzBMzKhyjr+NPsoxSXVIbWuBqHdnksmIvslW3npPOoyPCkxvPyMGmuTtlS0QQFpUCAoxJCgQATa/Wrq5g21EdPtFK1JkSpSkmfMi45ipxLEOYcQCS6hBHmq3yJpn24CmcZiALSsrF9gsa/xJrSxhlKzJTafiDyVJ8kOBR/2lRtyriZUsOHf3SebwyGko1yVlWlYmICQbD1vO9fV4hgGUIP9Vz+Jp/21waU4txCQFIMmL2JWsi/QGPapXG4FI0iSkExe9IE85W8xK1NjzdIajHI5fhXt1TSvsX6x+lYz2VKhKX0GduA9ybV9f7J4tA1d2op+8iFC3MIJNUeid4pnTvAXsI2eEUK9lM7EHz/AFrZoWm0+9vxrG3yNx6ihjMNjCAzw29iWfhccAHDUSPY06y/tu4kgPJkfeR+hP50C3jPWvq2Wl8AFe342oTpTqaVFlgxnQ8j7XIX8DgPSb+29VmGzZK0zYHmLf2rhDmUcUqhQ24H9+VO8pz7EYdMOJLg2BB8Q8wbHzrLxHhakXon0MtmvOyNYtnEFTDplJSQQTuFWMEca532k7Iu4MlbUvYYbKTdSOiwP/cBHOKmf/F6yogNxP2lG/sNqOwnbjHMqBTC0ec+l7/OmcNQrUhlIHzgit9opezEnY2pficdPw+9W+ZYLDZmjvMOkMYyCVN/YdjeNglXWL8Z3qPbycJu4qOhtt50+rIBeWp0yxtAmMK64QENkzaYsfU2qqyDIWZ+u1hZ4EERO0QP3ypxhMOe7QtsDRFtMeu1hVFljqWtK1nRAIiSSQQDfSLbCx4ilWxZZrWsJRqmXaTmHyQJWQpxUGYEWsN7/MCtPcltd0TvEAqHHpaI4gRR2b5vh+9JJcM8CduoSLj5UJhM0IJ0yNQidKVyDzBHzBoJZib9JKV6gBv1hiGlOQr6Ml2BBClGxCUggyI6XqAzQqSsmABJsNk32F9q6bmmdHDYWC0JjTIVGrV9oACRI1mLRFc2xOISskCf7U3RItcRnBVihJmvDYubE03wePU3Ckm4Mzvt58OlI2sA4PFptymjGMG6qIQY9KKwBnqMH4utrGPsd2ifdSe8fUR9wGE/6UwKVs4yDMT86KZyZZTcCeJ5frRqcrQ2mdyBM1JKg3jD+JIFyrt2GkfdkGO9cCnPsiQnrsDXUcnwxSOlcq7JYz6+NiQR7XH4V07JseT4TvQqbAm7Tz+Pr1KzXMaLgmSkE9RWVOsdtmAmHZS4LKSRsQYO96yl+On4ItwmnAGW5sU6kmZA3tuU/wAw5VQ9nM1+jvNLdJ0z9XiEifDsUOD7QiQQfELbiKnGcI+l1TYSoOJN0xCgU7EDemmWPlajBTqUYW2oShfmkXSf5kbX+GtzePM4Ilj2v7MDuC9hiFtataQkzpSsDWOoCgCOh6VH4tpetBAJ71tKgB95I0qA6ykmOtdG7K4ttCSwpK0JULtOQQOEoWPCpPz50LnvZ1AShKJAQ4SIuQhe4HSb9L1ZGtFlrkHK0T9s8MtzC4TFTJOHCHP6BOo9fFBrblWCCccH1Aju2krPDxfRkJjzUpY9jVHhlIXgUN4gASkpVwngT5nfzNB418OKOkgJ/GAAJ9AIFAr1wglqbMwy/GIl4Jbi1OLBKlGSRf8AcUvznJ+8bIG4unz/AHaq5tCotp/fpSHtMlYSJICSblM/jFZgYlrwpQZbSOy3HraMXEb71UYDPxPLytPqkG/UpNa2clDzQUsX4LFiRwJteleJyJ1syE6h03omfW4My6+DO4lUvEMv/GEuWj6wSoAfzteL3AoHFdmGVgKblBngoLTHQi4PQmppvEEG8gjnuPXcU6wWbKF9cnmoBRt/MIUKhqzDeImiV2i/GdmHE7aVjhBuY6G5PS/HkaUvYJSdpHQ10PC53r+JGqPuGQZ5hRJB6z6Ua2zhXrTeb+EDfhAI9zVRVvoJ3Edd5ypLqk8P70SxjjPDyUJHzroGM7HNnZafKb+xtU/iux8faIv0In5g+hq7MBqwtLCsvWbcjWwVBS2k6uINwRzHX3o7OcKyoq7tMBQ2tZQvw2ETSdns7i0mGwHOlwfn+tMMOHEoWXW1oKdpA+InSJO0C550s/EvynScLOwynWC5bhyghSVFKhsRuDzoRL2rE944ylxKSRoXq0m0ajffiad4NhRFkz1phgcqbYSXnQm4lCDBne8R+dRxCpJ6zQxBUJpvBl4oRpDaWhYAJTYQOfDyNE4hkhMqAHEXEmeg2FK8dnBXASkBRT4ojSCBcge29Lc6zRmUhsG0a1SRO0jxdbTFCWmXY36xDKZ4+gl54qQYIFuRN9Unyity3HMICpbaFk/CSSQmFQSUiNVyk7xejsN2iabEDCnXaIKYnbfc+1eMRm30khDzISAqLSPiGkgjyM7jajjs20rdjuNI1yZkYnDfWoUHgpRUlSfiTMg8uPCpXFZM0HnCILYsk30pJHiueRteKoGMyUjTcalJJgiIAISOJEEhXyoTMXdUlxM/EQDFygEmOBNpmqIWUkj9p2oMXrwsXJPKBBmY571rwZ0qtqSmOPPkQRvWvDYsuq1I1ISOOlPHzG9HY7EtqaUkxJAUm/8ANf31fKmRcbw9NipvGuDdBt3omJuBHv8AlW9eHJ4ap5WF+dJcpagp1RIsAReBeq3CXgqJvwAqd5qUapcXIk/ikFpSVogKTeB0511LJfHoWNlAH3FRucYAKTMAmLcT6RVT2ZeHdtX+yPwqlrNaTWN1vGr2Hw5J71ppTmyipIkxb8IrKc/RUKuUgk8YrKPwKvQxLiDtOQfxVQErYWkAL+8BCrFMX3tSb+IDCAllwJSFqSCVADUTzJ3NZWU/T8sc7SjyFRLCJM+AG9786cuXaT++NZWVxidTzRJijcDgNhXpCRyrKysmt55o0fKJvQkchWLQOQrKyhiEn1e1KcUa+Vld1nRRjmklJlIPpU0bG1fayimZmJ80PR8IPHn601aMtkm5HHjWVlJVIg8bZZilkGVqMREqNr0wwb6iiSonxEXJ2jasrKYonlgDHuCMExbypDnBseo/+xNZWUSv5lk4f/KsUYFRhZm+oj0k2oDOlnU2JO5+QrKys9v+RG6vnnnDD9+lT2UoCnxqANjvflzr7WU3h/8AaS20ZYlIDpgbJt0o7Mj4mv8AO381AH5VlZVD51ge00Nf4ajx+jN3/wDTJ/Ek0GFElE3+rVv1rKyidfztLHcQHHJA1QALj8E0F9ofvhWVlNLtCCWeB/xvIW9qpcuNz5V8rKp1mjQ8sZOjwen5VryBR7lrzP8A7jWVlDqby7eWX2GUdI8qysrKcG0QM//Z;" vertex="1" parent="1">
          <mxGeometry x="1270" y="2290" width="259" height="194" as="geometry" />
        </mxCell>
        <mxCell id="F8rlqcTrgMaWFQeFcG7n-168" value="&lt;font style=&quot;font-size: 18px;&quot;&gt;DEVLOPER&amp;nbsp;&lt;br&gt;TETSER&amp;nbsp;&lt;/font&gt;" style="rounded=1;whiteSpace=wrap;html=1;fillColor=#dae8fc;gradientColor=#7ea6e0;strokeColor=#6c8ebf;" vertex="1" parent="1">
          <mxGeometry x="1580" y="2270" width="217" height="140" as="geometry" />
        </mxCell>
        <mxCell id="F8rlqcTrgMaWFQeFcG7n-178" value="" style="edgeStyle=orthogonalEdgeStyle;rounded=0;orthogonalLoop=1;jettySize=auto;html=1;" edge="1" parent="1" source="F8rlqcTrgMaWFQeFcG7n-169" target="F8rlqcTrgMaWFQeFcG7n-177">
          <mxGeometry relative="1" as="geometry" />
        </mxCell>
        <mxCell id="F8rlqcTrgMaWFQeFcG7n-169" value="&lt;span style=&quot;font-size: 38px;&quot;&gt;ORCISTRATION&amp;nbsp;&lt;/span&gt;" style="rounded=1;whiteSpace=wrap;html=1;fillColor=#f5f5f5;gradientColor=#b3b3b3;strokeColor=#666666;" vertex="1" parent="1">
          <mxGeometry x="-156" y="2500" width="1140" height="100" as="geometry" />
        </mxCell>
        <mxCell id="F8rlqcTrgMaWFQeFcG7n-174" value="" style="edgeStyle=orthogonalEdgeStyle;rounded=0;orthogonalLoop=1;jettySize=auto;html=1;" edge="1" parent="1" source="F8rlqcTrgMaWFQeFcG7n-170" target="F8rlqcTrgMaWFQeFcG7n-173">
          <mxGeometry relative="1" as="geometry" />
        </mxCell>
        <mxCell id="F8rlqcTrgMaWFQeFcG7n-170" value="&lt;font style=&quot;font-size: 25px;&quot;&gt;HOTSTAR&amp;nbsp;&lt;/font&gt;" style="rounded=1;whiteSpace=wrap;html=1;" vertex="1" parent="1">
          <mxGeometry x="-528" y="1711" width="230" height="130" as="geometry" />
        </mxCell>
        <mxCell id="F8rlqcTrgMaWFQeFcG7n-172" style="edgeStyle=orthogonalEdgeStyle;rounded=0;orthogonalLoop=1;jettySize=auto;html=1;" edge="1" parent="1" source="F8rlqcTrgMaWFQeFcG7n-171" target="F8rlqcTrgMaWFQeFcG7n-170">
          <mxGeometry relative="1" as="geometry" />
        </mxCell>
        <mxCell id="F8rlqcTrgMaWFQeFcG7n-171" value="" style="image;aspect=fixed;perimeter=ellipsePerimeter;html=1;align=center;shadow=0;dashed=0;spacingTop=3;image=img/lib/active_directory/user_accounts.svg;" vertex="1" parent="1">
          <mxGeometry x="-170" y="1771.5" width="50" height="48.5" as="geometry" />
        </mxCell>
        <mxCell id="F8rlqcTrgMaWFQeFcG7n-173" value="&lt;font style=&quot;font-size: 18px;&quot;&gt;More 50CR&amp;nbsp;&lt;/font&gt;" style="whiteSpace=wrap;html=1;rounded=1;" vertex="1" parent="1">
          <mxGeometry x="-500" y="1890" width="120" height="60" as="geometry" />
        </mxCell>
        <mxCell id="F8rlqcTrgMaWFQeFcG7n-175" value="" style="shape=image;verticalLabelPosition=bottom;labelBackgroundColor=default;verticalAlign=top;aspect=fixed;imageAspect=0;image=data:image/jpeg,/9j/4AAQSkZJRgABAQAAAQABAAD/2wCEAAkGBxMSEhUSExIVFhUWGBgVFRcWFxgXFxcYGBUYGBUYFhgYHSggGBolGxUYITEhJSkrLi4uGB8zODMtNygtLisBCgoKDg0OGxAQGy0lICUvLS0tLS0tLS0tNS0tLS0tLS0tLS0tLS0tLS0tLS0tLS0tLS0tLS0tLS0tLS0tLS0tLf/AABEIAJcBTgMBIgACEQEDEQH/xAAcAAABBQEBAQAAAAAAAAAAAAAFAAIDBAYBBwj/xABBEAACAQIEAwUFBAgFBQEBAAABAhEAAwQSITEFQVEGEyJhcTKBkaHBFEJSsQcVI3KS0eHwM1NigsJDRKKy8VQk/8QAGQEAAwEBAQAAAAAAAAAAAAAAAAECAwQF/8QALREAAgIBAwMDAgYDAQAAAAAAAAECERIDITETQVEEInEyYYGhscHR8BSCkQX/2gAMAwEAAhEDEQA/APIq7XaUVgbiropAV2gYqVKlSAVKlXDQAStWwbaepodxh8riOn1ovhbc2rZB+81B+0aw6+n1rVGT5KV6/IphfarPC0BkkTRJra/hHwqHNRdUaRhasCudJn1qINRvu1/CPhQ/EW1FwADQ704zTFKDRAraCms1GAq/hHwprov4R8KOqvAdJ+QOprobWaIYtQFkACmWUXLsKeaqycHdFLvj1pd8aJXLKqYIE8/Ly9akwmB711togLMYA0HzO2mtLNeCsH5BLMTFI3TW+P6M76mVuWX0nKSysNJ6EHpIPwrO4/h7WHNu7byONwR8x1FNySEotgLvT1pG4YiioRfwj4VRxiAMI50KSYSi0iDORS7w0RFtegrhtr0FGaDB+QeLhrgaKuXrSwdK5hkGXUU8lQsXZV7w0u8NFLWGQgkkD3VUKiYgUWDTKjGaVduDU1wGrIFFdrlKgDtKuUqQHacpimVJZ3oGhK+lRlqtwKbA6UrHRWzUsxqV1Eip9KLCi3FKuxXayNRtdrsUqQHKVdpUDOU006rPDLYa6oNNCYXwVoixakHVm/pQTtYsOnofzrZXbfgT94/lWU7XW/HbHUEfMVaMmBcHfyAzU36w8q7dwIVdWHwqstkExm+VL2y3L90dif7d5VFcuSytSuYOBIM13C4bMJmBTWK3B5PYf9sHQ1w4wdDUlrhZbY/LSmXMBH3hSqINyI72IDKRUuFuhRmP3dvNj7I+vu86rNZIOXcmAI5ztV2/gtAoYQu/mx9oz00AHkBT9qQlk2VzifWtd+jlC15roW3+z7sE3SAiB2IzMSw0GXz32O1Ev0ccLtLbu3W7l7hYWx3oBREygkmQYDl8pPSaKYvguEwht3sOzdzfi2yByGD2/EolwdGE66glJHtADOUo7pG8NOWzZtAl267vctWu7BJt3LbrldRrbIJYkkgmYAjTfevMe1N8Ym3cKWrhezc9qCfCxIInpIHwrQpxtTiBlS68wqi4+ZhpGpnxeVZTG8aKlnS2tswy5VYssnSWk6wyk6ab1Gk3f2L14pJeTIHFeRqO68kGnfZCeYqNLRkLzmuhUcrvuSHEil9pqT9XHr8jXP1f/qHwpXEfuInvSCKSXYAFK9hSgmQRTkwhIBkCntRPusXfaVELmtWhgSYAMmmYjhroYbQ70WgeRVf602utXKogVKu0qAOUq7SoA5TrTRNcJrttJ0oDuSC8OlcN7yqW1gC06jTXWmXcIVEyIpbFbjC8xXe+pptkUhZ86NhbheK6Fp0U62KxNxZKayVNFcikBXpVKyVGVpgMNE+HJFy0eoNDgtEcMYvWR0DCmiWa57Ia2h/1H8jWV7ZpD2ff+YrX4dj3KEAmHMx01rN9ssI902iiM0FpgHTberMzO4m8MyfvVXxhBcMOtS3OFXz/ANG5/CajPC7/ADtXPepojCipaljneQfSm4Mwsedct4C7I/Zv/Cals8LuPcCZWUE+0QYHmaWPYefckW556eVVEEHej2M4RbtKFTM77s5mPQDlQ+zwnOCWLKfQn5U8ews01ZqML2PtnDhxdnGXFVrSTlQSDCGf+oVOhOUBhpIk1k7gKkqwIIOVgdCCDBBHIit32StPibS53y3bLAZmzZoAhSAdwRPMaignbHh4s8RZkHeqRbuPpPjdFNzMORLS3+6s4220+xvqYxinHuU+DYsJfW3nVLdwhWLHwjoxPUH8+W49L7WcOwX6sS13jjEd4r2xIzsy6OQNguR2gnYlda8oxuFzXZynITJ5COYqDE8Tum73jsS2gE7ZR7IHlH1qlBXZnPVdYoONfa/dZbYKWg0MzaM0ciAdJ/D8SdqJnE4e2vdiyjxoZQZQfMgb+QE9Kp4TH9+ItrD+s6ndoA1jr/SnWOG+FXR2WPCwJkZomejAg5gSOdapJKkYyk5O2CeNYdFy3LaG2GJBQgr/ALlViWVTBGvTSgtv/ENEuP32bKilmAJJYhZLaDdFGm+80LFp50UyfKoaKT2NFZ44tu33aqCYgmhDXZMxE603D2ntmSMx6f1qRrPeEswK9AN6MdgyK+LaVjzrtttB6VFicOV0GZh5iou7cnY/A0Y7UPLuE8JdIMr7Q2qDG4lnaXJnzqHDqQ2zTy0/Oo76OW1B+FNJITkyAjX3muT6U82z0PwrndHoaokbNKad3Z6Gl3Z6GgVDZrk0/uz0NLuz0NADCakw+hrndnoa6EPSga2Jneoc1OS0deXOmtbMUUGR1zpUqMBuJqtB6GugmlQ7CuY10Oa73ZpBDWBsdzmu5zXMtLLQBDfduW1cFxo9Kmy01xoadiokw7SAatYX/HT1equEXwijX6tvZrVzuXChWlspiT5xRYU2ew9h7c4K3pzb/wBjRl8MOgrI9k+09mxhbdt0ckTJAEasT1om/bexytXP/H+dXnHyZPTl4CzYQdKibAjoPhQS/wBvEA0sMfUgUD4j26vsCLapbHX2j8TR1IgtKRr8XatWhmuFFHVoFAMR2owimFUv5qoj4msLib9y82a4zOerH8ulS4bDr95o9KylreDWOh5Nxhu0+Fb2kK+qg/lVtuNYECe8T+HX8qxC4ZOT/GqmMwkfeFC1xvQH/pB40WNu5hGZVQOrkDL7RWG+UTynzrJ9leONhsT3reIMCrhpMyQZPnIma0mDjYgt5Csrx3hvduWQeBjI/wBPl/KtYytmUo0qCnaDjTYm8zEZUA8CBvCoiCQABJO8n0qn3CtbhhBOobnrEe6hDK4GdgQDpJ586McXa4LhW6IuIlu2ygzlyWkRRppoqjbzqyAXhbzW20OoPu6fCjN/tC2QqNzIJ6gn+Z0PKaAYjerfcAhfgfQj+dAHq36N+FqcEHMN3ju3iA8MHJH/AIE++tM3C0/Av8Irz3sv2kv4fD20XKVAOhXqxJM+czWisdvD9+yD+630NTnEp6cuQ4eFp/lr/CKYeGW/8tf4RVax22wze0rr7p/KradpsG3/AFgPUEfSnkiHGSIzwtP8tfgK5+q0/wAtfgKtLx3CH/uLfxp54xhD/wBxb/iFO0Lco/qq3/lr/CKYeGp/lr8BQrtT2pFhHeyUuqptAQ3Ny4I0/dn1q7d7WYVVGe4A8DMqgmDGo2otBTJH4an4F+Arn6st/wCWv8IoHxD9IVpdLVpnPVvCP51lOKdr8VekZ8i9E0+e9LJFKLNzxAYSyJuG2vuE/CgdztDgRoEJ88grC6sZJJPMkyfnV7GYDuyAW3CmYgaqCQOsTFS5lrTNhb4zgW6L6pFRX+O4JfZAY+SfU1jGsiNGFQhIO9CmJwNJiu1Nsezhl9Wj6CosN2kV2AaxbUE6noOZ21ga0OxHC7gt5zbcL1Iiq3CMJ3twW5C5jlLEMQoiSYUEkQPnTyDE1D8bw2YjIcu6tlXY7SBsfKrti5h7nssh8tAfgaxlnCoAFziR5QdSdCJ3G1dbBNyg+lT1F3Lel4Nnc4eOSj4Cqr4EfhHwrM28Vft7M498iro4/fVAxZDJ0BXX1+Rq1NMzcGgbTRTyKaorA6CxgsGbpIBAABYkzA6TA01+p5VVo+2Ee1hAQjTeOZjlPhQCF9CQSfMXDQaw0HYGdNRMazI89PmaAIKa1WM0ch8K4ddAJJ0gDUk7AU6EEez+Jt2/E0ZhrqJAHT316ThO3f7MAqp0idBp0ivKe0uNi86gDUiVAhRAAgR6UHt3T+KKrBSQZuEmj1QYyzfuMV8K7wORnWPKpXs2fxn4Vl+yWGchrzEQfABzOxzen86PXK5dSPu2Z0Qk63RDiwnLMaHkyYVdToOZqxeuAFR5gn3cvgSfhVvjeMBuO6iGuRGkZLeUDbkzD4D1pqGwnLcEgEnWrNu0dgP751DZq64yLl+8fa8huF+p84HKroixmlNfCswkDSu4b2RNRHB3BLF4Eyozbjp5VQkmyvhSyXMwGgVyf4TFNguglYYgHLvB6UW4Zw53xK2yNYYMplWEAyPI1Lj8HctMb10DNOVYOYZ5IBMbQBPrlrS6Rni9zDdobZACHcMR74I/OrHaS8ftV7xSBccA+QYx61H2iCBFAMvLMR+FY8PvOtDrNwMFnTStI8GUiG+smaIYWySp8qqBQWgUew4gEf3sKokK4LHgW0UopAVQPhWowvZB7tpbrJbthhKhnhjO3hHWg9jgq3MEt60G7xYzKSCHBYrmUbiCp01qPjfHrlrEqjOgJRCjIxKMD+FhoYIIMcwa4+krO2M21ydxnC0tubblkcbq3yPmKz+Mxiq5t5SRJCuIMtpoddorV3M2PvLnMFFysxiW18IFBOIYZrRNll7ruyGEjxHxagEaNO804xxfNim21xRQvW4TvJERMc6L8IspirJUYbIV1NyYJHPcyTHlVLhvCbmILd2gcLGYEgaMYETRfhuJt2HuJdtAn29RJV0Hhj1BIpW0VGKluc7O8NnD37sZhbdHQBc3eMFdVUr0/aA1l8fYYO3eGGnxAzI8tda1/BsViMPhHxFs5UN13ZNVbQKog8tSNuhpw7SYfH+DHW7aRteU5bijyP3h1Bq3exklHdnn9wDrNXuC27TFu8BJGwHOqeOtBLj2w4bIxXMuoMHQireCwWJKZrOHuPOgZVMfHnFNqgjTJeM8J7u4ijXOFOkkeIxpTOKYW8oL3GGW47FEnxJlOXxLupiKs8NxDPftC/aZFtFswIbN4RmMqddDBor2g4Et4NicLce6WOe5bYAuAfwR7QEnSq+wqu2jHCpsFbl943I9RUBEVfw+EuIVdrbqrQssrBTm0GpHM03wTGrVhMcXuooJhhmyCZO40kbBeXvpHhWJTDNdtWhlOdmZSveIsQQgBzQNKF2LzW2e2CVLA8p1mQPp76scK4tew7gi4SQYgiQRt7/SlFOjSTgpAN75Y5jUlq4dSAdOY+dXu0+Pwt11Ni13dzUXculpvwsqnVG6gaHehTY4oMqiOpnfXf6VbXgxTV7lzDcQYtlBnbQ+Z61JxTC3FK3TK2mzJbbkchhttvEDvvrUXA0tm4rM2RZlmYxERHzq5x3CXFbvLjh0uksrL7G58MbAwaVJcDeTQVvYLCSxOL5FoyNJ3J5QKrWMZbCiFySN/aY85PrVK/kCaksJ8UqBoehzHY0Ev3YIAYlY0/lT6dci6ifBtMFi7l+4qhsykhfETtoIWTvGw8qIdoez1rD3VHeEh1zqSQN9CD5gz8qBdj7MYiwbjhLci6SToIGZQxO3L3GtdfwYxmU2+7UWUu3bni9sFgpKnUmSjRpyrKX1bG8V7W2Y+7womO7OdiQIQ5t5idNNqIcH4fdXvbgZUZEKgFgPFIkn05ecdDUigpla1c7onVoWGWJGUNmIbrMDfaorzqTAjMQB6geu5qunJ99jNakVvW5Ni7OCvWwri6tyBLKkqDzjWYmqGE7LozF0cOgIAjQ/7gdQaja8EbxIR5r9RRHCQG7xG0Ihh1BqnpbbMcddXclZo8Rwj7KlpQQwZczmR4XY+zE7RFUsRcABJ2AJMeVFcN2JxF5Q9pbTqea3UPuOulU+NdlLuGUG/bAVyVEODPP7pml/jJ9yX6p8tF7gGFwt2ybjpmcakliIOuwkCJA0PpWVxXts2aZJOY8/M+daHh73EGdMiouUNnBIZSSGhfvRppQe7gkm4EYd2bjFJmQjmYOmhBJgVn05J0bSnHFO+SPBXFjMCD+HnJHP0H5x51K40nrVHh3Dbi3GZjbC5QqKpY5VB0Gqj1nmSTzom1nT2l+f8qpwdma1E0C+LYwWbIj2m0HpGpoBgOJXEYmfETIzPCjmBk+VGO2WFy20KkOD4pAiDEFdeYnb0rHW1JIgGdhFVFbEybtHoXZ7FNfxMlmVmDNpoc20CNBOmlWeJcSdGuWwwZVEQwzAnmxB5k6//KFdhMNeW8bgts5W28KozGfZ0A8+lWcZxCz47htLm1zNzDR0POaSipDc3HYxXELma5dbqT+W1R2joPSk90sNfP5kn37021t/fStVwZPktYYazR7DCQT1/lQLC71oMKvh1oJNJw/FOeHlCua1aW6zxcyMAWZ2A8BzeFWMTsTWYPBFK2b6z3ZUC3ndtT1M2goM7gMaKcMS99nxRuBhZXD4juyYhmFsoSB5d6RJ+lT8FthsFYa5/hWbZcg7FpMD8qhRNHPx2AN/HtZIcsRqfZYiSI19nWK0fCe1bsYuWrd3KCvjYZo3IB7smaxfaNLhyXAjBMoAgGAZJPxn5UU7PYq13feOQt0e3nzSRzI/ETE6TUS4tI107csWzSXO0F57r2rFhUZChbKwOtwLljwDMSIHrUzY97zF7mBZzaXKxRwua2TAvEN7R10A0JO1AeAcewtjHXrz3JtsLZDd28kqNgsSIMb9POrnBO1NoXMTexF9DcdMtgql0hDoNQyADw6UYNtCzSTrc5je0CWMEmGNu45uqzgscsDvzo3MGE89xWSv4q3dGQYfUmF/aMdTtpGtGe0eNs4i1hUTEpNlHDl1vCWdgZEWzp4ardnsIovAi/aJg5QBdmR+/bUbTzq5utzPTjboINw65hcOHu2kFsgwghmJ08VwxHoPnWh7G9rgcHcRrQd7ZMDYZNSp6SBI91WMYjOr27jq1sSojxSfI9Kx/D8VYwlq4VINwlVVjJ1XMzMBPiysU8OxKg6wK51PqKmdctLpSTXDNRw/jP2p2vCyUe0hUKdfueIZiZbadfd0rHpi8Rghbu2rtts0GVBOR4koQY1+R5TR/AcbtW7BZ2YliJy+AtqYZ4jOTJ1aYnaslfxCkOgsAB2zIcz+FjG0nxfe0P4p3p6bd0idSK+ov8Gx5u3+8uLbEMbjsEjnJJ35ke81q+I9qmKSAbgUkXFDS0GNcrDT8qyuDtm3dS2isTkYOVE6ESS0cpA1NSW8aULOdJY5pHtMWkSOgOvurSauVE6ePTbGYi2Eu3BcsMrElrdx2jw7C2BOU6zrvpvpFZO9jGY616za4Wlyyt++TevPJvMWYIoICxlJhgBG489K834vwQ2nuw6jKZVGMOUicw5GNt50OlVpy8mWpG+ECrtxmMtvRHDBbllyyibcGecHcfKqeNPj3p+EJKug3coo/irUxLtsA23fL4ZIHLSYHympsDxu7bEK0g8mAYesHnUvH0VFSyp2E/vEQB7zqazoQ0qTKUmuA1jfYjqQKFuRoP71A+o+dEse4iDMwSI67AVTwmGLEgjpWmo/cZaaqIY4Zbu4i2MOrJOgAaF8I11bpt1otjcHdwYUNcDB8yrAIIA6nbYgxM61V7OKuHuq7jvbWodcoZsp8jo0GDGh031iifbu/h2tWmwoXJJJKggSwIjKQCsZdvOubF5/bk7M10778GfuYydJ029/Kkt+T3dwwd0bz6UGF7UzsdDTzdkZSZj2T5VscwcXFZgbd0Qw2br/AFqimPa20Bv69KoviCdCfT6VCzzQFGp4D2kv4e8t207551Qaqw5hxMR516N2u4+mMXDNbiO6zsoIOR3PiQxzGUfGvGcLiAN9ui6T61ouH8SyI3hgEGJI9qNxrTi0nbFJNqjYdkeCviyVSJZmuMSYhM4QRpqYAgV64ezuCGn2W1/CPrWX/RNgglu4+4i3bB/dXM3/ALLW5J1P8qJN8BFLkoL2fwf/AOW1/CtYztrjcFhLttBYtgKC7m2wDg65UZSICNIJ1mJ0HPZdoOKDC4a7iN+7UxOxY6ID6sQK+eMbxF3ZrjeJmJZidySdTU8lcbju0vEWxt43GCgGAANAABGg+tR8J4ZaQyzkCQTz05gULu4ok/T/AOVSv33YhSxA+fuik4RrEpTkpZI9P4dPd3jhHCuFfw3AFQplJlp1UzLBgdDWA4hdlGUtJY5icqgzudYk61e4bam2yrcuBiNi0gwQYg7bVm+IP4jE7+nrI5Gphp4tlamq5pfYjRdIrlu6AIjeD8qLdn+BXMZdFq34dMzOfZVdpPnOwofxPCdzfe1M93ca3PXI5WffE1d70RTqxpxeX7vz/pVm3xq7sqr8CfqKgvWOZ3Ow6Dqa7hLOjedAjfcc4zaucOFq3eQXUs2rTqM3jGdjdy5121UzodKwVqw5AIOnLxqPkTSTQMOkxT7HsipbKUSO9cuLoXYH96dxpqDFK1irkR3jfxH+dXrJOXnA0+tU8UPH6gfy+lFhQ21fcOxDMCQJIJk11/ETIknUkzMnmdd5pli2WeBqTAFGTYtYfW7LOdQseEfz99AA/A4IsMzEIusE7n90fWiXAcThVvr3gJXUB2dlCvlOQtkjw5oB5QTOgoTxPEMxBIIBkrpAjyp/DeC38QJRfD+JjlX48/dQ6S9w4qTdRN5ZsXL57m0QOusgerdN9uQJ5VjcdesvfgDPaXwqZIzQfaiPvHUg9a33Zu7a4VaRL9vvHuZy0Kzhl1R1VdBCzlliBq/oZOKJwDFePMbFxjJayQhJJ+9auErv0A9axhjDY3m56nuMrj8Jh0wpueNrpI8OwRp300yZZEGdhrroJe7pKhTl1MnUeYGxreJ2DaCcLjLV+2fu3JtXAI9mNVJO0ytYS9gTaYlTKjlzXllPXpWsMXujGbmtnsaLs5x+A2FSwbn2iPEGIfMNNQPaGu3lVriXZjFr3Z+x3HUkghRJWIlmABMGSB6GhWJxNrDYa3cw9vu7j+CRrcP+YM+423HUVc4ZjMfflBea1bVGgbCVRm2B20j+5rOcq3fc304OSpPjwA+JcfvC8y3MykaFGXIQBoJUiQY6ya5c4qzmWgQuVdFOkkySQTJmiScbGKttZxdoPcVSFZ5F22eRS5uyz90yKzIB7vvAFKTlOVtQeQKnUTG+1UkpcbMlPB77pljjXCGFu3iAhyMxts8eHOADGmxjWjfZPh1rNoJKrJY/ibRAOnNv9tUeBX2xCXsKWAFwq65tluJJU+UiR8KN8Eu2sIjLcu2zcJMwwIEeEAnqBmPqaq2zOUYx4BT2DexdyFnKQgHpv8z8qocb4XkYZSJMkidtdZ8/zmo7K3PEVuIWYkkIxZiSZ2A86ixuHu2gGuqVzaAsCJ670PkW1EWOuQwO4B90gVF3xbUaAQOuwj+vvrvELwYwqkL+Z5mqaI+6q2m8A7dT5Vo3bsySpUF8LiSsAen9nlWo4xcw68PvWzdt9/ns5EBBYgOWukRtqQfdWGw98EiaKcX4aADeF0sNPaWJnSQcxoboErAjCuzTh4tOdRZooAkpTTSacDSKH2yAdfyn86u2MSZBzengBj05VQGulWbtt7ZgyKLCj1r9HHb5MKpw95WZXfMHA9mQAcw6aDavYbNxXUOjBlIkEag+hr5IsYth94jrWk4L2kvWY7q9ct6bK5Cn1WYoEew/pcxOThzCfbuW1+DZv+FeC3cRHM0a432yxVwC3fK3kBzqLmYjYgEeLeCRQkcYtkeLCWvcXH/KmhMFvenp76he4f7n61Z4hiVOqWxb5EAsZ3M+I6HlVVxQMI8P4nBAJjodPnW44LfwGKK2sdZQrqBfQFLyTMZmSM4n8QaK86tWhk18z8Kkw2LZOfpS5GewcE7L/YTfVbgu2rhU2LojxKoaUaNnUnXkZBG8Dy/tVby426Ij9pMfvQ3/ACozwLtO9pe61ylg5GmjjQMJ57g9R6Ch/bVf/wCpXBBDpbcEGQYlfUewBBg1gotat9mjplKL0K7pg945nxch0p2F1cIOZAnzJj61HbskfvHX08zTsGpWW5qVPzJ+graXBzR5O8TwjWbrI24An1K1HY9kU7iN52ZS7FmywS255yfjH+0UzDnw1D4LXJZsOYInTQkemn1qvi9wakt7+un8vnTbyZhQhst9mMA+Ixdu0m7ECZgKv32JjQAT74HOtT+mbgFrC37HcMSly2xgnNBRgCQehzD4Gs/2d44bGKN5jH7I25toizqv3UCifDE7zB5Ua7R3bPEmF77Qtp7SQUbwrlL7jvMqBi1zWHOgHSjJ5V2E4rC+4A4Fhvtl63af2EWW65RuJ8yVFem4HB53W3bAUCADplEDfpCjX4daynZXgNyz3rjLdLhVQ2/GoUGSS6ygO2k8qM8W4wLOFeymYYi/FgGDCof8a4GGhJEjQ8x0rCUXPV3+lHXpyx0Pb9UnRSxy2sZce74u7EWcMAdrKSM2s6u2Zp/1UuOcIsnDFAot6hkIA0YHfqfCWohhrSWbIBU5iFCDYKo5nmfL41neOY03GKqdEPuJjUk9K5XKctTKz0ejpw0sK/vcz3D+0F/CPlBkKSpQkxoY8J3G3p5UrnEA9xriSoYlmDa6tqRpuJmhePuh7jMNiTHpsD6wAahN4roNJEHz91emoK77nhym6xvYLcP4nkcSoZZjKwnKTuU5qdBWq41jGw6Ig0a4ufzFssQPe0H3eorAYVyGHWQfePSi3EeMqw/wwrEktlIylo0aCMw8/EflWWtp5yTN/T62EWuxT4jiSbkyZiJnaTMfOffQ7Y0nYnU9a6da3iqVHLOWUmyazczEA84Hzo52iwoRBl2DAAcxppPpt76BYNZYabGSat4/EFgJYGDoB7/jUu8i4/S7IbltgQNuXyqtcuk6E7bUScszBrnmSQAY06VSxloK2h09IPvpomR29ZIMHQ/Ku2zHr1Gh90UQuuLiiVhogGhzCDFUShY6+XykgZgMsgAFgPZLQNW5TudK4uIaIzH0mmXRTRSAcXO4NNLE7/Su0qYEikdAfdHzFRR02+dOpppAORqs2cQBc8bErJgEkrM7MOnLSq9oSfOrVl/HJ1150UFlctJMRE8tonlRLC4UhBdJ0YlRqNxvI3G/PehxaXc9ST86lt3ioYDZhB0B5yN9iOu9KS8FRfkscTJzBZByiBBka66VUAqbGYo3WzsFBgA5VCgwAJgaSY1PM1EKED5I3WWUEwDAJ6a71Jetxv8AOoMTv7qJXbEgHy1Pl1pklXDgkQOhHx/+129gXGpCj0Jmn4E5GYHQgfUUcXGWmTLEsdADzJ0Ee+gYLs8Pvd0L5T9kdM4IKg5isNGqmRWo4BhrV3DPaxCe0wGGePFbuDMWKnmhgSvOPKtjwXswj4c27jqli0FDFohoOZiBzctr76F9pu5thGsoFS2Vt2g/QAyzb+I6nrJ0rknq7pLuzuhoqKcpb0tzzTBO0knXmxPwHvnarNrUMsSTH51zHXkZotJkQasBsz8yJ2XovLWpOF3MtwPvlYMfQRP1rqfBwqrKq4Yss5GJDEEjN0EA8tIb41Hat6Tr84redhfFbYa6XGY66hWiCOu1APtxt8KtKpgm8SCOUFj9Y99c61W5ONd1+dnU9GKgpJ9m/wDlA3A2Fa6iSdWA1JGk6nSjPZlEeMp/ajNPtezPPTLEaU/snxK7fY2XckRm16iI9d6h7IWypu3B5IPzP0qddtRkvgv08VlF/P5BbDA/rIZhObDkcvxGs32owws3bixGcKy6zuRMfPTyNG8XjFt4xLjHKBZaZ/eJ95rRYIK5N4jIzIqAHV8klpjkxJHPT41jpzcKk1tX8nRPSWrlBc3/AAZfsngzZXvGXxsNJ0KqSBJP3SfM6CjVzF3i5Jcuo1IuBbiqN/vg8gdhyNUeL38jG25OZ8pzl8pEyFECPCBPzotwXgltzDAHUMx/FqCw9CBHvpzm0033NNLSjTjFXj+ou1fFLYS3Nie8GZwHdMoGltYOZZCkfd51ir+NwbA2w1+0DoTlW4I/eBUx/sNbXthhx3Qd5LLlUa+HMR4txOSV238684wnBXfU6ctx7/WttBKW5y+rctNJLv8A2iLG2ran9ncDjyz+f4kXy/rVN/7+VTXbDKSsEkdBy5VPw60puBXAgsJk8uevpXUcHLK2AnvEiJzCJ2mdJ8qvXsKpvMLhyeW0Hnr0otxbDYa1bz20h1dCN9gZPONqHdpboZ0I3KyfedJ+BrKM25LbydEtNRg1afHBX4jhANQR7tuuw0Huocqk7UQTMQpHQzty6z5VVkMZ29K2s5kmWcJbJSBzmqndkRMbjmPpV7B4rIGAj18qHr9ahdy5LgI9/HP4TVTFvMU6ajvLEedJcjlwOtORzp987N10NKlVkEL7UylSoA7SpUqAO0+2YIpUqAG3onTbpUtiWMLvFcpUCOWbfiIqbuDXaVRJ0XFC7k1zuzSpUsmPFFbEjX3UTwmOVQM4MeWtKlWiIaLN7GYZ15K34spkeUDedqpMrWmt3CJGdXXXcA5vdtSpUMFyes3ritlbcNlYejagx6EUA7dHw27SmJlnPQDQf8qVKvF9Nv6hX9z3PWOvTv8AAw5AmF2Hz86s8KaGUnbNJ9JpUq9o8IJdlOICybjwxAkgD10mffWcxN3wIkmBJjkDLbe4/OlSrNRWTfwbSk8EvkI9lFJv+Ex4W+Qol2dJFptQJadZ9NYHlSpVz6/f8P3Ov0q4/wBv2JsLaW9j7aGSuWSDzyK12I5CUFbTDOEeSJk7nfzpUqx1uI/B2+kX1/IB4zjFxvESXUBEW2mgAIVfGQo2BJyiddM3WjtpggGQkg+4zzFcpVPqHlz9jb0cFFOu7f6srdo7v7FUOucx7tWPzArzm7jXs3GQGQrEbbiaVKtfRcf3yzh/9PlfP7IhvY8gmDoSWjXn5dPfUvCchYllDSukzEyJMA7/ACpUq7NT6Wzz9GnqJMs43DqUeF2Ez0oDdckkn09I0pUqjQ4NfVpKSo6905Qo5zNNsLJjqYpUq2Zyp7lhbcSCeX1imhAYA/EOtKlUotk5IEeKfKCKjZMzSxjfb15eVKlTRLZ//9k=;" vertex="1" parent="1">
          <mxGeometry x="1250" y="1742" width="610.49" height="276" as="geometry" />
        </mxCell>
        <mxCell id="F8rlqcTrgMaWFQeFcG7n-176" style="edgeStyle=orthogonalEdgeStyle;rounded=0;orthogonalLoop=1;jettySize=auto;html=1;entryX=0.507;entryY=-0.005;entryDx=0;entryDy=0;entryPerimeter=0;" edge="1" parent="1" source="F8rlqcTrgMaWFQeFcG7n-165" target="F8rlqcTrgMaWFQeFcG7n-169">
          <mxGeometry relative="1" as="geometry" />
        </mxCell>
        <mxCell id="F8rlqcTrgMaWFQeFcG7n-177" value="&lt;font style=&quot;font-size: 20px;&quot;&gt;DOCLER + KUBERNETES&amp;nbsp;&lt;/font&gt;" style="whiteSpace=wrap;html=1;fillColor=#f5f5f5;strokeColor=#666666;rounded=1;gradientColor=#b3b3b3;" vertex="1" parent="1">
          <mxGeometry x="1090" y="2500" width="500" height="110" as="geometry" />
        </mxCell>
        <mxCell id="F8rlqcTrgMaWFQeFcG7n-179" value="&lt;font style=&quot;font-size: 27px;&quot;&gt;TERAFOERM + ANSIBLE&amp;nbsp;&lt;/font&gt;" style="rounded=1;whiteSpace=wrap;html=1;fillColor=#dae8fc;gradientColor=#7ea6e0;strokeColor=#6c8ebf;" vertex="1" parent="1">
          <mxGeometry x="-150" y="2630" width="1140" height="60" as="geometry" />
        </mxCell>
        <mxCell id="F8rlqcTrgMaWFQeFcG7n-180" value="&lt;span style=&quot;font-size: 27px;&quot;&gt;VCS --- GIT / GIT LAB&amp;nbsp;&lt;/span&gt;" style="rounded=1;whiteSpace=wrap;html=1;fillColor=#dae8fc;gradientColor=#7ea6e0;strokeColor=#6c8ebf;" vertex="1" parent="1">
          <mxGeometry x="-150" y="2740" width="1140" height="60" as="geometry" />
        </mxCell>
        <mxCell id="F8rlqcTrgMaWFQeFcG7n-181" value="&lt;span style=&quot;font-size: 27px;&quot;&gt;TELCOM ---OPEN RAN --- ZTP&amp;nbsp;&lt;/span&gt;" style="rounded=1;whiteSpace=wrap;html=1;fillColor=#dae8fc;gradientColor=#7ea6e0;strokeColor=#6c8ebf;" vertex="1" parent="1">
          <mxGeometry x="-160" y="2810" width="1140" height="60" as="geometry" />
        </mxCell>
        <mxCell id="F8rlqcTrgMaWFQeFcG7n-182" value="&lt;font style=&quot;font-size: 43px;&quot;&gt;120&amp;nbsp;&lt;/font&gt;" style="rounded=1;whiteSpace=wrap;html=1;" vertex="1" parent="1">
          <mxGeometry x="2000" y="1785" width="230" height="950" as="geometry" />
        </mxCell>
      </root>
    </mxGraphModel>
  </diagram>
</mxfile>
